<svg width="793" height="1002" viewBox="0 0 793 1002" fill="none" xmlns="http://www.w3.org/2000/svg">
<g filter="url(#filter0_d_204_208)">
<rect x="4" width="785" height="993" fill="#6B6B6B"/>
<path opacity="0.82" d="M698.934 618.42L615.806 698.137C572.106 740.045 502.707 738.592 460.799 694.891V694.891L543.926 615.174C587.626 573.266 657.026 574.719 698.934 618.42V618.42Z" fill="url(#paint0_linear_204_208)"/>
<path d="M465.891 700.732C476.867 698.105 492.616 693.678 509.206 687.905M676.438 623.421C660.983 622.165 632.361 622.947 608.997 631.541M565.681 662.15C572.377 657.84 578.041 653.317 582.13 648.643C588.847 640.967 598.379 635.448 608.997 631.541M565.681 662.15H624.35M565.681 662.15C557.121 667.66 546.875 672.821 536.073 677.501M536.073 677.501L555.264 623.421M536.073 677.501C527.282 681.311 518.123 684.802 509.206 687.905M509.206 687.905L565.681 711.149M608.997 631.541L634.219 602.586" stroke="url(#paint1_linear_204_208)" stroke-width="2"/>
<path d="M552.198 473.457V473.457C566.895 595.155 480.154 705.725 358.456 720.422V720.422V720.422C343.758 598.724 430.5 488.154 552.198 473.457V473.457Z" fill="url(#paint2_linear_204_208)"/>
<path d="M362.262 715.536C370.513 706.319 379.889 695.741 389.945 684.274M549.781 477.573C548.218 491.252 513.688 537.072 472.348 587.449M454.751 608.686C466.836 608.841 498.656 603.833 529.256 582.557M454.751 608.686C460.702 601.568 466.591 594.464 472.348 587.449M454.751 608.686C448.368 616.321 441.914 623.973 435.476 631.549M472.348 587.449C467.061 577.42 458.727 547.095 467.683 506.035M413.089 657.678C425.534 654.412 454.808 649.839 472.348 657.678M413.089 657.678C420.435 649.17 427.944 640.412 435.476 631.549M413.089 657.678C405.124 666.901 397.35 675.829 389.945 684.274M435.476 631.549C433.761 613.196 426.882 572.385 413.089 555.961M389.945 684.274C394.819 660.944 401.643 610.552 389.945 595.621" stroke="#8E5948"/>
<path d="M362.262 715.536C370.513 706.319 379.889 695.741 389.945 684.274M549.781 477.573C548.218 491.252 513.688 537.072 472.348 587.449M454.751 608.686C466.836 608.841 498.656 603.833 529.256 582.557M454.751 608.686C460.702 601.568 466.591 594.464 472.348 587.449M454.751 608.686C448.368 616.321 441.914 623.973 435.476 631.549M472.348 587.449C467.061 577.42 458.727 547.095 467.683 506.035M413.089 657.678C425.534 654.412 454.808 649.839 472.348 657.678M413.089 657.678C420.435 649.17 427.944 640.412 435.476 631.549M413.089 657.678C405.124 666.901 397.35 675.829 389.945 684.274M435.476 631.549C433.761 613.196 426.882 572.385 413.089 555.961M389.945 684.274C394.819 660.944 401.643 610.552 389.945 595.621" stroke="#8E5948"/>
<path opacity="0.8" d="M593.789 185.767V185.767C611.641 333.59 506.279 467.897 358.456 485.749V485.749V485.749C340.603 337.926 445.966 203.619 593.789 185.767V185.767Z" fill="url(#paint3_linear_204_208)"/>
<path opacity="0.9" d="M129.516 305.677V305.677C265.843 313.85 369.731 430.991 361.558 567.318V567.318V567.318C225.231 559.144 121.342 442.003 129.516 305.677V305.677Z" fill="url(#paint4_linear_204_208)"/>
<path opacity="0.8" d="M356.23 560.366C347.51 546.765 336.279 529.984 323.664 512.116M135.813 352.56C144.586 358.043 147.808 360.339 174.742 368.856M255.136 424.388C230.636 397.022 206.825 379.722 191.74 374.492C185.339 372.273 179.708 370.426 174.742 368.856M255.136 424.388C265.119 404.649 273.437 374.492 255.136 352.56M255.136 424.388C264.531 434.882 274.133 446.418 283.611 458.382M283.611 458.382C265.233 461.124 217.181 460.685 172.001 436.999M283.611 458.382C289.457 465.762 295.255 473.303 300.929 480.863M300.929 480.863C289.389 497.495 258.852 528.017 229.024 517.051M300.929 480.863C308.818 491.375 316.466 501.922 323.664 512.116M174.742 368.856C162.68 356.113 139.103 327.667 141.296 315.824M323.664 512.116C312.842 479.583 294.445 413.97 307.431 411.777" stroke="#8E5948"/>
<path d="M362.262 480.315C371.961 469.483 382.982 457.054 394.802 443.578M582.679 200.681C580.842 216.755 540.254 270.599 491.661 329.798M470.977 354.754C485.183 354.936 522.585 349.051 558.554 324.049M470.977 354.754C477.972 346.39 484.894 338.042 491.661 329.798M470.977 354.754C463.474 363.726 455.887 372.718 448.32 381.62M491.661 329.798C485.447 318.012 475.65 282.378 486.178 234.127M422.006 412.325C436.634 408.487 471.045 403.114 491.661 412.325M422.006 412.325C430.641 402.328 439.468 392.035 448.32 381.62M422.006 412.325C412.644 423.163 403.506 433.655 394.802 443.578M448.32 381.62C446.304 360.054 438.219 312.096 422.006 292.796M394.802 443.578C400.531 416.163 408.552 356.947 394.802 339.401" stroke="#8E5948"/>
<path d="M362.262 480.315C371.961 469.483 382.982 457.054 394.802 443.578M582.679 200.681C580.842 216.755 540.254 270.599 491.661 329.798M470.977 354.754C485.183 354.936 522.585 349.051 558.554 324.049M470.977 354.754C477.972 346.39 484.894 338.042 491.661 329.798M470.977 354.754C463.474 363.726 455.887 372.718 448.32 381.62M491.661 329.798C485.447 318.012 475.65 282.378 486.178 234.127M422.006 412.325C436.634 408.487 471.045 403.114 491.661 412.325M422.006 412.325C430.641 402.328 439.468 392.035 448.32 381.62M422.006 412.325C412.644 423.163 403.506 433.655 394.802 443.578M448.32 381.62C446.304 360.054 438.219 312.096 422.006 292.796M394.802 443.578C400.531 416.163 408.552 356.947 394.802 339.401" stroke="#8E5948"/>
<path d="M202.437 446.811L237.842 455.327C320.719 475.26 371.745 558.604 351.811 641.481V641.481L316.406 632.966C233.529 613.032 182.504 529.688 202.437 446.811V446.811Z" fill="url(#paint5_linear_204_208)"/>
<path d="M343.619 637.129C332.109 620.914 322.389 606.553 314.051 593.813M233.959 491.829C260.371 501.175 266.607 518.35 298.639 569.688M298.639 569.688C302.654 559.635 308.274 532.842 298.639 506.085M298.639 569.688C303.207 577.009 308.3 585.025 314.051 593.813M314.051 593.813C287.354 591.62 233.959 582.189 233.959 562.011" stroke="#C4A281" stroke-width="2"/>
<path opacity="0.8" d="M36.3052 447.138L43.9124 447.594C230.946 458.809 373.476 619.52 362.262 806.554V806.554L354.655 806.098C167.621 794.884 25.091 634.172 36.3052 447.138V447.138Z" fill="url(#paint6_linear_204_208)"/>
<path d="M354.037 801.619C335.294 772.056 306.623 730.249 272.665 685.928M40.4087 452.351C78.189 473.099 139.509 533.386 179.129 575.184M206.652 605.327C180.48 588.878 114.649 553.677 60.6958 544.466M206.652 605.327C197.594 595.054 188.4 584.965 179.129 575.184M206.652 605.327C221.682 622.376 236.336 639.93 250.338 657.416M179.129 575.184C172.184 566.407 156.429 537.448 148.972 491.829M272.665 685.928C252.27 679.531 201.5 673.097 161.583 698.538M272.665 685.928C265.447 676.506 257.99 666.971 250.338 657.416M250.338 657.416C236.86 639.87 213.947 592.716 230.121 544.466" stroke="#537374" stroke-width="2"/>
<path opacity="0.8" d="M378.867 616.588V616.588C425.914 625.615 456.734 671.071 447.707 718.118L440.591 755.208V755.208C393.544 746.181 362.723 700.724 371.75 653.678L378.867 616.588Z" fill="#435758"/>
<path d="M431.896 746.789L418.12 710.053M390.773 637.129L404.446 673.591M418.12 710.053L431.896 665.092M418.12 710.053L404.446 673.591M404.446 673.591L373.228 649.74" stroke="#3A5355" stroke-width="2"/>
<path opacity="0.9" d="M376.804 464.684V464.684C447.333 478.217 493.537 546.362 480.004 616.89L476.595 634.657V634.657C406.067 621.125 359.862 552.98 373.395 482.451L376.804 464.684Z" fill="#435758"/>
<path opacity="0.9" d="M468.632 621.776L459.379 605.738M394.611 493.474L431.622 557.625M431.622 557.625L435.597 531.855M431.622 557.625L440.874 573.663M439.572 506.085L435.597 531.855M450.127 589.701V529.113M450.127 589.701L440.874 573.663M450.127 589.701L459.379 605.738M435.597 531.855L417.64 486.894M440.874 573.663L417.743 557.694M394.611 541.724L417.743 557.694M417.743 557.694L405.029 573.663M459.379 605.738L417.743 589.701" stroke="#385152" stroke-width="2"/>
<path opacity="0.8" d="M571.634 311.629C478.843 361.341 498.663 489.025 518.423 546.138C534.528 541.829 545.356 540.482 564.556 537.564C604.262 531.529 633.214 512.652 642.727 503.968C649.27 495.23 669.663 474.66 698.888 462.29C728.113 449.919 740.637 417.876 743.246 403.401C716.536 395.447 667.812 402.558 646.789 407.108C663.108 388.712 717.373 392.298 742.466 396.391C751.534 386.697 744.625 358.668 739.119 355.463C734.714 352.899 705.349 364.727 691.217 370.962C690.746 365.808 704.882 356.769 712.009 352.893C719.96 349.9 733.954 339.938 726.324 324.042C718.694 308.145 692.402 304.372 680.21 304.472C670.858 320.27 657.525 323.494 652.028 323.132C660.058 321.44 668.847 307.35 672.237 300.517C658.302 304.957 647.197 292.823 643.386 286.202C629.198 294.774 619.525 354.314 615.054 379.535C611.477 399.711 600.755 413.756 595.841 418.257C600.369 411.42 606.234 387.459 608.6 376.333C600.213 360.817 631.27 290.598 629.566 291.171C628.202 291.631 590.377 305.001 571.634 311.629Z" fill="url(#paint7_linear_204_208)"/>
<path d="M518.991 545.947C527.269 531.497 539.632 511.208 553.435 490.654M623.384 410.874C608.143 418.204 587.059 443.118 567.1 470.942M567.1 470.942C598.669 466.105 668.616 451.673 695.849 432.637M567.1 470.942C562.455 477.417 557.87 484.049 553.435 490.654M553.435 490.654C544.63 454.746 539.873 371.709 591.286 326.823" stroke="url(#paint8_linear_204_208)" stroke-width="2"/>
<path d="M587.9 436.172C476.924 545.394 405.681 853.064 383.932 993.246H405.864C457.185 650.229 548.605 478.94 587.9 436.172Z" fill="url(#paint9_linear_204_208)"/>
<path opacity="0.8" d="M284.142 98.4186C205.186 209.395 301.583 345.981 357.327 400.811C373.514 386.555 385.29 378.768 405.864 364.345C448.412 334.517 471.112 295.99 477.143 280.455C479.702 266.564 491.509 230.998 518.266 199.854C545.023 168.711 541.112 124.372 535.811 106.095C500.282 112.236 447.901 148.497 426.151 165.86C434.485 135.155 499.441 108.105 530.877 98.4186C535.811 81.9696 511.686 53.4579 503.462 52.9096C496.882 52.471 469.65 83.0662 456.856 98.4186C453.347 92.7163 464.532 74.1106 470.564 65.5206C478.057 57.4788 488.548 37.8862 470.564 23.8497C452.579 9.81315 419.937 20.5599 405.864 27.6878C404.11 51.3744 390.512 62.7791 383.932 65.5206C392.266 58.9409 394.35 37.5572 394.35 27.6878C380.752 40.847 360.904 33.1708 352.679 27.6878C341.166 45.7817 364.193 120.351 373.514 152.152C380.971 177.593 376.621 200.037 373.514 208.079C374.83 197.552 367.849 166.408 364.193 152.152C345.551 138.993 341.165 39.7504 339.52 41.3953C338.204 42.7112 302.053 79.9592 284.142 98.4186Z" fill="url(#paint10_linear_204_208)"/>
<path opacity="0.8" d="M284.142 98.4186C205.187 209.395 301.583 345.981 357.327 400.811C373.515 386.555 385.29 378.768 405.865 364.345C448.412 334.517 471.112 295.99 477.144 280.455C479.702 266.564 491.509 230.998 518.266 199.854C545.023 168.711 541.112 124.372 535.812 106.095C500.282 112.236 447.901 148.497 426.152 165.86C434.486 135.155 499.441 108.105 530.877 98.4186C535.812 81.9696 511.687 53.4579 503.462 52.9096C496.883 52.471 469.65 83.0662 456.857 98.4186C453.347 92.7163 464.533 74.1106 470.564 65.5206C478.058 57.4788 488.548 37.8862 470.564 23.8497C452.58 9.81315 419.938 20.5599 405.865 27.6878C404.11 51.3744 390.512 62.7791 383.933 65.5206C392.267 58.9409 394.35 37.5572 394.35 27.6878C380.752 40.847 360.904 33.1708 352.68 27.6878C341.166 45.7817 364.194 120.351 373.515 152.152C380.972 177.593 376.622 200.037 373.515 208.079C374.831 197.552 367.849 166.408 364.194 152.152C345.551 138.993 341.165 39.7504 339.52 41.3953C338.204 42.7112 302.053 79.9592 284.142 98.4186Z" fill="url(#paint11_linear_204_208)"/>
<path d="M357.875 400.263C359.161 378.755 361.822 348.131 365.999 316.372M401.191 183.684C387.742 200.943 377.634 241.943 370.501 285.668M370.501 285.668C404.308 261.908 477.076 204.958 497.692 167.235M370.501 285.668C368.841 295.843 367.342 306.166 365.999 316.372M365.999 316.372C335.145 279.819 281.881 186.315 315.656 104.728" stroke="#C4A281" stroke-width="2"/>
<path d="M357.875 400.263C359.161 378.755 361.822 348.131 365.999 316.372M401.191 183.684C387.742 200.943 377.634 241.943 370.501 285.668M370.501 285.668C404.308 261.908 477.076 204.958 497.692 167.235M370.501 285.668C368.841 295.843 367.342 306.166 365.999 316.372M365.999 316.372C335.145 279.819 281.881 186.315 315.656 104.728" stroke="#C4A281" stroke-width="2"/>
<path d="M373.516 308.966C321.139 511.019 355.239 777.033 383.933 992.15H405.865C356.14 739.113 348.714 475.38 373.516 308.966Z" fill="url(#paint12_linear_204_208)"/>
</g>
<defs>
<filter id="filter0_d_204_208" x="0" y="0" width="793" height="1001.25" filterUnits="userSpaceOnUse" color-interpolation-filters="sRGB">
<feFlood flood-opacity="0" result="BackgroundImageFix"/>
<feColorMatrix in="SourceAlpha" type="matrix" values="0 0 0 0 0 0 0 0 0 0 0 0 0 0 0 0 0 0 127 0" result="hardAlpha"/>
<feOffset dy="4"/>
<feGaussianBlur stdDeviation="2"/>
<feComposite in2="hardAlpha" operator="out"/>
<feColorMatrix type="matrix" values="0 0 0 0 0 0 0 0 0 0 0 0 0 0 0 0 0 0 0.25 0"/>
<feBlend mode="normal" in2="BackgroundImageFix" result="effect1_dropShadow_204_208"/>
<feBlend mode="normal" in="SourceGraphic" in2="effect1_dropShadow_204_208" result="shape"/>
</filter>
<linearGradient id="paint0_linear_204_208" x1="532.783" y1="687.024" x2="698.919" y2="630.549" gradientUnits="userSpaceOnUse">
<stop stop-color="#435758"/>
<stop offset="1" stop-color="#63898A" stop-opacity="0.04"/>
</linearGradient>
<linearGradient id="paint1_linear_204_208" x1="514.689" y1="687.024" x2="696.725" y2="613.003" gradientUnits="userSpaceOnUse">
<stop stop-color="#435758"/>
<stop offset="1" stop-color="#63898A" stop-opacity="0.04"/>
</linearGradient>
<linearGradient id="paint2_linear_204_208" x1="538.988" y1="489.798" x2="349.401" y2="720.011" gradientUnits="userSpaceOnUse">
<stop stop-color="#C38065" stop-opacity="0.38"/>
<stop offset="0.780643" stop-color="#9F5A48"/>
</linearGradient>
<linearGradient id="paint3_linear_204_208" x1="577.744" y1="205.616" x2="347.457" y2="485.249" gradientUnits="userSpaceOnUse">
<stop stop-color="#C38065"/>
<stop offset="1" stop-color="#9F5A48"/>
</linearGradient>
<linearGradient id="paint4_linear_204_208" x1="144.792" y1="323.416" x2="359.299" y2="577.161" gradientUnits="userSpaceOnUse">
<stop stop-color="#C38065"/>
<stop offset="1" stop-color="#9F5A48"/>
</linearGradient>
<linearGradient id="paint5_linear_204_208" x1="295.171" y1="469.115" x2="259.078" y2="619.177" gradientUnits="userSpaceOnUse">
<stop stop-color="#C39B78" stop-opacity="0.5"/>
<stop offset="1" stop-color="#C39B78"/>
</linearGradient>
<linearGradient id="paint6_linear_204_208" x1="38.463" y1="446.843" x2="351.665" y2="812.911" gradientUnits="userSpaceOnUse">
<stop stop-color="#81928A"/>
<stop offset="1" stop-color="#465A5E"/>
</linearGradient>
<linearGradient id="paint7_linear_204_208" x1="555.58" y1="489.5" x2="553.416" y2="307.987" gradientUnits="userSpaceOnUse">
<stop stop-color="#435758"/>
<stop offset="1" stop-color="#63898A" stop-opacity="0.51"/>
</linearGradient>
<linearGradient id="paint8_linear_204_208" x1="535.774" y1="497.609" x2="685.158" y2="489.368" gradientUnits="userSpaceOnUse">
<stop stop-color="#435758"/>
<stop offset="1" stop-color="#63898A" stop-opacity="0.04"/>
</linearGradient>
<linearGradient id="paint9_linear_204_208" x1="428.058" y1="838.355" x2="306.852" y2="713.023" gradientUnits="userSpaceOnUse">
<stop stop-color="#232D2D"/>
<stop offset="1" stop-color="#425A5B"/>
</linearGradient>
<linearGradient id="paint10_linear_204_208" x1="396.538" y1="17" x2="354.037" y2="401.907" gradientUnits="userSpaceOnUse">
<stop stop-color="#C59D7A" stop-opacity="0.8"/>
<stop offset="1" stop-color="#B17948"/>
</linearGradient>
<linearGradient id="paint11_linear_204_208" x1="396.538" y1="17" x2="354.037" y2="401.907" gradientUnits="userSpaceOnUse">
<stop stop-color="#C59D7A" stop-opacity="0.8"/>
<stop offset="1" stop-color="#B17948"/>
</linearGradient>
<linearGradient id="paint12_linear_204_208" x1="351.902" y1="991.818" x2="256.959" y2="970.366" gradientUnits="userSpaceOnUse">
<stop stop-color="#142122"/>
<stop offset="1" stop-color="#2A3A3B"/>
</linearGradient>
</defs>
</svg>
