<svg width="785" height="994" viewBox="0 0 785 994" fill="none" xmlns="http://www.w3.org/2000/svg">
<rect width="785" height="993" fill="#6B6B6B"/>
<path d="M583.901 436.172C472.925 545.394 401.682 853.064 379.933 993.246H401.865C453.186 650.229 544.606 478.94 583.901 436.172Z" fill="url(#paint0_linear_204_178)"/>
<path opacity="0.8" d="M280.142 98.4186C201.187 209.395 297.583 345.981 353.327 400.811C369.515 386.555 381.29 378.768 401.865 364.345C444.412 334.517 467.112 295.99 473.144 280.455C475.702 266.564 487.509 230.998 514.266 199.854C541.023 168.711 537.112 124.372 531.812 106.095C496.282 112.236 443.901 148.497 422.152 165.86C430.486 135.155 495.441 108.105 526.877 98.4186C531.812 81.9696 507.687 53.4579 499.462 52.9096C492.883 52.471 465.65 83.0662 452.857 98.4186C449.347 92.7163 460.533 74.1106 466.564 65.5206C474.058 57.4788 484.548 37.8862 466.564 23.8497C448.58 9.81315 415.938 20.5599 401.865 27.6878C400.11 51.3744 386.512 62.7791 379.933 65.5206C388.267 58.9409 390.35 37.5572 390.35 27.6878C376.752 40.847 356.904 33.1708 348.68 27.6878C337.166 45.7817 360.194 120.351 369.515 152.152C376.972 177.593 372.622 200.037 369.515 208.079C370.831 197.552 363.849 166.408 360.194 152.152C341.551 138.993 337.165 39.7504 335.52 41.3953C334.204 42.7112 298.053 79.9592 280.142 98.4186Z" fill="url(#paint1_linear_204_178)"/>
<path opacity="0.8" d="M280.142 98.4186C201.187 209.395 297.583 345.981 353.327 400.811C369.515 386.555 381.29 378.768 401.865 364.345C444.412 334.517 467.112 295.99 473.144 280.455C475.702 266.564 487.509 230.998 514.266 199.854C541.023 168.711 537.112 124.372 531.812 106.095C496.282 112.236 443.901 148.497 422.152 165.86C430.486 135.155 495.441 108.105 526.877 98.4186C531.812 81.9696 507.687 53.4579 499.462 52.9096C492.883 52.471 465.65 83.0662 452.857 98.4186C449.347 92.7163 460.533 74.1106 466.564 65.5206C474.058 57.4788 484.548 37.8862 466.564 23.8497C448.58 9.81315 415.938 20.5599 401.865 27.6878C400.11 51.3744 386.512 62.7791 379.933 65.5206C388.267 58.9409 390.35 37.5572 390.35 27.6878C376.752 40.847 356.904 33.1708 348.68 27.6878C337.166 45.7817 360.194 120.351 369.515 152.152C376.972 177.593 372.622 200.037 369.515 208.079C370.831 197.552 363.849 166.408 360.194 152.152C341.551 138.993 337.165 39.7504 335.52 41.3953C334.204 42.7112 298.053 79.9592 280.142 98.4186Z" fill="url(#paint2_linear_204_178)"/>
<path d="M353.875 400.263C355.161 378.755 357.822 348.131 361.999 316.372M397.191 183.684C383.742 200.943 373.634 241.943 366.501 285.668M366.501 285.668C400.308 261.908 473.076 204.958 493.692 167.235M366.501 285.668C364.841 295.843 363.342 306.166 361.999 316.372M361.999 316.372C331.145 279.819 277.881 186.315 311.656 104.728" stroke="#C4A281" stroke-width="2"/>
<path d="M353.875 400.263C355.161 378.755 357.822 348.131 361.999 316.372M397.191 183.684C383.742 200.943 373.634 241.943 366.501 285.668M366.501 285.668C400.308 261.908 473.076 204.958 493.692 167.235M366.501 285.668C364.841 295.843 363.342 306.166 361.999 316.372M361.999 316.372C331.145 279.819 277.881 186.315 311.656 104.728" stroke="#C4A281" stroke-width="2"/>
<path d="M369.515 308.966C317.139 511.019 351.238 777.033 379.933 992.15H401.865C352.14 739.113 344.714 475.38 369.515 308.966Z" fill="url(#paint3_linear_204_178)"/>
<defs>
<linearGradient id="paint0_linear_204_178" x1="424.058" y1="838.355" x2="302.852" y2="713.023" gradientUnits="userSpaceOnUse">
<stop stop-color="#232D2D"/>
<stop offset="1" stop-color="#425A5B"/>
</linearGradient>
<linearGradient id="paint1_linear_204_178" x1="392.538" y1="17" x2="350.037" y2="401.907" gradientUnits="userSpaceOnUse">
<stop stop-color="#C59D7A" stop-opacity="0.8"/>
<stop offset="1" stop-color="#B17948"/>
</linearGradient>
<linearGradient id="paint2_linear_204_178" x1="392.538" y1="17" x2="350.037" y2="401.907" gradientUnits="userSpaceOnUse">
<stop stop-color="#C59D7A" stop-opacity="0.8"/>
<stop offset="1" stop-color="#B17948"/>
</linearGradient>
<linearGradient id="paint3_linear_204_178" x1="347.902" y1="991.818" x2="252.958" y2="970.366" gradientUnits="userSpaceOnUse">
<stop stop-color="#142122"/>
<stop offset="1" stop-color="#2A3A3B"/>
</linearGradient>
</defs>
</svg>
