<svg width="785" height="994" viewBox="0 0 785 994" fill="none" xmlns="http://www.w3.org/2000/svg">
<rect width="785" height="993" fill="#6B6B6B"/>
<path d="M548.198 473.457V473.457C562.895 595.155 476.154 705.725 354.456 720.422V720.422V720.422C339.758 598.724 426.5 488.154 548.198 473.457V473.457Z" fill="url(#paint0_linear_202_118)"/>
<path d="M358.262 715.536C366.513 706.319 375.889 695.741 385.945 684.274M545.781 477.573C544.218 491.252 509.688 537.072 468.348 587.449M450.751 608.686C462.836 608.841 494.656 603.833 525.256 582.557M450.751 608.686C456.702 601.568 462.591 594.464 468.348 587.449M450.751 608.686C444.368 616.321 437.914 623.973 431.476 631.549M468.348 587.449C463.061 577.42 454.727 547.095 463.683 506.035M409.089 657.678C421.534 654.412 450.808 649.839 468.348 657.678M409.089 657.678C416.435 649.17 423.944 640.412 431.476 631.549M409.089 657.678C401.124 666.901 393.35 675.829 385.945 684.274M431.476 631.549C429.761 613.196 422.882 572.385 409.089 555.961M385.945 684.274C390.819 660.944 397.643 610.552 385.945 595.621" stroke="#8E5948"/>
<path d="M358.262 715.536C366.513 706.319 375.889 695.741 385.945 684.274M545.781 477.573C544.218 491.252 509.688 537.072 468.348 587.449M450.751 608.686C462.836 608.841 494.656 603.833 525.256 582.557M450.751 608.686C456.702 601.568 462.591 594.464 468.348 587.449M450.751 608.686C444.368 616.321 437.914 623.973 431.476 631.549M468.348 587.449C463.061 577.42 454.727 547.095 463.683 506.035M409.089 657.678C421.534 654.412 450.808 649.839 468.348 657.678M409.089 657.678C416.435 649.17 423.944 640.412 431.476 631.549M409.089 657.678C401.124 666.901 393.35 675.829 385.945 684.274M431.476 631.549C429.761 613.196 422.882 572.385 409.089 555.961M385.945 684.274C390.819 660.944 397.643 610.552 385.945 595.621" stroke="#8E5948"/>
<path opacity="0.8" d="M589.789 185.767V185.767C607.641 333.59 502.279 467.897 354.456 485.749V485.749V485.749C336.603 337.926 441.966 203.619 589.789 185.767V185.767Z" fill="url(#paint1_linear_202_118)"/>
<path opacity="0.9" d="M125.516 305.677V305.677C261.843 313.85 365.731 430.991 357.558 567.318V567.318V567.318C221.231 559.144 117.342 442.003 125.516 305.677V305.677Z" fill="url(#paint2_linear_202_118)"/>
<path opacity="0.8" d="M352.23 560.366C343.51 546.765 332.279 529.984 319.664 512.116M131.813 352.56C140.586 358.043 143.808 360.339 170.742 368.856M251.136 424.388C226.636 397.022 202.825 379.722 187.74 374.492C181.339 372.273 175.708 370.426 170.742 368.856M251.136 424.388C261.119 404.649 269.437 374.492 251.136 352.56M251.136 424.388C260.531 434.882 270.133 446.418 279.611 458.382M279.611 458.382C261.233 461.124 213.181 460.685 168.001 436.999M279.611 458.382C285.457 465.762 291.255 473.303 296.929 480.863M296.929 480.863C285.389 497.495 254.852 528.017 225.024 517.051M296.929 480.863C304.818 491.375 312.466 501.922 319.664 512.116M170.742 368.856C158.68 356.113 135.103 327.667 137.296 315.824M319.664 512.116C308.842 479.583 290.445 413.97 303.431 411.777" stroke="#8E5948"/>
<path d="M358.262 480.315C367.961 469.483 378.982 457.054 390.802 443.578M578.679 200.681C576.842 216.755 536.254 270.599 487.661 329.798M466.977 354.754C481.183 354.936 518.585 349.051 554.554 324.049M466.977 354.754C473.972 346.39 480.894 338.042 487.661 329.798M466.977 354.754C459.474 363.726 451.887 372.718 444.32 381.62M487.661 329.798C481.447 318.012 471.65 282.378 482.178 234.127M418.006 412.325C432.634 408.487 467.045 403.114 487.661 412.325M418.006 412.325C426.641 402.328 435.468 392.035 444.32 381.62M418.006 412.325C408.644 423.163 399.506 433.655 390.802 443.578M444.32 381.62C442.304 360.054 434.219 312.096 418.006 292.796M390.802 443.578C396.531 416.163 404.552 356.947 390.802 339.401" stroke="#8E5948"/>
<path d="M358.262 480.315C367.961 469.483 378.982 457.054 390.802 443.578M578.679 200.681C576.842 216.755 536.254 270.599 487.661 329.798M466.977 354.754C481.183 354.936 518.585 349.051 554.554 324.049M466.977 354.754C473.972 346.39 480.894 338.042 487.661 329.798M466.977 354.754C459.474 363.726 451.887 372.718 444.32 381.62M487.661 329.798C481.447 318.012 471.65 282.378 482.178 234.127M418.006 412.325C432.634 408.487 467.045 403.114 487.661 412.325M418.006 412.325C426.641 402.328 435.468 392.035 444.32 381.62M418.006 412.325C408.644 423.163 399.506 433.655 390.802 443.578M444.32 381.62C442.304 360.054 434.219 312.096 418.006 292.796M390.802 443.578C396.531 416.163 404.552 356.947 390.802 339.401" stroke="#8E5948"/>
<path d="M198.437 446.811L233.842 455.327C316.719 475.26 367.745 558.604 347.811 641.481V641.481L312.406 632.966C229.529 613.032 178.504 529.688 198.437 446.811V446.811Z" fill="url(#paint3_linear_202_118)"/>
<path d="M339.619 637.129C328.109 620.914 318.389 606.553 310.051 593.813M229.959 491.829C256.371 501.175 262.607 518.35 294.639 569.688M294.639 569.688C298.654 559.635 304.274 532.842 294.639 506.085M294.639 569.688C299.207 577.009 304.3 585.025 310.051 593.813M310.051 593.813C283.354 591.62 229.959 582.189 229.959 562.011" stroke="#C4A281" stroke-width="2"/>
<path d="M350.037 801.619C331.294 772.056 302.623 730.249 268.665 685.928M36.4087 452.351C74.189 473.099 135.509 533.386 175.129 575.184M202.652 605.327C176.48 588.878 110.649 553.677 56.6958 544.466M202.652 605.327C193.594 595.054 184.4 584.965 175.129 575.184M202.652 605.327C217.682 622.376 232.336 639.93 246.338 657.416M175.129 575.184C168.184 566.407 152.429 537.448 144.972 491.829M268.665 685.928C248.27 679.531 197.5 673.097 157.583 698.538M268.665 685.928C261.447 676.506 253.99 666.971 246.338 657.416M246.338 657.416C232.86 639.87 209.947 592.716 226.121 544.466" stroke="#537374" stroke-width="2"/>
<path opacity="0.9" d="M372.804 464.684V464.684C443.333 478.217 489.537 546.362 476.004 616.89L472.595 634.657V634.657C402.067 621.125 355.862 552.98 369.395 482.451L372.804 464.684Z" fill="#435758"/>
<path opacity="0.9" d="M464.632 621.776L455.379 605.738M390.611 493.474L427.622 557.625M427.622 557.625L431.597 531.855M427.622 557.625L436.874 573.663M435.572 506.085L431.597 531.855M446.127 589.701V529.113M446.127 589.701L436.874 573.663M446.127 589.701L455.379 605.738M431.597 531.855L413.64 486.894M436.874 573.663L413.743 557.694M390.611 541.724L413.743 557.694M413.743 557.694L401.029 573.663M455.379 605.738L413.743 589.701" stroke="#385152" stroke-width="2"/>
<path opacity="0.8" d="M567.634 311.629C474.843 361.341 494.663 489.025 514.423 546.138C530.528 541.829 541.356 540.482 560.556 537.564C600.262 531.529 629.214 512.652 638.727 503.968C645.27 495.23 665.663 474.66 694.888 462.29C724.113 449.919 736.637 417.876 739.246 403.401C712.536 395.447 663.812 402.558 642.789 407.108C659.108 388.712 713.373 392.298 738.466 396.391C747.534 386.697 740.625 358.668 735.119 355.463C730.714 352.899 701.349 364.727 687.217 370.962C686.746 365.808 700.882 356.769 708.009 352.893C715.96 349.9 729.954 339.938 722.324 324.042C714.694 308.145 688.402 304.372 676.21 304.472C666.858 320.27 653.525 323.494 648.028 323.132C656.058 321.44 664.847 307.35 668.237 300.517C654.302 304.957 643.197 292.823 639.386 286.202C625.198 294.774 615.525 354.314 611.054 379.535C607.477 399.711 596.755 413.756 591.841 418.257C596.369 411.42 602.234 387.459 604.6 376.333C596.213 360.817 627.27 290.598 625.566 291.171C624.202 291.631 586.377 305.001 567.634 311.629Z" fill="url(#paint4_linear_202_118)"/>
<path d="M514.991 545.947C523.269 531.497 535.632 511.208 549.435 490.654M619.384 410.874C604.143 418.204 583.059 443.118 563.1 470.942M563.1 470.942C594.669 466.105 664.616 451.673 691.849 432.637M563.1 470.942C558.455 477.417 553.87 484.049 549.435 490.654M549.435 490.654C540.63 454.746 535.873 371.709 587.286 326.823" stroke="url(#paint5_linear_202_118)" stroke-width="2"/>
<path d="M583.9 436.172C472.924 545.394 401.681 853.064 379.932 993.246H401.864C453.185 650.229 544.605 478.94 583.9 436.172Z" fill="url(#paint6_linear_202_118)"/>
<path opacity="0.8" d="M280.142 98.4186C201.186 209.395 297.583 345.981 353.327 400.811C369.514 386.555 381.29 378.768 401.864 364.345C444.412 334.517 467.112 295.99 473.143 280.455C475.702 266.564 487.509 230.998 514.266 199.854C541.023 168.711 537.112 124.372 531.811 106.095C496.282 112.236 443.901 148.497 422.151 165.86C430.485 135.155 495.441 108.105 526.877 98.4186C531.811 81.9696 507.686 53.4579 499.462 52.9096C492.882 52.471 465.65 83.0662 452.856 98.4186C449.347 92.7163 460.532 74.1106 466.564 65.5206C474.057 57.4788 484.548 37.8862 466.564 23.8497C448.579 9.81315 415.937 20.5599 401.864 27.6878C400.11 51.3744 386.512 62.7791 379.932 65.5206C388.266 58.9409 390.35 37.5572 390.35 27.6878C376.752 40.847 356.904 33.1708 348.679 27.6878C337.166 45.7817 360.193 120.351 369.514 152.152C376.971 177.593 372.621 200.037 369.514 208.079C370.83 197.552 363.849 166.408 360.193 152.152C341.551 138.993 337.165 39.7504 335.52 41.3953C334.204 42.7112 298.053 79.9592 280.142 98.4186Z" fill="url(#paint7_linear_202_118)"/>
<path opacity="0.8" d="M280.142 98.4186C201.187 209.395 297.583 345.981 353.327 400.811C369.515 386.555 381.29 378.768 401.865 364.345C444.412 334.517 467.112 295.99 473.144 280.455C475.702 266.564 487.509 230.998 514.266 199.854C541.023 168.711 537.112 124.372 531.812 106.095C496.282 112.236 443.901 148.497 422.152 165.86C430.486 135.155 495.441 108.105 526.877 98.4186C531.812 81.9696 507.687 53.4579 499.462 52.9096C492.883 52.471 465.65 83.0662 452.857 98.4186C449.347 92.7163 460.533 74.1106 466.564 65.5206C474.058 57.4788 484.548 37.8862 466.564 23.8497C448.58 9.81315 415.938 20.5599 401.865 27.6878C400.11 51.3744 386.512 62.7791 379.933 65.5206C388.267 58.9409 390.35 37.5572 390.35 27.6878C376.752 40.847 356.904 33.1708 348.68 27.6878C337.166 45.7817 360.194 120.351 369.515 152.152C376.972 177.593 372.622 200.037 369.515 208.079C370.831 197.552 363.849 166.408 360.194 152.152C341.551 138.993 337.165 39.7504 335.52 41.3953C334.204 42.7112 298.053 79.9592 280.142 98.4186Z" fill="url(#paint8_linear_202_118)"/>
<path d="M353.875 400.263C355.161 378.755 357.822 348.131 361.999 316.372M397.191 183.684C383.742 200.943 373.634 241.943 366.501 285.668M366.501 285.668C400.308 261.908 473.076 204.958 493.692 167.235M366.501 285.668C364.841 295.843 363.342 306.166 361.999 316.372M361.999 316.372C331.145 279.819 277.881 186.315 311.656 104.728" stroke="#C4A281" stroke-width="2"/>
<path d="M353.875 400.263C355.161 378.755 357.822 348.131 361.999 316.372M397.191 183.684C383.742 200.943 373.634 241.943 366.501 285.668M366.501 285.668C400.308 261.908 473.076 204.958 493.692 167.235M366.501 285.668C364.841 295.843 363.342 306.166 361.999 316.372M361.999 316.372C331.145 279.819 277.881 186.315 311.656 104.728" stroke="#C4A281" stroke-width="2"/>
<path d="M369.516 308.966C317.139 511.019 351.239 777.033 379.933 992.15H401.865C352.14 739.113 344.714 475.38 369.516 308.966Z" fill="url(#paint9_linear_202_118)"/>
<defs>
<linearGradient id="paint0_linear_202_118" x1="534.988" y1="489.798" x2="345.401" y2="720.011" gradientUnits="userSpaceOnUse">
<stop stop-color="#C38065" stop-opacity="0.38"/>
<stop offset="0.780643" stop-color="#9F5A48"/>
</linearGradient>
<linearGradient id="paint1_linear_202_118" x1="573.744" y1="205.616" x2="343.457" y2="485.249" gradientUnits="userSpaceOnUse">
<stop stop-color="#C38065"/>
<stop offset="1" stop-color="#9F5A48"/>
</linearGradient>
<linearGradient id="paint2_linear_202_118" x1="140.792" y1="323.416" x2="355.299" y2="577.161" gradientUnits="userSpaceOnUse">
<stop stop-color="#C38065"/>
<stop offset="1" stop-color="#9F5A48"/>
</linearGradient>
<linearGradient id="paint3_linear_202_118" x1="291.171" y1="469.115" x2="255.078" y2="619.177" gradientUnits="userSpaceOnUse">
<stop stop-color="#C39B78" stop-opacity="0.5"/>
<stop offset="1" stop-color="#C39B78"/>
</linearGradient>
<linearGradient id="paint4_linear_202_118" x1="551.58" y1="489.5" x2="549.416" y2="307.987" gradientUnits="userSpaceOnUse">
<stop stop-color="#435758"/>
<stop offset="1" stop-color="#63898A" stop-opacity="0.51"/>
</linearGradient>
<linearGradient id="paint5_linear_202_118" x1="531.774" y1="497.609" x2="681.158" y2="489.368" gradientUnits="userSpaceOnUse">
<stop stop-color="#435758"/>
<stop offset="1" stop-color="#63898A" stop-opacity="0.04"/>
</linearGradient>
<linearGradient id="paint6_linear_202_118" x1="424.058" y1="838.355" x2="302.852" y2="713.023" gradientUnits="userSpaceOnUse">
<stop stop-color="#232D2D"/>
<stop offset="1" stop-color="#425A5B"/>
</linearGradient>
<linearGradient id="paint7_linear_202_118" x1="392.538" y1="17" x2="350.037" y2="401.907" gradientUnits="userSpaceOnUse">
<stop stop-color="#C59D7A" stop-opacity="0.8"/>
<stop offset="1" stop-color="#B17948"/>
</linearGradient>
<linearGradient id="paint8_linear_202_118" x1="392.538" y1="17" x2="350.037" y2="401.907" gradientUnits="userSpaceOnUse">
<stop stop-color="#C59D7A" stop-opacity="0.8"/>
<stop offset="1" stop-color="#B17948"/>
</linearGradient>
<linearGradient id="paint9_linear_202_118" x1="347.902" y1="991.818" x2="252.959" y2="970.366" gradientUnits="userSpaceOnUse">
<stop stop-color="#142122"/>
<stop offset="1" stop-color="#2A3A3B"/>
</linearGradient>
</defs>
</svg>
