<svg width="793" height="1002" viewBox="0 0 793 1002" fill="none" xmlns="http://www.w3.org/2000/svg">
<g filter="url(#filter0_d_204_148)">
<rect x="4" width="785" height="993" fill="#6B6B6B"/>
<path d="M552.198 473.457V473.457C566.895 595.155 480.154 705.725 358.456 720.422V720.422V720.422C343.758 598.724 430.5 488.154 552.198 473.457V473.457Z" fill="url(#paint0_linear_204_148)"/>
<path d="M362.262 715.536C370.513 706.319 379.889 695.741 389.945 684.274M549.781 477.573C548.218 491.252 513.688 537.072 472.348 587.449M454.751 608.686C466.836 608.841 498.656 603.833 529.256 582.557M454.751 608.686C460.702 601.568 466.591 594.464 472.348 587.449M454.751 608.686C448.368 616.321 441.914 623.973 435.476 631.549M472.348 587.449C467.061 577.42 458.727 547.095 467.683 506.035M413.089 657.678C425.534 654.412 454.808 649.839 472.348 657.678M413.089 657.678C420.435 649.17 427.944 640.412 435.476 631.549M413.089 657.678C405.124 666.901 397.35 675.829 389.945 684.274M435.476 631.549C433.761 613.196 426.882 572.385 413.089 555.961M389.945 684.274C394.819 660.944 401.643 610.552 389.945 595.621" stroke="#8E5948"/>
<path d="M362.262 715.536C370.513 706.319 379.889 695.741 389.945 684.274M549.781 477.573C548.218 491.252 513.688 537.072 472.348 587.449M454.751 608.686C466.836 608.841 498.656 603.833 529.256 582.557M454.751 608.686C460.702 601.568 466.591 594.464 472.348 587.449M454.751 608.686C448.368 616.321 441.914 623.973 435.476 631.549M472.348 587.449C467.061 577.42 458.727 547.095 467.683 506.035M413.089 657.678C425.534 654.412 454.808 649.839 472.348 657.678M413.089 657.678C420.435 649.17 427.944 640.412 435.476 631.549M413.089 657.678C405.124 666.901 397.35 675.829 389.945 684.274M435.476 631.549C433.761 613.196 426.882 572.385 413.089 555.961M389.945 684.274C394.819 660.944 401.643 610.552 389.945 595.621" stroke="#8E5948"/>
<path opacity="0.8" d="M593.789 185.767V185.767C611.641 333.59 506.279 467.897 358.456 485.749V485.749V485.749C340.603 337.926 445.966 203.619 593.789 185.767V185.767Z" fill="url(#paint1_linear_204_148)"/>
<path opacity="0.9" d="M129.516 305.677V305.677C265.843 313.85 369.731 430.991 361.558 567.318V567.318V567.318C225.231 559.144 121.342 442.003 129.516 305.677V305.677Z" fill="url(#paint2_linear_204_148)"/>
<path opacity="0.8" d="M356.23 560.366C347.51 546.765 336.279 529.984 323.664 512.116M135.813 352.56C144.586 358.043 147.808 360.339 174.742 368.856M255.136 424.388C230.636 397.022 206.825 379.722 191.74 374.492C185.339 372.273 179.708 370.426 174.742 368.856M255.136 424.388C265.119 404.649 273.437 374.492 255.136 352.56M255.136 424.388C264.531 434.882 274.133 446.418 283.611 458.382M283.611 458.382C265.233 461.124 217.181 460.685 172.001 436.999M283.611 458.382C289.457 465.762 295.255 473.303 300.929 480.863M300.929 480.863C289.389 497.495 258.852 528.017 229.024 517.051M300.929 480.863C308.818 491.375 316.466 501.922 323.664 512.116M174.742 368.856C162.68 356.113 139.103 327.667 141.296 315.824M323.664 512.116C312.842 479.583 294.445 413.97 307.431 411.777" stroke="#8E5948"/>
<path d="M362.262 480.315C371.961 469.483 382.982 457.054 394.802 443.578M582.679 200.681C580.842 216.755 540.254 270.599 491.661 329.798M470.977 354.754C485.183 354.936 522.585 349.051 558.554 324.049M470.977 354.754C477.972 346.39 484.894 338.042 491.661 329.798M470.977 354.754C463.474 363.726 455.887 372.718 448.32 381.62M491.661 329.798C485.447 318.012 475.65 282.378 486.178 234.127M422.006 412.325C436.634 408.487 471.045 403.114 491.661 412.325M422.006 412.325C430.641 402.328 439.468 392.035 448.32 381.62M422.006 412.325C412.644 423.163 403.506 433.655 394.802 443.578M448.32 381.62C446.304 360.054 438.219 312.096 422.006 292.796M394.802 443.578C400.531 416.163 408.552 356.947 394.802 339.401" stroke="#8E5948"/>
<path d="M362.262 480.315C371.961 469.483 382.982 457.054 394.802 443.578M582.679 200.681C580.842 216.755 540.254 270.599 491.661 329.798M470.977 354.754C485.183 354.936 522.585 349.051 558.554 324.049M470.977 354.754C477.972 346.39 484.894 338.042 491.661 329.798M470.977 354.754C463.474 363.726 455.887 372.718 448.32 381.62M491.661 329.798C485.447 318.012 475.65 282.378 486.178 234.127M422.006 412.325C436.634 408.487 471.045 403.114 491.661 412.325M422.006 412.325C430.641 402.328 439.468 392.035 448.32 381.62M422.006 412.325C412.644 423.163 403.506 433.655 394.802 443.578M448.32 381.62C446.304 360.054 438.219 312.096 422.006 292.796M394.802 443.578C400.531 416.163 408.552 356.947 394.802 339.401" stroke="#8E5948"/>
<path d="M587.9 436.172C476.924 545.394 405.681 853.064 383.932 993.246H405.864C457.185 650.229 548.605 478.94 587.9 436.172Z" fill="url(#paint3_linear_204_148)"/>
<path opacity="0.8" d="M284.142 98.4186C205.186 209.395 301.583 345.981 357.327 400.811C373.514 386.555 385.29 378.768 405.864 364.345C448.412 334.517 471.112 295.99 477.143 280.455C479.702 266.564 491.509 230.998 518.266 199.854C545.023 168.711 541.112 124.372 535.811 106.095C500.282 112.236 447.901 148.497 426.151 165.86C434.485 135.155 499.441 108.105 530.877 98.4186C535.811 81.9696 511.686 53.4579 503.462 52.9096C496.882 52.471 469.65 83.0662 456.856 98.4186C453.347 92.7163 464.532 74.1106 470.564 65.5206C478.057 57.4788 488.548 37.8862 470.564 23.8497C452.579 9.81315 419.937 20.5599 405.864 27.6878C404.11 51.3744 390.512 62.7791 383.932 65.5206C392.266 58.9409 394.35 37.5572 394.35 27.6878C380.752 40.847 360.904 33.1708 352.679 27.6878C341.166 45.7817 364.193 120.351 373.514 152.152C380.971 177.593 376.621 200.037 373.514 208.079C374.83 197.552 367.849 166.408 364.193 152.152C345.551 138.993 341.165 39.7504 339.52 41.3953C338.204 42.7112 302.053 79.9592 284.142 98.4186Z" fill="url(#paint4_linear_204_148)"/>
<path opacity="0.8" d="M284.142 98.4186C205.187 209.395 301.583 345.981 357.327 400.811C373.515 386.555 385.29 378.768 405.865 364.345C448.412 334.517 471.112 295.99 477.144 280.455C479.702 266.564 491.509 230.998 518.266 199.854C545.023 168.711 541.112 124.372 535.812 106.095C500.282 112.236 447.901 148.497 426.152 165.86C434.486 135.155 499.441 108.105 530.877 98.4186C535.812 81.9696 511.687 53.4579 503.462 52.9096C496.883 52.471 469.65 83.0662 456.857 98.4186C453.347 92.7163 464.533 74.1106 470.564 65.5206C478.058 57.4788 488.548 37.8862 470.564 23.8497C452.58 9.81315 419.938 20.5599 405.865 27.6878C404.11 51.3744 390.512 62.7791 383.933 65.5206C392.267 58.9409 394.35 37.5572 394.35 27.6878C380.752 40.847 360.904 33.1708 352.68 27.6878C341.166 45.7817 364.194 120.351 373.515 152.152C380.972 177.593 376.622 200.037 373.515 208.079C374.831 197.552 367.849 166.408 364.194 152.152C345.551 138.993 341.165 39.7504 339.52 41.3953C338.204 42.7112 302.053 79.9592 284.142 98.4186Z" fill="url(#paint5_linear_204_148)"/>
<path d="M357.875 400.263C359.161 378.755 361.822 348.131 365.999 316.372M401.191 183.684C387.742 200.943 377.634 241.943 370.501 285.668M370.501 285.668C404.308 261.908 477.076 204.958 497.692 167.235M370.501 285.668C368.841 295.843 367.342 306.166 365.999 316.372M365.999 316.372C335.145 279.819 281.881 186.315 315.656 104.728" stroke="#C4A281" stroke-width="2"/>
<path d="M357.875 400.263C359.161 378.755 361.822 348.131 365.999 316.372M401.191 183.684C387.742 200.943 377.634 241.943 370.501 285.668M370.501 285.668C404.308 261.908 477.076 204.958 497.692 167.235M370.501 285.668C368.841 295.843 367.342 306.166 365.999 316.372M365.999 316.372C335.145 279.819 281.881 186.315 315.656 104.728" stroke="#C4A281" stroke-width="2"/>
<path d="M373.516 308.966C321.139 511.019 355.239 777.033 383.933 992.15H405.865C356.14 739.113 348.714 475.38 373.516 308.966Z" fill="url(#paint6_linear_204_148)"/>
</g>
<defs>
<filter id="filter0_d_204_148" x="0" y="0" width="793" height="1001.25" filterUnits="userSpaceOnUse" color-interpolation-filters="sRGB">
<feFlood flood-opacity="0" result="BackgroundImageFix"/>
<feColorMatrix in="SourceAlpha" type="matrix" values="0 0 0 0 0 0 0 0 0 0 0 0 0 0 0 0 0 0 127 0" result="hardAlpha"/>
<feOffset dy="4"/>
<feGaussianBlur stdDeviation="2"/>
<feComposite in2="hardAlpha" operator="out"/>
<feColorMatrix type="matrix" values="0 0 0 0 0 0 0 0 0 0 0 0 0 0 0 0 0 0 0.25 0"/>
<feBlend mode="normal" in2="BackgroundImageFix" result="effect1_dropShadow_204_148"/>
<feBlend mode="normal" in="SourceGraphic" in2="effect1_dropShadow_204_148" result="shape"/>
</filter>
<linearGradient id="paint0_linear_204_148" x1="538.988" y1="489.798" x2="349.401" y2="720.011" gradientUnits="userSpaceOnUse">
<stop stop-color="#C38065" stop-opacity="0.38"/>
<stop offset="0.780643" stop-color="#9F5A48"/>
</linearGradient>
<linearGradient id="paint1_linear_204_148" x1="577.744" y1="205.616" x2="347.457" y2="485.249" gradientUnits="userSpaceOnUse">
<stop stop-color="#C38065"/>
<stop offset="1" stop-color="#9F5A48"/>
</linearGradient>
<linearGradient id="paint2_linear_204_148" x1="144.792" y1="323.416" x2="359.299" y2="577.161" gradientUnits="userSpaceOnUse">
<stop stop-color="#C38065"/>
<stop offset="1" stop-color="#9F5A48"/>
</linearGradient>
<linearGradient id="paint3_linear_204_148" x1="428.058" y1="838.355" x2="306.852" y2="713.023" gradientUnits="userSpaceOnUse">
<stop stop-color="#232D2D"/>
<stop offset="1" stop-color="#425A5B"/>
</linearGradient>
<linearGradient id="paint4_linear_204_148" x1="396.538" y1="17" x2="354.037" y2="401.907" gradientUnits="userSpaceOnUse">
<stop stop-color="#C59D7A" stop-opacity="0.8"/>
<stop offset="1" stop-color="#B17948"/>
</linearGradient>
<linearGradient id="paint5_linear_204_148" x1="396.538" y1="17" x2="354.037" y2="401.907" gradientUnits="userSpaceOnUse">
<stop stop-color="#C59D7A" stop-opacity="0.8"/>
<stop offset="1" stop-color="#B17948"/>
</linearGradient>
<linearGradient id="paint6_linear_204_148" x1="351.902" y1="991.818" x2="256.959" y2="970.366" gradientUnits="userSpaceOnUse">
<stop stop-color="#142122"/>
<stop offset="1" stop-color="#2A3A3B"/>
</linearGradient>
</defs>
</svg>
