<svg width="1400" height="12" viewBox="0 0 1400 12" fill="none" xmlns="http://www.w3.org/2000/svg">
<path d="M-586.889 0.0664062H-530.62L-531.459 11.6562L-588.233 11.3203L-586.889 0.0664062ZM-505.888 0.0664062H-449.618L-450.458 11.6562L-507.232 11.3203L-505.888 0.0664062ZM-424.887 0.0664062H-368.617L-369.457 11.6562L-426.23 11.3203L-424.887 0.0664062ZM-343.885 0.0664062H-287.616L-288.456 11.6562L-345.229 11.3203L-343.885 0.0664062ZM-262.884 0.0664062H-206.615L-207.454 11.6562L-264.228 11.3203L-262.884 0.0664062ZM-181.883 0.0664062H-125.613L-126.453 11.6562L-183.227 11.3203L-181.883 0.0664062ZM-100.882 0.0664062H-44.612L-45.4518 11.6562L-102.225 11.3203L-100.882 0.0664062ZM-19.8803 0.0664062H36.3892L35.5494 11.6562L-21.2241 11.3203L-19.8803 0.0664062ZM61.121 0.0664062H117.391L116.551 11.6562L59.7772 11.3203L61.121 0.0664062ZM142.122 0.0664062H198.392L197.552 11.6562L140.778 11.3203L142.122 0.0664062ZM223.123 0.0664062H279.393L278.553 11.6562L221.78 11.3203L223.123 0.0664062ZM304.125 0.0664062H360.394L359.554 11.6562L302.781 11.3203L304.125 0.0664062ZM385.126 0.0664062H441.396L440.556 11.6562L383.782 11.3203L385.126 0.0664062ZM466.127 0.0664062H522.397L521.557 11.6562L464.783 11.3203L466.127 0.0664062ZM547.128 0.0664062H603.398L602.558 11.6562L545.785 11.3203L547.128 0.0664062ZM628.13 0.0664062H684.399L683.559 11.6562L626.786 11.3203L628.13 0.0664062ZM709.131 0.0664062H765.401L764.561 11.6562L707.787 11.3203L709.131 0.0664062ZM790.132 0.0664062H846.402L845.562 11.6562L788.788 11.3203L790.132 0.0664062ZM871.133 0.0664062H927.403L926.563 11.6562L869.79 11.3203L871.133 0.0664062ZM952.135 0.0664062H1008.4L1007.56 11.6562L950.791 11.3203L952.135 0.0664062ZM1033.14 0.0664062H1089.41L1088.57 11.6562L1031.79 11.3203L1033.14 0.0664062ZM1114.14 0.0664062H1170.41L1169.57 11.6562L1112.79 11.3203L1114.14 0.0664062ZM1195.14 0.0664062H1251.41L1250.57 11.6562L1193.79 11.3203L1195.14 0.0664062ZM1276.14 0.0664062H1332.41L1331.57 11.6562L1274.8 11.3203L1276.14 0.0664062ZM1357.14 0.0664062H1413.41L1412.57 11.6562L1355.8 11.3203L1357.14 0.0664062ZM1438.14 0.0664062H1494.41L1493.57 11.6562L1436.8 11.3203L1438.14 0.0664062ZM1519.14 0.0664062H1575.41L1574.57 11.6562L1517.8 11.3203L1519.14 0.0664062ZM1600.14 0.0664062H1656.41L1655.57 11.6562L1598.8 11.3203L1600.14 0.0664062ZM1681.15 0.0664062H1737.42L1736.58 11.6562L1679.8 11.3203L1681.15 0.0664062ZM1762.15 0.0664062H1818.42L1817.58 11.6562L1760.8 11.3203L1762.15 0.0664062ZM1843.15 0.0664062H1899.42L1898.58 11.6562L1841.8 11.3203L1843.15 0.0664062ZM1924.15 0.0664062H1980.42L1979.58 11.6562L1922.81 11.3203L1924.15 0.0664062ZM2005.15 0.0664062H2061.42L2060.58 11.6562L2003.81 11.3203L2005.15 0.0664062ZM2086.15 0.0664062H2142.42L2141.58 11.6562L2084.81 11.3203L2086.15 0.0664062ZM2167.15 0.0664062H2223.42L2222.58 11.6562L2165.81 11.3203L2167.15 0.0664062ZM2248.15 0.0664062H2304.42L2303.58 11.6562L2246.81 11.3203L2248.15 0.0664062Z" fill="white"/>
</svg>
