<svg width="745" height="307" viewBox="0 0 745 307" fill="none" xmlns="http://www.w3.org/2000/svg">
<path d="M106.887 164.258C104.48 165.461 101.746 166.555 98.6836 167.539C95.6211 168.469 92.3398 169.262 88.8398 169.918C85.3398 170.574 81.7031 171.066 77.9297 171.395C74.1562 171.777 70.3828 171.969 66.6094 171.969C57.0391 171.969 48.6719 170.984 41.5078 169.016C34.3438 167.047 28.3828 163.766 23.625 159.172C18.8672 154.578 15.3125 148.508 12.9609 140.961C10.6094 133.359 9.43359 123.926 9.43359 112.66C9.43359 100.902 10.6641 91.0312 13.125 83.0469C15.5859 75.0625 19.1133 68.6367 23.707 63.7695C28.3008 58.8477 33.8516 55.3203 40.3594 53.1875C46.9219 51.0547 54.25 49.9883 62.3438 49.9883C65.7891 49.9883 69.2617 50.1797 72.7617 50.5625C76.3164 50.8906 79.8164 51.4102 83.2617 52.1211C86.707 52.832 90.0156 53.7344 93.1875 54.8281C96.4141 55.8672 99.4219 57.0703 102.211 58.4375L95.8945 74.4336C90.3711 71.8086 84.9023 69.9219 79.4883 68.7734C74.1289 67.625 69.043 67.0508 64.2305 67.0508C58.7617 67.0508 54.0312 67.9258 50.0391 69.6758C46.1016 71.3711 42.8477 73.9961 40.2773 77.5508C37.707 81.0508 35.793 85.5352 34.5352 91.0039C33.332 96.418 32.7305 102.816 32.7305 110.199C32.7305 118.02 33.3594 124.746 34.6172 130.379C35.875 135.957 37.8438 140.578 40.5234 144.242C43.2578 147.906 46.7031 150.613 50.8594 152.363C55.0703 154.059 60.1289 154.906 66.0352 154.906C68.9883 154.906 71.9961 154.688 75.0586 154.25C78.1758 153.812 81.3203 153.211 84.4922 152.445V123.98H65.707V107.328H106.887V164.258ZM181.863 50.2344C191.707 50.2344 200.02 51.7383 206.801 54.7461C213.582 57.6992 219.078 61.8555 223.289 67.2148C227.555 72.5742 230.617 79 232.477 86.4922C234.336 93.9297 235.266 102.133 235.266 111.102C235.266 120.07 234.336 128.301 232.477 135.793C230.617 143.23 227.555 149.629 223.289 154.988C219.078 160.348 213.582 164.531 206.801 167.539C200.02 170.492 191.707 171.969 181.863 171.969C172.184 171.969 163.953 170.52 157.172 167.621C150.391 164.723 144.867 160.621 140.602 155.316C136.391 150.012 133.301 143.613 131.332 136.121C129.418 128.629 128.461 120.289 128.461 111.102C128.461 101.914 129.418 93.5742 131.332 86.082C133.301 78.5898 136.391 72.1914 140.602 66.8867C144.867 61.582 150.391 57.4805 157.172 54.582C163.953 51.6836 172.184 50.2344 181.863 50.2344ZM181.863 67.0508C176.121 67.0508 171.309 67.9805 167.426 69.8398C163.598 71.6992 160.508 74.4883 158.156 78.207C155.859 81.8711 154.219 86.4648 153.234 91.9883C152.25 97.457 151.758 103.828 151.758 111.102C151.758 118.375 152.25 124.773 153.234 130.297C154.219 135.766 155.859 140.359 158.156 144.078C160.508 147.742 163.598 150.504 167.426 152.363C171.309 154.223 176.121 155.152 181.863 155.152C187.551 155.152 192.309 154.25 196.137 152.445C200.02 150.586 203.109 147.824 205.406 144.16C207.758 140.496 209.426 135.902 210.41 130.379C211.449 124.855 211.969 118.43 211.969 111.102C211.969 103.773 211.449 97.3477 210.41 91.8242C209.426 86.3008 207.758 81.707 205.406 78.043C203.109 74.3789 200.02 71.6445 196.137 69.8398C192.309 67.9805 187.551 67.0508 181.863 67.0508ZM316.066 52.0391L360.609 170H337.477L324.023 133.742H285.141L271.688 170H248.555L293.098 52.0391H316.066ZM304.582 76.4023L291.211 117.254H317.953L304.582 76.4023Z" fill="white"/>
<path d="M403.348 52.0391V153.184H449.367V170H380.461V52.0391H403.348ZM471.844 149.574C476.383 151.324 481.223 152.801 486.363 154.004C491.559 155.152 497.191 155.727 503.262 155.727C507.199 155.727 510.809 155.371 514.09 154.66C517.371 153.949 520.188 152.828 522.539 151.297C524.945 149.766 526.805 147.824 528.117 145.473C529.484 143.066 530.168 140.195 530.168 136.859C530.168 133.25 529.43 130.379 527.953 128.246C526.531 126.113 524.508 124.363 521.883 122.996C519.258 121.629 516.086 120.48 512.367 119.551C508.648 118.621 504.52 117.582 499.98 116.434C494.895 115.121 490.246 113.617 486.035 111.922C481.879 110.227 478.324 108.039 475.371 105.359C472.418 102.68 470.121 99.3711 468.48 95.4336C466.84 91.4961 466.02 86.6289 466.02 80.832C466.02 76.9492 466.648 73.4766 467.906 70.4141C469.219 67.3516 470.969 64.6992 473.156 62.457C475.344 60.1602 477.859 58.2187 480.703 56.6328C483.602 55.0469 486.609 53.7617 489.727 52.7773C492.898 51.793 496.125 51.082 499.406 50.6445C502.688 50.207 505.805 49.9883 508.758 49.9883C510.836 49.9883 513.324 50.0977 516.223 50.3164C519.176 50.5352 522.293 50.9453 525.574 51.5469C528.91 52.0938 532.328 52.832 535.828 53.7617C539.383 54.6914 542.801 55.8672 546.082 57.2891L540.258 71.5625C535.883 69.9766 531.316 68.6914 526.559 67.707C521.855 66.7227 516.906 66.2305 511.711 66.2305C508.43 66.2305 505.422 66.5039 502.688 67.0508C499.953 67.543 497.574 68.3633 495.551 69.5117C493.582 70.6602 492.051 72.1641 490.957 74.0234C489.863 75.8828 489.316 78.125 489.316 80.75C489.316 84.1406 489.973 86.793 491.285 88.707C492.652 90.6211 494.594 92.1797 497.109 93.3828C499.625 94.5859 502.688 95.625 506.297 96.5C509.961 97.3203 514.09 98.332 518.684 99.5352C523.715 100.848 528.336 102.406 532.547 104.211C536.812 105.961 540.477 108.258 543.539 111.102C546.656 113.891 549.09 117.363 550.84 121.52C552.59 125.676 553.465 130.789 553.465 136.859C553.465 142.219 552.617 146.812 550.922 150.641C549.227 154.469 547.012 157.695 544.277 160.32C541.543 162.891 538.426 164.941 534.926 166.473C531.426 168.004 527.871 169.18 524.262 170C520.652 170.82 517.152 171.34 513.762 171.559C510.371 171.832 507.391 171.969 504.82 171.969C502.305 171.914 499.461 171.75 496.289 171.477C493.172 171.203 489.891 170.766 486.445 170.164C483 169.562 479.5 168.77 475.945 167.785C472.445 166.746 469.055 165.488 465.773 164.012L471.844 149.574ZM735.656 150.066C733.141 154.441 730.871 158.051 728.848 160.895C726.824 163.738 724.855 165.98 722.941 167.621C721.027 169.262 719.086 170.41 717.117 171.066C715.148 171.723 712.988 172.051 710.637 172.051C708.668 172.051 706.809 171.887 705.059 171.559C703.309 171.285 701.559 170.711 699.809 169.836C698.113 168.961 696.309 167.758 694.395 166.227C692.535 164.695 690.512 162.727 688.324 160.32C686.41 162.125 684.168 163.766 681.598 165.242C679.082 166.664 676.348 167.867 673.395 168.852C670.441 169.836 667.324 170.602 664.043 171.148C660.816 171.695 657.562 171.969 654.281 171.969C647.938 171.969 642.414 171.148 637.711 169.508C633.008 167.812 629.07 165.488 625.898 162.535C622.781 159.582 620.43 156.082 618.844 152.035C617.312 147.988 616.547 143.586 616.547 138.828C616.547 135.109 617.203 131.418 618.516 127.754C619.828 124.035 621.879 120.453 624.668 117.008C626.691 114.547 629.125 112.086 631.969 109.625C634.867 107.109 638.258 104.457 642.141 101.668C640.227 99.043 638.477 96.6367 636.891 94.4492C635.359 92.207 634.047 90.0469 632.953 87.9688C631.914 85.8359 631.094 83.7305 630.492 81.6523C629.945 79.5195 629.672 77.25 629.672 74.8438C629.672 71.8906 630.164 69.0195 631.148 66.2305C632.133 63.4414 633.664 61.0078 635.742 58.9297C637.273 57.2891 639.051 55.9219 641.074 54.8281C643.152 53.6797 645.367 52.7773 647.719 52.1211C650.125 51.4648 652.641 51 655.266 50.7266C657.891 50.3984 660.57 50.2344 663.305 50.2344C668.336 50.2344 673.34 50.5898 678.316 51.3008C683.348 52.0117 687.914 52.832 692.016 53.7617L686.109 70.332C684.688 70.0039 683.156 69.6484 681.516 69.2656C679.875 68.8828 678.18 68.5547 676.43 68.2812C674.734 68.0078 673.012 67.7891 671.262 67.625C669.512 67.4062 667.816 67.2969 666.176 67.2969C664.371 67.2969 662.648 67.4336 661.008 67.707C659.422 67.9805 658.027 68.4453 656.824 69.1016C655.676 69.7031 654.746 70.5508 654.035 71.6445C653.379 72.6836 653.051 73.9961 653.051 75.582C653.051 76.8945 653.188 78.1797 653.461 79.4375C653.789 80.6406 654.309 81.9258 655.02 83.293C655.73 84.6602 656.633 86.1641 657.727 87.8047C658.82 89.4453 660.16 91.2773 661.746 93.3008L690.539 130.461C691.797 128.164 692.918 125.566 693.902 122.668C694.941 119.77 695.68 116.762 696.117 113.645H685.043V99.9453H729.996V113.645H715.066C713.809 120.426 712.113 126.578 709.98 132.102C707.848 137.57 705.469 142.328 702.844 146.375C703.609 147.414 704.402 148.453 705.223 149.492C706.043 150.531 706.863 151.461 707.684 152.281C708.504 153.102 709.297 153.758 710.062 154.25C710.828 154.742 711.594 154.988 712.359 154.988C713.016 154.988 713.672 154.77 714.328 154.332C715.039 153.895 715.805 153.156 716.625 152.117C717.5 151.078 718.484 149.684 719.578 147.934C720.672 146.129 721.984 143.914 723.516 141.289L735.656 150.066ZM652.23 114.875C649.934 116.297 647.91 117.91 646.16 119.715C644.41 121.465 642.934 123.352 641.73 125.375C640.527 127.344 639.625 129.367 639.023 131.445C638.422 133.523 638.121 135.574 638.121 137.598C638.121 139.949 638.531 142.164 639.352 144.242C640.172 146.32 641.43 148.152 643.125 149.738C644.875 151.324 647.035 152.582 649.605 153.512C652.23 154.441 655.32 154.906 658.875 154.906C662.211 154.906 665.52 154.277 668.801 153.02C672.137 151.762 675.008 149.984 677.414 147.688L652.23 114.875Z" fill="#404040"/>
<path d="M393.876 187.934L411.375 234.276H402.287L397.002 220.031H381.727L376.441 234.276H367.354L384.853 187.934H393.876ZM389.364 197.505L384.111 213.554H394.617L389.364 197.505ZM430.131 200.051C432.193 200.051 434.213 200.234 436.189 200.599C438.166 200.964 439.896 201.448 441.378 202.049C441.077 202.908 440.723 203.779 440.314 204.659C439.928 205.54 439.53 206.378 439.122 207.173C438.026 206.808 436.748 206.496 435.287 206.239C433.848 205.981 432.419 205.852 431.001 205.852C430.185 205.852 429.4 205.916 428.648 206.045C427.918 206.153 427.273 206.335 426.715 206.593C426.178 206.851 425.748 207.195 425.426 207.624C425.104 208.032 424.942 208.537 424.942 209.139C424.942 209.977 425.146 210.643 425.555 211.137C425.984 211.61 426.543 211.996 427.23 212.297C427.939 212.598 428.756 212.845 429.68 213.038C430.604 213.232 431.57 213.447 432.58 213.683C434.148 214.048 435.609 214.51 436.963 215.069C438.338 215.627 439.52 216.347 440.508 217.228C441.518 218.087 442.291 219.151 442.828 220.418C443.387 221.664 443.655 223.168 443.634 224.93C443.591 226.821 443.14 228.41 442.28 229.699C441.442 230.989 440.325 232.031 438.929 232.825C437.554 233.62 435.975 234.19 434.191 234.533C432.43 234.877 430.625 235.049 428.777 235.049C427.553 235.049 426.328 234.985 425.104 234.856C423.879 234.727 422.708 234.533 421.591 234.276C420.474 234.039 419.432 233.76 418.465 233.438C417.498 233.094 416.649 232.718 415.919 232.31C416.284 231.472 416.692 230.602 417.144 229.699C417.595 228.797 418.035 227.959 418.465 227.186C419.066 227.444 419.754 227.701 420.527 227.959C421.322 228.196 422.149 228.41 423.009 228.604C423.89 228.776 424.781 228.926 425.684 229.055C426.607 229.162 427.51 229.216 428.391 229.216C429.293 229.216 430.152 229.141 430.969 228.99C431.785 228.84 432.494 228.604 433.096 228.281C433.719 227.938 434.202 227.497 434.546 226.96C434.911 226.402 435.094 225.725 435.094 224.93C435.094 224.028 434.879 223.308 434.449 222.771C434.041 222.234 433.482 221.804 432.773 221.482C432.064 221.159 431.248 220.902 430.324 220.708C429.4 220.515 428.444 220.322 427.456 220.128C425.952 219.827 424.523 219.398 423.17 218.839C421.816 218.281 420.635 217.561 419.625 216.68C418.615 215.799 417.81 214.736 417.208 213.49C416.628 212.222 416.359 210.74 416.402 209.042C416.424 207.366 416.832 205.959 417.627 204.821C418.422 203.66 419.453 202.737 420.721 202.049C421.988 201.34 423.438 200.835 425.071 200.534C426.704 200.212 428.391 200.051 430.131 200.051ZM460.778 206.142C463.271 202.06 466.794 200.019 471.349 200.019C473.604 200.019 475.506 200.459 477.053 201.34C478.6 202.221 479.846 203.413 480.791 204.917C481.758 206.4 482.445 208.129 482.854 210.106C483.283 212.061 483.498 214.134 483.498 216.325C483.498 219.419 483.079 222.137 482.241 224.479C481.425 226.799 480.265 228.743 478.761 230.312C477.257 231.88 475.452 233.062 473.347 233.857C471.263 234.652 468.953 235.049 466.418 235.049C465.494 235.049 464.592 235.006 463.711 234.92C462.852 234.834 461.981 234.727 461.101 234.598V247.198H452.303V211.717C452.303 210.707 452.292 209.762 452.271 208.881C452.271 208 452.238 207.162 452.174 206.367C452.109 205.573 452.013 204.799 451.884 204.047C451.776 203.274 451.615 202.5 451.4 201.727C452.775 201.34 454.075 201.018 455.3 200.76C456.524 200.502 457.846 200.255 459.264 200.019C459.414 200.47 459.554 200.9 459.683 201.308C459.812 201.716 459.919 202.156 460.005 202.629C460.112 203.102 460.198 203.617 460.263 204.176C460.327 204.735 460.381 205.39 460.424 206.142H460.778ZM461.004 227.959C462.723 228.389 464.323 228.604 465.806 228.604C467.073 228.604 468.244 228.432 469.318 228.088C470.414 227.744 471.349 227.186 472.122 226.412C472.917 225.639 473.54 224.64 473.991 223.415C474.442 222.191 474.668 220.698 474.668 218.936C474.668 217.11 474.593 215.434 474.442 213.908C474.292 212.383 473.991 211.073 473.54 209.977C473.089 208.86 472.444 208 471.606 207.399C470.769 206.776 469.662 206.464 468.287 206.464C467.277 206.464 466.386 206.668 465.612 207.076C464.86 207.485 464.173 208.054 463.55 208.784C463.077 209.3 462.637 209.891 462.229 210.557C461.82 211.201 461.412 211.9 461.004 212.652V227.959ZM496.679 184.421C497.409 184.421 498.097 184.561 498.741 184.84C499.407 185.119 499.977 185.506 500.449 186C500.943 186.473 501.33 187.042 501.609 187.708C501.889 188.353 502.028 189.04 502.028 189.771C502.028 190.523 501.889 191.221 501.609 191.865C501.33 192.51 500.943 193.079 500.449 193.573C499.977 194.068 499.407 194.454 498.741 194.734C498.097 195.013 497.409 195.153 496.679 195.153C495.927 195.153 495.229 195.013 494.584 194.734C493.939 194.454 493.37 194.068 492.876 193.573C492.382 193.079 491.995 192.51 491.716 191.865C491.437 191.221 491.297 190.523 491.297 189.771C491.297 189.04 491.437 188.353 491.716 187.708C491.995 187.042 492.382 186.473 492.876 186C493.37 185.506 493.939 185.119 494.584 184.84C495.229 184.561 495.927 184.421 496.679 184.421ZM501.062 200.76V234.276H492.231V200.76H501.062ZM521.622 206.496C522.396 205.358 523.115 204.423 523.781 203.693C524.426 202.984 525.103 202.404 525.812 201.952C526.521 201.48 527.229 201.104 527.938 200.824C528.669 200.524 529.399 200.32 530.13 200.212C530.86 200.083 531.58 200.019 532.289 200.019C532.891 200.019 533.471 200.062 534.029 200.148C534.609 200.212 535.146 200.298 535.641 200.406C535.576 201.007 535.49 201.652 535.383 202.339C535.275 203.005 535.157 203.682 535.028 204.369C534.899 205.057 534.749 205.734 534.577 206.4C534.427 207.066 534.266 207.689 534.094 208.269C532.869 208.032 531.806 207.839 530.903 207.689C530.001 207.517 529.195 207.431 528.486 207.431C527.82 207.431 527.208 207.528 526.649 207.721C526.112 207.893 525.575 208.204 525.038 208.656C524.501 209.107 523.942 209.708 523.362 210.46C522.804 211.191 522.17 212.115 521.461 213.232V234.276H512.631V213.618C512.631 212.372 512.62 211.212 512.599 210.138C512.577 209.042 512.534 208.022 512.47 207.076C512.405 206.11 512.309 205.197 512.18 204.337C512.051 203.478 511.879 202.64 511.664 201.823C513.061 201.458 514.446 201.125 515.821 200.824C517.218 200.524 518.625 200.255 520.043 200.019C520.193 200.47 520.333 200.921 520.462 201.372C520.591 201.802 520.698 202.275 520.784 202.79C520.87 203.284 520.945 203.832 521.01 204.434C521.074 205.035 521.139 205.723 521.203 206.496H521.622ZM543.601 202.404C544.396 202.081 545.298 201.781 546.308 201.501C547.339 201.222 548.424 200.975 549.562 200.76C550.723 200.524 551.915 200.341 553.14 200.212C554.386 200.083 555.643 200.019 556.91 200.019C558.693 200.019 560.358 200.158 561.905 200.438C563.474 200.717 564.773 201.179 565.805 201.823C566.836 202.468 567.642 203.349 568.222 204.466C568.802 205.562 569.092 206.948 569.092 208.623V221.707C569.092 223.211 569.103 224.554 569.124 225.736C569.146 226.896 569.188 228.034 569.253 229.152C569.296 229.56 569.339 229.936 569.382 230.28C569.425 230.602 569.468 230.924 569.511 231.246C569.575 231.547 569.64 231.869 569.704 232.213C569.79 232.557 569.887 232.933 569.994 233.341C568.662 233.642 567.33 233.932 565.998 234.211C564.688 234.49 563.355 234.759 562.002 235.017C561.766 234.415 561.572 233.803 561.422 233.18C561.293 232.535 561.175 231.805 561.067 230.989H560.584C559.832 231.762 559.08 232.406 558.328 232.922C557.576 233.438 556.792 233.857 555.976 234.179C555.159 234.501 554.311 234.727 553.43 234.856C552.549 234.985 551.625 235.049 550.658 235.049C549.176 235.049 547.801 234.866 546.533 234.501C545.266 234.157 544.159 233.62 543.214 232.89C542.29 232.159 541.56 231.236 541.022 230.118C540.507 228.98 540.249 227.648 540.249 226.122C540.249 224.833 540.378 223.684 540.636 222.674C540.915 221.664 541.302 220.762 541.796 219.967C542.29 219.172 542.881 218.474 543.568 217.872C544.256 217.271 545.019 216.744 545.856 216.293C547.532 215.391 549.401 214.779 551.464 214.456C553.526 214.113 555.632 213.941 557.78 213.941H560.552V209.751C560.552 208.956 560.423 208.333 560.165 207.882C559.929 207.409 559.596 207.055 559.166 206.819C558.758 206.582 558.274 206.432 557.716 206.367C557.157 206.281 556.556 206.239 555.911 206.239C554.171 206.239 552.409 206.464 550.626 206.915C548.864 207.345 547.178 207.882 545.566 208.527L543.601 202.404ZM560.552 218.678H559.907C558.382 218.699 556.921 218.818 555.524 219.032C554.149 219.226 552.936 219.57 551.883 220.064C550.83 220.558 549.981 221.213 549.337 222.03C548.714 222.824 548.402 223.834 548.402 225.059C548.402 226.412 548.789 227.454 549.562 228.185C550.357 228.915 551.464 229.281 552.882 229.281C553.548 229.281 554.235 229.195 554.944 229.023C555.653 228.829 556.352 228.572 557.039 228.249C557.727 227.906 558.371 227.487 558.973 226.992C559.574 226.498 560.101 225.929 560.552 225.284V218.678ZM591.489 193.09V200.76H602.769V207.205H591.489V223.286C591.489 224.339 591.532 225.209 591.618 225.897C591.726 226.584 591.908 227.132 592.166 227.54C592.424 227.927 592.778 228.206 593.229 228.378C593.681 228.529 594.261 228.604 594.97 228.604C595.657 228.604 596.452 228.529 597.354 228.378C598.278 228.228 599.363 228.013 600.609 227.734C600.738 228.12 600.878 228.572 601.028 229.087C601.2 229.603 601.361 230.14 601.512 230.698C601.684 231.236 601.845 231.762 601.995 232.278C602.146 232.772 602.285 233.212 602.414 233.599C601.812 233.814 601.104 234.018 600.287 234.211C599.492 234.383 598.654 234.533 597.773 234.662C596.893 234.791 596.001 234.888 595.099 234.952C594.196 235.017 593.348 235.049 592.553 235.049C591.801 235.049 591.06 235.017 590.329 234.952C589.599 234.888 588.9 234.77 588.234 234.598C587.59 234.448 586.988 234.243 586.43 233.986C585.871 233.728 585.388 233.395 584.979 232.987C584.034 232.063 583.411 230.795 583.11 229.184C582.81 227.551 582.659 225.478 582.659 222.964V207.205H577.825V200.76H582.659V193.09H591.489ZM615.659 184.421C616.39 184.421 617.077 184.561 617.722 184.84C618.388 185.119 618.957 185.506 619.43 186C619.924 186.473 620.311 187.042 620.59 187.708C620.869 188.353 621.009 189.04 621.009 189.771C621.009 190.523 620.869 191.221 620.59 191.865C620.311 192.51 619.924 193.079 619.43 193.573C618.957 194.068 618.388 194.454 617.722 194.734C617.077 195.013 616.39 195.153 615.659 195.153C614.907 195.153 614.209 195.013 613.564 194.734C612.92 194.454 612.351 194.068 611.856 193.573C611.362 193.079 610.976 192.51 610.696 191.865C610.417 191.221 610.277 190.523 610.277 189.771C610.277 189.04 610.417 188.353 610.696 187.708C610.976 187.042 611.362 186.473 611.856 186C612.351 185.506 612.92 185.119 613.564 184.84C614.209 184.561 614.907 184.421 615.659 184.421ZM620.042 200.76V234.276H611.212V200.76H620.042ZM645.565 200.019C648.38 200.019 650.818 200.459 652.881 201.34C654.943 202.221 656.641 203.446 657.973 205.014C659.326 206.561 660.325 208.408 660.97 210.557C661.636 212.684 661.969 215.004 661.969 217.518C661.969 220.031 661.636 222.363 660.97 224.511C660.325 226.659 659.326 228.518 657.973 230.086C656.641 231.633 654.943 232.847 652.881 233.728C650.818 234.609 648.38 235.049 645.565 235.049C642.751 235.049 640.312 234.609 638.25 233.728C636.188 232.847 634.479 231.633 633.126 230.086C631.794 228.518 630.795 226.659 630.129 224.511C629.484 222.363 629.162 220.031 629.162 217.518C629.162 215.004 629.484 212.684 630.129 210.557C630.795 208.408 631.794 206.561 633.126 205.014C634.479 203.446 636.188 202.221 638.25 201.34C640.312 200.459 642.751 200.019 645.565 200.019ZM645.565 206.335C644.019 206.335 642.751 206.625 641.763 207.205C640.774 207.785 640.001 208.58 639.442 209.59C638.884 210.6 638.497 211.792 638.282 213.167C638.089 214.521 637.992 215.971 637.992 217.518C637.992 219.086 638.089 220.558 638.282 221.933C638.497 223.286 638.884 224.468 639.442 225.478C640.001 226.488 640.774 227.282 641.763 227.863C642.751 228.443 644.019 228.733 645.565 228.733C647.112 228.733 648.38 228.443 649.368 227.863C650.356 227.282 651.13 226.488 651.688 225.478C652.247 224.468 652.623 223.286 652.816 221.933C653.031 220.558 653.139 219.086 653.139 217.518C653.139 215.971 653.031 214.521 652.816 213.167C652.623 211.792 652.247 210.6 651.688 209.59C651.13 208.58 650.356 207.785 649.368 207.205C648.38 206.625 647.112 206.335 645.565 206.335ZM679.5 206.496C680.209 205.422 680.939 204.488 681.691 203.693C682.465 202.876 683.281 202.199 684.141 201.662C685.021 201.104 685.978 200.696 687.009 200.438C688.062 200.158 689.222 200.019 690.489 200.019C691.907 200.019 693.164 200.18 694.26 200.502C695.355 200.803 696.301 201.254 697.096 201.856C697.891 202.436 698.557 203.166 699.094 204.047C699.652 204.906 700.093 205.884 700.415 206.98C700.716 208.075 700.931 209.268 701.06 210.557C701.21 211.824 701.285 213.199 701.285 214.682V234.276H692.455V212.136C692.455 210.288 692.025 208.881 691.166 207.914C690.328 206.948 689.179 206.464 687.718 206.464C686.901 206.464 686.096 206.657 685.301 207.044C684.527 207.431 683.775 207.947 683.045 208.591C682.314 209.214 681.638 209.923 681.015 210.718C680.392 211.513 679.833 212.319 679.339 213.135V234.276H670.509V213.618C670.509 211.878 670.487 210.428 670.444 209.268C670.423 208.086 670.369 207.044 670.283 206.142C670.24 205.691 670.197 205.293 670.154 204.949C670.111 204.606 670.058 204.273 669.993 203.95C669.95 203.628 669.886 203.306 669.8 202.984C669.735 202.64 669.649 202.253 669.542 201.823C670.938 201.458 672.324 201.136 673.699 200.857C675.096 200.556 676.503 200.277 677.921 200.019C678.071 200.47 678.211 200.921 678.34 201.372C678.469 201.802 678.576 202.275 678.662 202.79C678.748 203.284 678.823 203.832 678.888 204.434C678.952 205.035 679.017 205.723 679.081 206.496H679.5ZM722.555 200.051C724.617 200.051 726.637 200.234 728.613 200.599C730.59 200.964 732.319 201.448 733.802 202.049C733.501 202.908 733.146 203.779 732.738 204.659C732.352 205.54 731.954 206.378 731.546 207.173C730.45 206.808 729.172 206.496 727.711 206.239C726.271 205.981 724.843 205.852 723.425 205.852C722.608 205.852 721.824 205.916 721.072 206.045C720.342 206.153 719.697 206.335 719.139 206.593C718.602 206.851 718.172 207.195 717.85 207.624C717.527 208.032 717.366 208.537 717.366 209.139C717.366 209.977 717.57 210.643 717.979 211.137C718.408 211.61 718.967 211.996 719.654 212.297C720.363 212.598 721.18 212.845 722.104 213.038C723.027 213.232 723.994 213.447 725.004 213.683C726.572 214.048 728.033 214.51 729.387 215.069C730.762 215.627 731.943 216.347 732.932 217.228C733.941 218.087 734.715 219.151 735.252 220.418C735.811 221.664 736.079 223.168 736.058 224.93C736.015 226.821 735.563 228.41 734.704 229.699C733.866 230.989 732.749 232.031 731.353 232.825C729.978 233.62 728.398 234.19 726.615 234.533C724.854 234.877 723.049 235.049 721.201 235.049C719.977 235.049 718.752 234.985 717.527 234.856C716.303 234.727 715.132 234.533 714.015 234.276C712.897 234.039 711.855 233.76 710.889 233.438C709.922 233.094 709.073 232.718 708.343 232.31C708.708 231.472 709.116 230.602 709.567 229.699C710.019 228.797 710.459 227.959 710.889 227.186C711.49 227.444 712.178 227.701 712.951 227.959C713.746 228.196 714.573 228.41 715.433 228.604C716.313 228.776 717.205 228.926 718.107 229.055C719.031 229.162 719.934 229.216 720.814 229.216C721.717 229.216 722.576 229.141 723.393 228.99C724.209 228.84 724.918 228.604 725.52 228.281C726.143 227.938 726.626 227.497 726.97 226.96C727.335 226.402 727.518 225.725 727.518 224.93C727.518 224.028 727.303 223.308 726.873 222.771C726.465 222.234 725.906 221.804 725.197 221.482C724.488 221.159 723.672 220.902 722.748 220.708C721.824 220.515 720.868 220.322 719.88 220.128C718.376 219.827 716.947 219.398 715.594 218.839C714.24 218.281 713.059 217.561 712.049 216.68C711.039 215.799 710.233 214.736 709.632 213.49C709.052 212.222 708.783 210.74 708.826 209.042C708.848 207.366 709.256 205.959 710.051 204.821C710.846 203.66 711.877 202.737 713.145 202.049C714.412 201.34 715.862 200.835 717.495 200.534C719.128 200.212 720.814 200.051 722.555 200.051Z" fill="#404040"/>
</svg>
