<svg width="507" height="392" viewBox="0 0 507 392" fill="none" xmlns="http://www.w3.org/2000/svg">
<path d="M59.364 198.142C48.042 198.142 38.352 195.847 30.294 191.257C22.236 186.616 16.065 180.113 11.781 171.749C7.497 163.385 5.355 153.568 5.355 142.297C5.355 131.128 7.7265 121.387 12.4695 113.074C17.2635 104.71 23.868 98.233 32.283 93.643C40.698 89.053 50.388 86.758 61.353 86.758C67.014 86.758 72.42 87.3445 77.571 88.5175C82.773 89.6905 87.21 91.195 90.882 93.031L88.74 111.697C84.915 109.912 80.682 108.458 76.041 107.336C71.451 106.163 66.555 105.577 61.353 105.577C53.397 105.577 46.869 107.183 41.769 110.396C36.669 113.558 32.895 117.893 30.447 123.401C27.999 128.858 26.775 135.055 26.775 141.991C26.775 149.284 27.999 155.735 30.447 161.345C32.946 166.955 36.669 171.367 41.616 174.58C46.563 177.742 52.734 179.323 60.129 179.323C62.373 179.323 64.719 179.17 67.167 178.864C69.666 178.558 72.216 178.15 74.817 177.64V158.515H60.129V142.297H94.401V190.033C90.678 192.226 85.731 194.138 79.56 195.77C73.44 197.352 66.708 198.142 59.364 198.142ZM159.742 198.142C149.542 198.142 140.464 195.847 132.508 191.257C124.552 186.616 118.304 180.139 113.765 171.826C109.226 163.462 106.957 153.67 106.957 142.45C106.957 131.23 109.226 121.463 113.765 113.15C118.304 104.786 124.552 98.3095 132.508 93.7195C140.464 89.0785 149.542 86.758 159.742 86.758C169.942 86.758 179.02 89.0785 186.976 93.7195C194.932 98.3095 201.179 104.786 205.718 113.15C210.257 121.463 212.527 131.23 212.527 142.45C212.527 153.67 210.257 163.462 205.718 171.826C201.179 180.139 194.932 186.616 186.976 191.257C179.02 195.847 169.942 198.142 159.742 198.142ZM159.742 179.17C166.882 179.17 172.849 177.589 177.643 174.427C182.437 171.265 186.032 166.93 188.429 161.422C190.826 155.863 192.025 149.539 192.025 142.45C192.025 135.361 190.826 129.062 188.429 123.554C186.032 117.995 182.437 113.635 177.643 110.473C172.849 107.311 166.882 105.73 159.742 105.73C152.602 105.73 146.635 107.311 141.841 110.473C137.047 113.635 133.451 117.995 131.054 123.554C128.657 129.062 127.459 135.361 127.459 142.45C127.459 149.539 128.657 155.863 131.054 161.422C133.451 166.93 137.047 171.265 141.841 174.427C146.635 177.589 152.602 179.17 159.742 179.17ZM286.429 170.602H241.6V153.466H286.429V170.602ZM261.49 108.025H266.539L235.633 196H216.661L254.758 88.9H273.271L311.368 196H292.396L261.49 108.025ZM323.608 196V88.9H343.192V178.558H387.256V196H323.608ZM431.167 198.142C426.832 198.142 422.37 197.709 417.78 196.842C413.19 196.026 408.931 195.031 405.004 193.858C401.077 192.634 397.966 191.461 395.671 190.339L397.966 169.531C401.536 171.265 405.259 172.871 409.135 174.35C413.011 175.829 416.989 177.028 421.069 177.946C425.149 178.864 429.28 179.323 433.462 179.323C438.664 179.323 442.846 178.303 446.008 176.263C449.17 174.223 450.751 171.112 450.751 166.93C450.751 163.717 449.859 161.141 448.074 159.203C446.289 157.214 443.56 155.455 439.888 153.925C436.216 152.344 431.524 150.559 425.812 148.57C420.1 146.581 414.975 144.337 410.436 141.838C405.897 139.288 402.301 136.075 399.649 132.199C396.997 128.323 395.671 123.376 395.671 117.358C395.671 111.442 397.125 106.189 400.032 101.599C402.939 96.958 407.274 93.337 413.037 90.736C418.851 88.084 426.067 86.758 434.686 86.758C441.214 86.758 447.436 87.4975 453.352 88.9765C459.268 90.4045 464.317 91.96 468.499 93.643L466.51 113.686C460.492 110.983 454.831 108.943 449.527 107.566C444.274 106.138 438.919 105.424 433.462 105.424C427.75 105.424 423.339 106.367 420.228 108.254C417.117 110.141 415.561 112.972 415.561 116.746C415.561 119.755 416.428 122.177 418.162 124.013C419.896 125.849 422.37 127.43 425.583 128.756C428.796 130.031 432.646 131.383 437.134 132.811C444.886 135.259 451.389 137.962 456.642 140.92C461.946 143.827 465.924 147.371 468.576 151.553C471.279 155.684 472.63 160.81 472.63 166.93C472.63 169.99 472.146 173.33 471.177 176.951C470.208 180.521 468.295 183.913 465.439 187.126C462.583 190.339 458.401 192.991 452.893 195.082C447.436 197.122 440.194 198.142 431.167 198.142Z" fill="white"/>
<path opacity="0.32" d="M159.595 318.752C142.153 318.752 127.887 315.845 116.798 310.031C105.708 304.109 97.5252 296.465 92.2495 287.098C86.9738 277.623 84.336 267.503 84.336 256.736C84.336 246.831 86.1663 238.002 89.827 230.25C93.4877 222.498 98.2788 215.553 104.201 209.416C110.23 203.279 116.744 197.627 123.742 192.459C117.282 184.384 111.63 175.717 106.785 166.457C101.94 157.09 99.517 147.347 99.517 137.226C99.517 126.029 102.478 116.446 108.4 108.479C114.429 100.512 122.181 94.4285 131.656 90.2295C141.238 86.0305 151.412 83.931 162.179 83.931C179.621 83.931 193.026 88.2377 202.393 96.851C211.76 105.464 216.443 116.662 216.443 130.443C216.443 139.918 214.182 148.208 209.66 155.314C205.246 162.312 199.539 168.665 192.541 174.371C185.543 180.077 178.221 185.676 170.577 191.167L215.797 242.847C216.551 239.079 217.089 235.256 217.412 231.38C217.843 227.397 218.166 223.467 218.381 219.591C218.596 215.715 218.704 211.893 218.704 208.124C218.812 204.356 218.919 200.749 219.027 197.304H257.464C257.464 203.441 257.087 210.708 256.334 219.106C255.58 227.504 254.073 236.333 251.812 245.592C249.551 254.744 246.159 263.627 241.637 272.24L275.552 311H229.04L219.027 300.018C211.921 305.617 203.523 310.139 193.833 313.584C184.143 317.029 172.73 318.752 159.595 318.752ZM165.086 288.067C172.73 288.067 179.244 287.098 184.628 285.16C190.119 283.114 194.802 280.423 198.678 277.085L142.799 214.1C137.846 219.376 133.809 225.19 130.687 231.542C127.564 237.894 126.003 245.108 126.003 253.183C126.003 258.782 127.08 264.273 129.233 269.656C131.386 274.932 135.262 279.346 140.861 282.899C146.567 286.344 154.642 288.067 165.086 288.067ZM153.781 171.464C158.949 167.803 163.579 164.089 167.67 160.32C171.869 156.552 175.153 152.568 177.522 148.369C179.998 144.17 181.236 139.595 181.236 134.642C181.236 128.182 179.46 123.445 175.907 120.43C172.354 117.415 167.562 115.908 161.533 115.908C155.073 115.908 149.69 117.846 145.383 121.722C141.076 125.49 138.923 131.197 138.923 138.841C138.923 144.117 140.161 149.285 142.638 154.345C145.114 159.405 148.828 165.112 153.781 171.464Z" fill="white"/>
<path d="M267.573 275.198H253.802V269.934H267.573V275.198ZM259.912 255.975H261.463L251.969 283H246.141L257.844 250.1H263.531L275.234 283H269.406L259.912 255.975ZM284.775 283.47C283.224 283.47 281.822 283.321 280.569 283.024C279.331 282.726 278.085 282.295 276.832 281.731L277.349 276.749C278.555 277.454 279.738 278.026 280.898 278.464C282.073 278.887 283.302 279.099 284.587 279.099C285.746 279.099 286.632 278.911 287.242 278.535C287.854 278.159 288.159 277.564 288.159 276.749C288.159 276.138 287.995 275.637 287.666 275.245C287.352 274.853 286.874 274.501 286.232 274.187C285.59 273.874 284.791 273.537 283.835 273.177C282.394 272.644 281.164 272.065 280.146 271.438C279.143 270.811 278.375 270.059 277.843 269.182C277.326 268.289 277.067 267.192 277.067 265.892C277.067 264.545 277.42 263.354 278.125 262.32C278.83 261.286 279.832 260.479 281.133 259.899C282.433 259.32 283.976 259.03 285.762 259.03C287.25 259.03 288.582 259.194 289.757 259.523C290.948 259.852 292.044 260.299 293.047 260.863L292.53 265.845C291.48 265.109 290.423 264.505 289.358 264.035C288.292 263.55 287.125 263.307 285.856 263.307C284.853 263.307 284.078 263.511 283.53 263.918C282.981 264.325 282.707 264.905 282.707 265.657C282.707 266.566 283.091 267.247 283.859 267.701C284.626 268.156 285.856 268.712 287.548 269.37C288.645 269.793 289.593 270.232 290.392 270.686C291.206 271.14 291.88 271.642 292.413 272.19C292.945 272.738 293.337 273.365 293.588 274.07C293.854 274.759 293.987 275.558 293.987 276.467C293.987 277.955 293.627 279.224 292.906 280.274C292.201 281.308 291.159 282.099 289.781 282.647C288.418 283.196 286.749 283.47 284.775 283.47ZM297.975 294.374V259.5H302.675L303.803 263.401L302.064 262.79C303.145 261.678 304.32 260.792 305.589 260.134C306.858 259.461 308.409 259.124 310.242 259.124C312.545 259.124 314.48 259.68 316.047 260.792C317.613 261.905 318.796 263.385 319.595 265.234C320.41 267.083 320.817 269.104 320.817 271.297C320.817 273.49 320.41 275.511 319.595 277.36C318.796 279.209 317.613 280.689 316.047 281.801C314.48 282.914 312.545 283.47 310.242 283.47C308.409 283.47 306.921 283.219 305.777 282.718C304.633 282.217 303.474 281.418 302.299 280.321L303.803 279.146V294.374H297.975ZM309.349 278.676C311.088 278.676 312.435 277.994 313.391 276.631C314.362 275.253 314.848 273.475 314.848 271.297C314.848 269.104 314.362 267.325 313.391 265.962C312.435 264.599 311.088 263.918 309.349 263.918C308.002 263.918 306.897 264.231 306.036 264.858C305.174 265.485 304.539 266.354 304.132 267.466C303.725 268.563 303.521 269.84 303.521 271.297C303.521 272.754 303.725 274.039 304.132 275.151C304.539 276.248 305.174 277.109 306.036 277.736C306.897 278.363 308.002 278.676 309.349 278.676ZM324.872 283V259.5H330.7V283H324.872ZM324.872 255.928V250.1H330.7V255.928H324.872ZM336.163 283V259.5H341.615L341.756 261.991C342.351 261.333 343.189 260.675 344.27 260.017C345.351 259.359 346.534 259.03 347.819 259.03C348.195 259.03 348.539 259.061 348.853 259.124L348.43 264.858C348.085 264.764 347.74 264.701 347.396 264.67C347.067 264.639 346.738 264.623 346.409 264.623C345.422 264.623 344.521 264.85 343.706 265.304C342.891 265.759 342.32 266.315 341.991 266.973V283H336.163ZM356.477 283.47C355.223 283.47 354.08 283.196 353.046 282.647C352.012 282.083 351.189 281.277 350.578 280.227C349.967 279.177 349.662 277.908 349.662 276.42C349.662 275.088 349.967 273.952 350.578 273.012C351.205 272.057 352.02 271.266 353.022 270.639C354.041 269.997 355.137 269.495 356.312 269.135C357.503 268.759 358.67 268.485 359.814 268.312C360.973 268.14 361.991 268.038 362.869 268.007C362.806 266.66 362.461 265.68 361.835 265.069C361.208 264.458 360.143 264.153 358.639 264.153C357.589 264.153 356.563 264.302 355.56 264.599C354.573 264.881 353.453 265.328 352.2 265.939L351.683 261.192C353.093 260.503 354.503 259.986 355.913 259.641C357.338 259.296 358.78 259.124 360.237 259.124C361.991 259.124 363.503 259.437 364.772 260.064C366.041 260.691 367.02 261.701 367.71 263.095C368.399 264.474 368.744 266.299 368.744 268.571V274.916C368.744 276.091 368.799 276.945 368.908 277.477C369.018 277.994 369.222 278.323 369.519 278.464C369.817 278.605 370.248 278.676 370.812 278.676H371.564L371.047 283.47H368.932C368.054 283.47 367.271 283.353 366.582 283.118C365.908 282.898 365.328 282.585 364.843 282.177C364.357 281.77 363.965 281.292 363.668 280.744C362.9 281.606 361.858 282.279 360.542 282.765C359.242 283.235 357.887 283.47 356.477 283.47ZM358.921 279.005C359.438 279.005 360.08 278.872 360.848 278.605C361.615 278.323 362.305 277.893 362.916 277.313V271.955C361.819 272.002 360.722 272.182 359.626 272.495C358.529 272.809 357.613 273.271 356.876 273.882C356.14 274.493 355.772 275.261 355.772 276.185C355.772 277.141 356.022 277.853 356.524 278.323C357.025 278.778 357.824 279.005 358.921 279.005ZM382.103 283.47C380.63 283.47 379.432 283.172 378.507 282.577C377.583 281.966 376.901 281.19 376.463 280.25C376.024 279.31 375.805 278.331 375.805 277.313V264.294H372.468L372.985 259.5H375.805V254.33L381.633 253.719V259.5H386.803V264.294H381.633V274.916C381.633 276.107 381.703 276.968 381.844 277.501C381.985 278.018 382.306 278.347 382.808 278.488C383.309 278.613 384.108 278.676 385.205 278.676H386.803L386.286 283.47H382.103ZM390.598 283V259.5H396.426V283H390.598ZM390.598 255.928V250.1H396.426V255.928H390.598ZM412.558 283.47C410.004 283.47 407.827 282.914 406.025 281.801C404.223 280.689 402.845 279.209 401.889 277.36C400.949 275.511 400.479 273.49 400.479 271.297C400.479 269.088 400.949 267.051 401.889 265.187C402.845 263.323 404.223 261.834 406.025 260.722C407.827 259.594 410.004 259.03 412.558 259.03C415.112 259.03 417.289 259.594 419.091 260.722C420.893 261.834 422.264 263.323 423.204 265.187C424.159 267.051 424.637 269.088 424.637 271.297C424.637 273.49 424.159 275.511 423.204 277.36C422.264 279.209 420.893 280.689 419.091 281.801C417.289 282.914 415.112 283.47 412.558 283.47ZM412.558 278.676C414.516 278.676 416.02 277.994 417.07 276.631C418.135 275.253 418.668 273.475 418.668 271.297C418.668 269.088 418.135 267.294 417.07 265.915C416.02 264.521 414.516 263.824 412.558 263.824C410.615 263.824 409.111 264.521 408.046 265.915C406.981 267.294 406.448 269.088 406.448 271.297C406.448 273.475 406.981 275.253 408.046 276.631C409.111 277.994 410.615 278.676 412.558 278.676ZM428.694 283V259.5H434.146L434.381 263.871L433.018 262.085C433.911 261.333 434.976 260.651 436.214 260.04C437.451 259.429 438.893 259.124 440.538 259.124C443.546 259.124 445.778 260.127 447.235 262.132C448.692 264.122 449.421 266.707 449.421 269.887V283H443.593V270.357C443.593 268.164 443.225 266.542 442.488 265.492C441.768 264.443 440.585 263.918 438.94 263.918C437.608 263.918 436.519 264.247 435.673 264.905C434.827 265.547 434.083 266.409 433.441 267.49L434.522 264.623V283H428.694ZM461.3 283.47C459.749 283.47 458.347 283.321 457.094 283.024C455.856 282.726 454.611 282.295 453.357 281.731L453.874 276.749C455.081 277.454 456.264 278.026 457.423 278.464C458.598 278.887 459.828 279.099 461.112 279.099C462.272 279.099 463.157 278.911 463.768 278.535C464.379 278.159 464.684 277.564 464.684 276.749C464.684 276.138 464.52 275.637 464.191 275.245C463.878 274.853 463.4 274.501 462.757 274.187C462.115 273.874 461.316 273.537 460.36 273.177C458.919 272.644 457.689 272.065 456.671 271.438C455.668 270.811 454.901 270.059 454.368 269.182C453.851 268.289 453.592 267.192 453.592 265.892C453.592 264.545 453.945 263.354 454.65 262.32C455.355 261.286 456.358 260.479 457.658 259.899C458.958 259.32 460.501 259.03 462.287 259.03C463.776 259.03 465.107 259.194 466.282 259.523C467.473 259.852 468.57 260.299 469.572 260.863L469.055 265.845C468.006 265.109 466.948 264.505 465.883 264.035C464.818 263.55 463.65 263.307 462.381 263.307C461.379 263.307 460.603 263.511 460.055 263.918C459.507 264.325 459.232 264.905 459.232 265.657C459.232 266.566 459.616 267.247 460.384 267.701C461.152 268.156 462.381 268.712 464.073 269.37C465.17 269.793 466.118 270.232 466.917 270.686C467.732 271.14 468.405 271.642 468.938 272.19C469.471 272.738 469.862 273.365 470.113 274.07C470.379 274.759 470.512 275.558 470.512 276.467C470.512 277.955 470.152 279.224 469.431 280.274C468.726 281.308 467.685 282.099 466.306 282.647C464.943 283.196 463.274 283.47 461.3 283.47Z" fill="white"/>
</svg>
