<svg width="947" height="947" viewBox="0 0 947 947" fill="none" xmlns="http://www.w3.org/2000/svg">
<path opacity="0.38" d="M787.073 633.244C875.331 460.028 806.459 248.062 633.244 159.805C460.028 71.5469 248.062 140.419 159.805 313.634C71.547 486.85 140.419 698.816 313.634 787.073C486.85 875.331 698.816 806.459 787.073 633.244Z" stroke="#7B9C73" stroke-width="8" stroke-linecap="round" stroke-dasharray="28 17"/>
<path opacity="0.39" d="M566.053 796.423C744.432 745.274 847.572 559.204 796.423 380.825C745.273 202.446 559.204 99.3057 380.825 150.455C202.446 201.604 99.3056 387.674 150.455 566.053C201.604 744.432 387.674 847.572 566.053 796.423Z" stroke="#7B9C73" stroke-width="7" stroke-linecap="round" stroke-dasharray="14 38"/>
<path opacity="0.27" d="M744.814 303.865C651.161 153.988 453.741 108.41 303.865 202.064C153.988 295.717 108.41 493.137 202.064 643.013C295.717 792.89 493.137 838.468 643.013 744.814C792.89 651.161 838.468 453.741 744.814 303.865Z" stroke="#7B9C73" stroke-width="7" stroke-linecap="round" stroke-dasharray="20 31"/>
<path opacity="0.77" d="M753.272 592.221C818.874 437.674 746.769 259.207 592.221 193.606C437.673 128.004 259.207 200.109 193.606 354.657C128.004 509.205 200.109 687.671 354.657 753.272C509.204 818.874 687.671 746.769 753.272 592.221Z" stroke="#7B9C73" stroke-width="7" stroke-linecap="round" stroke-dasharray="41 35"/>
<path opacity="0.71" d="M190.73 418.486C160.381 574.622 262.35 725.798 418.486 756.148C574.622 786.497 725.798 684.528 756.148 528.392C786.497 372.256 684.528 221.08 528.392 190.73C372.256 160.381 221.08 262.35 190.73 418.486Z" stroke="#7B9C73" stroke-width="6" stroke-linecap="round" stroke-dasharray="20 22"/>
<path opacity="0.12" d="M621.581 701.557C747.567 619.741 783.374 451.283 701.557 325.297C619.741 199.311 451.283 163.504 325.297 245.321C199.311 327.137 163.504 495.594 245.321 621.581C327.137 747.567 495.594 783.374 621.581 701.557Z" stroke="#7B9C73" stroke-width="6" stroke-linecap="round" stroke-dasharray="47 33"/>
<path opacity="0.85" d="M581.629 705.454C709.767 645.702 765.206 493.387 705.454 365.249C645.702 237.11 493.387 181.672 365.249 241.424C237.11 301.176 181.672 453.491 241.424 581.629C301.176 709.767 453.491 765.206 581.629 705.454Z" stroke="#7B9C73" stroke-width="6" stroke-linecap="round" stroke-dasharray="22 14"/>
<path opacity="0.92" d="M235.228 444.19C219.074 575.751 312.63 695.496 444.19 711.65C575.75 727.804 695.496 634.248 711.65 502.688C727.803 371.127 634.248 251.381 502.687 235.228C371.127 219.074 251.381 312.63 235.228 444.19Z" stroke="#7B9C73" stroke-width="6" stroke-linecap="round" stroke-dasharray="20 33"/>
<path opacity="0.97" d="M682.561 553.713C726.895 438.219 669.208 308.651 553.713 264.317C438.218 219.983 308.651 277.67 264.317 393.165C219.983 508.66 277.67 638.227 393.164 682.561C508.659 726.895 638.227 669.208 682.561 553.713Z" stroke="#7B9C73" stroke-width="5" stroke-linecap="round" stroke-dasharray="42 30"/>
<path opacity="0.29" d="M541.157 670.107C649.774 632.707 707.506 514.337 670.107 405.721C632.707 297.104 514.337 239.371 405.721 276.771C297.104 314.171 239.371 432.54 276.771 541.157C314.171 649.774 432.54 707.507 541.157 670.107Z" stroke="#7B9C73" stroke-width="5" stroke-linecap="round" stroke-dasharray="53 13"/>
<path opacity="0.1" d="M436.804 661.911C540.894 682.144 641.678 614.165 661.912 510.074C682.145 405.984 614.165 305.2 510.074 284.967C405.984 264.733 305.2 332.713 284.967 436.804C264.734 540.894 332.713 641.678 436.804 661.911Z" stroke="#7B9C73" stroke-width="5" stroke-linecap="round" stroke-dasharray="18 41"/>
<path opacity="0.42" d="M504.001 300.113C408.276 283.234 316.992 347.151 300.113 442.877C283.234 538.602 347.152 629.886 442.877 646.765C538.602 663.644 629.886 599.726 646.765 504.001C663.644 408.276 599.727 316.992 504.001 300.113Z" stroke="#7B9C73" stroke-width="4" stroke-linecap="round" stroke-dasharray="20 44"/>
<path opacity="0.59" d="M426.659 320.43C342.155 346.266 294.594 435.714 320.43 520.218C346.266 604.723 435.714 652.283 520.218 626.448C604.723 600.612 652.283 511.164 626.448 426.659C600.612 342.155 511.164 294.595 426.659 320.43Z" stroke="#7B9C73" stroke-width="4" stroke-linecap="round" stroke-dasharray="51 50"/>
<path opacity="0.18" d="M329.461 475.952C330.849 555.469 396.435 618.805 475.952 617.417C555.469 616.029 618.805 550.443 617.417 470.926C616.029 391.409 550.443 328.073 470.926 329.461C391.409 330.849 328.073 396.435 329.461 475.952Z" stroke="#7B9C73" stroke-width="4" stroke-linecap="round" stroke-dasharray="53 54"/>
<path opacity="0.3" d="M382.929 563.949C432.916 613.936 513.962 613.936 563.949 563.949C613.936 513.962 613.936 432.916 563.949 382.929C513.962 332.942 432.916 332.942 382.929 382.929C332.942 432.916 332.942 513.962 382.929 563.949Z" stroke="#7B9C73" stroke-width="4" stroke-linecap="round" stroke-dasharray="47 36"/>
<path opacity="0.25" d="M574.945 520.772C601.087 464.712 576.833 398.074 520.772 371.932C464.712 345.791 398.074 370.045 371.932 426.106C345.791 482.166 370.045 548.804 426.106 574.945C482.166 601.087 548.804 576.833 574.945 520.772Z" stroke="#7B9C73" stroke-width="3" stroke-linecap="round" stroke-dasharray="36 47"/>
<path opacity="0.98" d="M552.077 528.502C582.488 485.071 571.933 425.211 528.502 394.8C485.071 364.39 425.211 374.945 394.8 418.376C364.39 461.806 374.945 521.667 418.375 552.077C461.806 582.488 521.667 571.933 552.077 528.502Z" stroke="#7B9C73" stroke-width="3" stroke-linecap="round" stroke-dasharray="16 49"/>
<path opacity="0.72" d="M424.186 410.398C389.37 437.6 383.197 487.875 410.398 522.692C437.6 557.508 487.876 563.681 522.692 536.48C557.509 509.278 563.682 459.002 536.48 424.186C509.278 389.369 459.003 383.196 424.186 410.398Z" stroke="#7B9C73" stroke-width="3" stroke-linecap="round" stroke-dasharray="53 53"/>
<path opacity="0.83" d="M415.435 446.391C400.497 478.426 414.357 516.505 446.391 531.443C478.426 546.381 516.505 532.521 531.443 500.486C546.381 468.452 532.521 430.373 500.487 415.435C468.452 400.497 430.373 414.357 415.435 446.391Z" stroke="#7B9C73" stroke-width="2" stroke-linecap="round" stroke-dasharray="17 51"/>
<path opacity="0.6" d="M431.87 497.439C445.125 520.397 474.481 528.263 497.439 515.008C520.397 501.753 528.263 472.397 515.008 449.439C501.753 426.481 472.397 418.615 449.439 431.87C426.481 445.125 418.615 474.481 431.87 497.439Z" stroke="#7B9C73" stroke-width="2" stroke-linecap="round" stroke-dasharray="37 16"/>
<path opacity="0.41" d="M505.419 472.322C504.803 454.66 489.984 440.842 472.322 441.458C454.66 442.075 440.842 456.893 441.458 474.556C442.075 492.218 456.893 506.036 474.556 505.419C492.218 504.803 506.036 489.985 505.419 472.322Z" stroke="#7B9C73" stroke-width="2" stroke-linecap="round" stroke-dasharray="52 32"/>
<path opacity="0.35" d="M462.942 461.364C456.273 467.161 455.566 477.267 461.364 483.936C467.161 490.605 477.267 491.312 483.936 485.514C490.605 479.717 491.312 469.611 485.514 462.942C479.717 456.273 469.611 455.566 462.942 461.364Z" stroke="#7B9C73" stroke-width="2" stroke-linecap="round" stroke-dasharray="24 31"/>
</svg>
