<svg width="73" height="73" viewBox="0 0 73 73" fill="none" xmlns="http://www.w3.org/2000/svg">
<rect x="9" y="8" width="56" height="57" rx="20" fill="#2E2E2E"/>
<path d="M40.2533 0C44.3595 0.0109497 46.4436 0.0328492 48.243 0.083948L48.9511 0.109497C49.7686 0.138697 50.5753 0.175196 51.5498 0.218995C55.4333 0.40149 58.0831 1.01468 60.4081 1.91621C62.8171 2.84328 64.8464 4.09885 66.8758 6.12456C68.7317 7.94913 70.1678 10.1562 71.0841 12.5922C71.9857 14.9172 72.5988 17.567 72.7813 21.4542C72.8251 22.4251 72.8616 23.2317 72.8908 24.0529L72.9127 24.761C72.9675 26.5568 72.9894 28.6409 72.9967 32.747L73.0003 35.4699V40.2513C73.0093 42.9135 72.9813 45.5758 72.9164 48.2373L72.8945 48.9454C72.8653 49.7666 72.8288 50.5732 72.785 51.5441C72.6025 55.4313 71.982 58.0774 71.0841 60.4061C70.1705 62.8434 68.734 65.051 66.8758 66.8737C65.0507 68.7291 62.8438 70.1651 60.4081 71.0821C58.0831 71.9836 55.4333 72.5968 51.5498 72.7793C50.6837 72.8201 49.8175 72.8566 48.9511 72.8888L48.243 72.9107C46.4436 72.9618 44.3595 72.9873 40.2533 72.9946L37.5305 72.9983H32.7528C30.0893 73.0075 27.4258 72.9795 24.7631 72.9143L24.055 72.8924C23.1886 72.8596 22.3223 72.8219 21.4563 72.7793C17.5728 72.5968 14.9229 71.9836 12.5943 71.0821C10.1586 70.1673 7.9524 68.731 6.13031 66.8737C4.27267 65.0498 2.83526 62.8426 1.91831 60.4061C1.01678 58.0811 0.403596 55.4313 0.2211 51.5441C0.180436 50.678 0.143937 49.8118 0.111603 48.9454L0.0933541 48.2373C0.0260937 45.5758 -0.00432545 42.9136 0.002106 40.2513V32.747C-0.00808078 30.0848 0.0186881 27.4225 0.0824043 24.761L0.107954 24.0529C0.137153 23.2317 0.173652 22.4251 0.217451 21.4542C0.399946 17.567 1.01313 14.9209 1.91466 12.5922C2.8312 10.1537 4.27148 7.94595 6.13396 6.12456C7.9556 4.26848 10.1603 2.83229 12.5943 1.91621C14.9229 1.01468 17.5691 0.40149 21.4563 0.218995C22.4272 0.175196 23.2374 0.138697 24.055 0.109497L24.7631 0.0875977C27.4246 0.0227488 30.0868 -0.00523652 32.7491 0.00364965L40.2533 0ZM36.5012 18.2496C31.6611 18.2496 27.0193 20.1723 23.5968 23.5948C20.1744 27.0172 18.2517 31.6591 18.2517 36.4991C18.2517 41.3392 20.1744 45.9811 23.5968 49.4035C27.0193 52.826 31.6611 54.7487 36.5012 54.7487C41.3413 54.7487 45.9831 52.826 49.4056 49.4035C52.8281 45.9811 54.7508 41.3392 54.7508 36.4991C54.7508 31.6591 52.8281 27.0172 49.4056 23.5948C45.9831 20.1723 41.3413 18.2496 36.5012 18.2496ZM36.5012 25.5494C37.9392 25.5492 39.3631 25.8322 40.6916 26.3822C42.0202 26.9323 43.2274 27.7386 44.2444 28.7552C45.2613 29.7718 46.0681 30.9788 46.6186 32.3072C47.1691 33.6356 47.4525 35.0594 47.4528 36.4973C47.453 37.9353 47.17 39.3592 46.62 40.6877C46.0699 42.0163 45.2636 43.2235 44.247 44.2405C43.2304 45.2574 42.0234 46.0642 40.695 46.6147C39.3666 47.1652 37.9428 47.4487 36.5049 47.4489C33.6008 47.4489 30.8157 46.2953 28.7622 44.2418C26.7088 42.1883 25.5551 39.4032 25.5551 36.4991C25.5551 33.5951 26.7088 30.81 28.7622 28.7565C30.8157 26.703 33.6008 25.5494 36.5049 25.5494M55.6669 12.7747C54.4569 12.7747 53.2964 13.2554 52.4408 14.111C51.5852 14.9666 51.1045 16.1271 51.1045 17.3371C51.1045 18.5471 51.5852 19.7076 52.4408 20.5632C53.2964 21.4188 54.4569 21.8995 55.6669 21.8995C56.8769 21.8995 58.0374 21.4188 58.893 20.5632C59.7486 19.7076 60.2293 18.5471 60.2293 17.3371C60.2293 16.1271 59.7486 14.9666 58.893 14.111C58.0374 13.2554 56.8769 12.7747 55.6669 12.7747Z" fill="white"/>
</svg>
