<svg width="280" height="336" viewBox="0 0 280 336" fill="none" xmlns="http://www.w3.org/2000/svg">
<path d="M123 246.758C116.429 229.71 111.458 212.639 98.7402 198.988C92.5602 192.348 87.0502 185.478 82.6102 177.648C80.1633 173.307 77.4968 183.02 80.7102 186.568C85.0502 191.358 89.7902 195.798 94.2002 200.528C102.44 209.378 108.84 219.418 112.59 230.958C115.026 238.452 125.219 257.211 121.27 264.708C115.3 251.538 110.63 237.878 101.58 226.318C92.6102 214.858 84.5202 202.698 76.1502 190.998C71.9202 195.788 74.0102 199.418 78.0002 204.238C86.2202 214.188 94.1702 224.578 100.64 235.708C105.926 244.801 118.121 263.025 115.96 274.068C103.34 249.448 87.3402 227.128 71.6102 203.108C69.0802 210.838 71.8902 215.968 75.4702 220.328C85.1208 232.081 93.6317 240.856 100.63 254.748C106.428 266.274 111.933 277.546 115.28 289.978C110.798 291.771 79.4736 217.691 71.6102 223.361C78.7202 233.411 110.651 295.764 112.99 301.388C108.537 303.494 78.7202 232.911 70.3801 234.911C73.3801 238.911 105.21 293.228 107.87 310.218C105.072 311.454 84.5512 265.654 82.8801 262.068C83.324 267.135 106.033 315.623 100.82 317.708C97.4002 310.508 86.8801 274.068 81.0302 274.068C81.6702 280.158 94.5175 317.117 95.9202 321.798C92.8754 322.911 73.8801 264.708 69.8801 263.198C68.4102 266.788 93.3801 324.911 92.3302 327.798C86.5205 329.68 70.8282 282.506 67.3102 275.238C62.4825 277.122 89.7896 328.523 85.6502 330.138C80.9502 321.128 69.6902 295.758 64.9902 286.738C62.2069 288.094 79.601 329.113 81.0302 333.058C76.4447 334.793 74.2235 321.731 72.7402 317.788C69.9215 317.989 71.4802 331.666 71.4802 334.588C68.3195 334.894 68.8509 330.958 68.4102 328.188C68.0402 325.838 67.7602 323.468 67.3102 320.198C63.2902 325.018 65.5802 331.748 59.0002 335.398C60.4802 325.878 61.6602 317.408 63.1602 308.998C63.7202 305.868 65.0102 302.858 61.0202 300.108C57.1202 310.758 61.8102 322.868 54.6802 332.778C54.6802 328.4 56.8694 301.097 53.5302 300.218C51.2902 307.828 49.0502 315.438 46.8102 323.048C40.0986 321.681 55.1616 284.63 57.3502 280.158C58.2502 278.328 58.6602 276.248 58.4502 274.018C52.7302 279.528 50.1902 286.368 48.2702 293.628C47.0675 298.185 44.5927 315.235 39.5002 313.688C43.5802 298.978 49.867 275.238 55.5802 263.198C48.2702 263.198 37.2502 292.128 31.4802 304.428C28.4926 303.668 30.3849 298.934 31.1302 296.398C36.1202 279.418 46.5302 265.668 57.6902 252.408C61.2702 248.148 62.1902 243.458 61.5102 237.228C49.2502 256.358 31.0102 270.038 23.5002 291.478C24.5202 275.748 33.0102 263.798 42.3202 252.218C31.3602 259.148 23.7302 268.838 18.0202 280.368C16.6702 274.728 19.2902 270.138 22.3202 266.788C34.4702 253.348 45.6402 239.208 55.5802 224.068C57.4702 221.198 59.9402 218.498 62.6802 216.448C66.0702 213.918 66.0902 210.918 65.7702 208.298C49.2702 228.408 32.5002 248.858 15.7302 269.298C11.0988 265.852 20.488 256.121 22.9002 253.228C27.2402 248.018 32.1002 243.208 36.1602 237.798C40.7602 231.668 44.7202 225.058 48.3602 218.238C36.6602 230.408 20.6102 238.188 13.9302 255.118C10.1746 252.597 14.5111 246.315 16.9202 243.158C20.9102 237.918 25.6502 233.258 30.0702 228.338C36.9202 220.708 43.7702 213.078 50.5902 205.418C53.2002 202.488 55.7402 199.488 58.3102 196.518C56.7304 194.833 28.882 219.04 26.4802 221.198C19.7902 227.218 13.9302 234.158 7.84017 240.538C8.29017 234.678 11.5302 229.458 15.8902 225.208C22.6502 218.638 29.8302 212.468 37.0602 206.408C45.9402 198.968 54.9802 191.718 64.1202 184.608C66.1402 183.038 68.8102 181.878 71.3302 181.488C76.1702 180.738 78.0102 177.878 78.7202 173.498C78.9502 172.048 79.9502 170.728 81.0302 168.448C88.3377 177.923 96.2789 186.946 104.7 195.458C114.393 205.254 131.521 231.882 123 246.758ZM77.2702 262.068C73.4059 255.462 71.3811 247.347 63.5802 246.128C64.6206 249.365 74.0488 264.68 77.2702 262.068ZM60.4102 204.328C63.2302 200.538 69.8102 200.038 69.4802 191.728C67.1387 194.278 57.6777 201.532 60.4102 204.328ZM60.8202 224.138C57.8402 229.278 55.4702 233.348 53.1102 237.428C59.101 234.789 62.8954 230.737 60.8202 224.138Z" fill="#A4D792"/>
<path d="M128.19 166.131C121.1 153.941 108.62 145.041 106.97 129.571C100.93 133.721 102.87 137.781 106.85 144.051C111.31 151.081 117.16 157.221 122.42 163.751C127.51 170.071 128.93 177.591 129.11 185.641C124.41 177.901 119.72 170.161 115.01 162.431C110.26 154.641 105.49 146.871 100.59 138.851C98.5602 140.401 97.4102 142.421 99.4802 145.531C103.13 151.021 106.68 156.571 110.17 162.171C116.21 171.851 122.36 181.471 128.02 191.371C130.608 195.899 127.462 203.064 126.26 207.571C123.941 204.205 113.504 185.443 110.34 187.131C117.99 198.371 124.26 210.151 125.22 224.101C124.76 223.491 121.46 215.591 121.27 214.911C116.47 197.591 105.46 193.511 95.4402 179.681C93.1236 176.48 88.5439 164.309 83.0902 165.881C76.3702 167.821 69.8702 170.681 63.0702 172.191C42.4702 176.761 26.4002 188.871 11.3902 202.671C6.8361 206.867 5.29091 213.959 0.440155 217.691C4.35187 187.035 46.6966 167.889 73.7502 164.311C81.4602 163.291 83.2002 162.221 85.3502 154.361C68.3402 155.171 52.2502 159.061 36.7502 166.731C21.0102 174.521 11.7602 188.421 1.23016 201.311C0.830156 201.021 0.430155 200.731 0.040155 200.431C0.930155 198.651 1.71016 196.811 2.72016 195.101C8.36016 185.581 13.2702 175.701 22.6202 168.751C39.8802 155.921 58.2502 147.741 80.3702 151.431C84.6502 152.141 89.1702 152.651 90.3902 146.491C52.9202 137.021 24.9402 153.491 0.760155 180.461C-2.39001 176.494 5.05363 169.351 8.44016 166.451C23.8602 153.201 40.1302 141.211 60.3402 136.031C69.8102 133.611 78.5702 136.011 86.8202 140.221C100.473 147.18 91.5335 134.401 78.7202 131.321C63.0002 127.541 48.9802 133.101 36.0602 140.941C30.6255 144.237 8.85931 165.383 3.42015 162.601C14.2379 152.679 25.1682 141.965 37.8802 134.521C46.3802 129.541 56.0902 126.491 65.4602 123.151C71.0002 121.181 76.6302 121.121 82.1102 124.731C87.1802 128.061 92.8502 130.481 98.7402 133.551C111.81 124.086 70.4312 117.384 62.8402 118.301C42.0723 120.807 26.2925 136.315 10.3702 148.541C2.4211 140.024 52.1224 116.475 57.1702 114.761C64.6502 112.221 73.1402 111.641 81.1302 111.881C93.8058 112.266 100.146 129.335 108.8 122.961C110.53 127.471 112.02 131.581 113.68 135.611C115.05 138.931 119.37 152.725 122.76 151.061C117.17 124.731 109.38 117.911 88.1502 109.921C76.3801 106.411 66.1802 103.551 55.4402 107.351C51.0222 108.917 18.8219 127.19 16.9802 124.351C27.8341 116.348 39.1942 109.234 51.4102 103.411C68.2102 95.3907 84.2502 97.4007 99.1702 108.481C101.172 109.968 116.084 120.611 117.17 116.701C114.23 125.451 118.74 132.741 122.08 140.111C127.182 151.423 128.19 151.966 128.19 166.131ZM123.06 190.831C119.586 185.43 97.2652 146.901 93.9402 149.011C95.8595 154.991 119.035 193.575 123.06 190.831ZM107.5 182.111C101.72 173.081 95.9502 164.051 90.1702 155.011C87.5021 155.331 87.9847 161.219 89.4602 163.101C91.5586 165.778 105.534 183.712 107.5 182.111Z" fill="#A4D792"/>
<path d="M119.18 116.601C117.73 115.076 119.68 114.101 100.38 105.411C93.8502 102.211 87.5102 98.7907 80.7602 96.1107C66.1202 90.3007 52.3102 94.6007 38.7102 100.221C36.9098 100.963 23.5388 104.919 29.2402 101.951C43.6802 94.4707 58.3802 87.6507 75.2702 89.2107C91.0558 90.6708 104.604 98.7959 117.01 108.101C122.06 111.841 122.48 111.721 125.25 106.431C117.88 101.571 110.75 96.5007 103.27 92.0107C90.0702 84.0907 75.6502 82.9707 60.7802 85.4107C54.832 86.3869 46.2849 90.397 40.2902 88.2107C55.4602 83.3607 70.6102 77.8207 86.8702 80.0307C99.305 81.7173 127.918 104.068 133.69 99.0407C126.22 93.6707 120.65 89.0207 114.48 85.4207C108.1 81.7007 101.41 77.9807 94.3602 76.0507C77.5829 71.4465 62.9209 74.3277 46.5502 78.0207C45.2535 74.1309 58.9353 70.8727 62.4102 70.3007C71.3902 68.8307 80.5902 68.2407 89.7002 68.2407C96.9402 68.2407 103.72 70.8007 109.55 75.4607C116.05 80.6607 122.89 85.4407 129.11 90.9507C133.01 94.4107 136.61 96.0707 141.77 93.2007C137.46 83.7188 119.562 75.765 111.05 69.8707C100.28 62.4107 87.9902 63.3907 75.8302 63.9507C71.4202 64.1507 67.0202 64.5707 62.6202 64.8907C62.0358 61.1901 73.7314 60.9703 76.9502 60.7207C86.0502 60.0207 95.2602 58.8607 104.28 59.6107C117.5 60.7107 126.91 69.3007 135.5 78.6607C137.29 80.6107 138.9 82.7607 140.85 84.5207C145.02 88.2807 149.43 87.9107 154.31 83.1507C151.57 81.9807 148.79 81.3407 146.69 79.7907C141.77 76.1507 137.07 72.2007 132.49 68.1407C118.12 55.3907 102 49.0407 82.5902 53.8207C78.2702 54.8807 73.8202 55.4207 68.8502 55.1307C78.7643 48.6579 94.3818 47.0559 106 45.8107C118.1 44.5207 126.94 51.7707 134.7 60.3907C139.57 65.8007 144.63 71.1107 150.18 75.7807C152.98 78.1307 157.06 78.9407 160.76 80.5207C153.84 89.7807 157.3 101.711 155.67 112.841C154.64 119.931 153.35 126.981 151.35 133.921C150.48 118.721 146.75 103.581 153.55 88.6507C149.831 87.6775 146.778 90.2606 146.48 94.6407C145.95 102.581 146.17 110.571 146.16 118.541C146.15 125.501 146.36 132.471 146.12 139.421C146.06 141.061 144.59 142.651 143.76 144.261C141.342 143.471 142.756 141.535 142.54 139.241C141.399 126.753 139.574 114.505 140.56 101.961C140.71 100.061 141.52 98.2107 142.15 95.8907C132.02 101.131 133.38 109.631 134.69 117.801C135.74 124.361 137.86 130.741 138.91 137.291C139.45 140.681 138.7 144.281 137.36 147.801C135.04 133.801 126.55 121.211 130.08 106.301C126.409 105.934 125.075 111.114 125.71 114.621C128.163 128.026 131.483 141.254 134.27 154.591C133.127 154.954 129.419 146.807 129.94 148.111C127.105 138.202 124.88 124.911 119.18 116.601Z" fill="#A4D792"/>
<path d="M276.96 11.9707C263.11 19.0307 249.06 25.7307 235.43 33.1807C228.05 37.2207 223 43.4707 222.73 52.6607C222.52 59.8007 219.63 65.9107 214.14 70.7407C216.35 57.8107 217.03 44.4207 226.99 33.8207C214.486 28.7484 201.558 29.9503 188.57 22.4907C176.03 15.2907 163.61 7.80071 149.35 4.35071C145.12 3.33071 140.79 2.71071 136.5 1.91071C136.685 -0.991464 143.664 0.170384 146.06 0.560711C162.14 3.16071 177.21 8.64071 191.32 16.8507C203.04 23.6807 216.11 26.6307 229.38 27.5707C234.59 27.9407 240.27 25.3607 245.35 23.2107C255.54 18.8907 265.45 13.9107 275.51 9.27071C276.78 8.68071 278.22 8.46071 279.58 8.07071C280.537 10.1098 278.974 10.9472 276.96 11.9707Z" fill="#A4D792"/>
<path d="M85.1002 40.6707C91.9002 36.0707 98.8602 34.0907 106.24 34.4307C123.57 35.2207 139.2 40.3707 151.71 53.1507C156.47 58.0107 161.53 62.5907 166.63 67.0907C168.032 68.3223 174.041 70.0795 173.33 71.5907C168.28 82.2907 168.9 93.9907 167.76 105.301C166.74 115.381 162.5 123.781 156.54 131.851C157.628 121.931 159.601 112.064 161.55 102.281C163.671 91.5714 171.252 78.9731 160.19 71.7507C153.75 67.5407 147.43 62.6607 142.39 56.9007C132.24 45.2807 119.78 39.7107 104.65 39.7207C98.4102 39.7007 92.1402 40.3007 85.1002 40.6707Z" fill="#A4D792"/>
<path d="M120.63 24.3007C135.33 25.9507 147.64 33.0207 158.45 42.8607C164.44 48.3107 170.24 53.9707 176.46 59.1407C178.62 60.9307 181.78 61.5107 184.06 62.4707C182.61 71.4507 181.15 80.0807 179.83 88.7207C178.522 97.2616 178.432 104.388 173.84 111.661C173.84 102.821 173.25 95.5607 174.02 88.4507C174.65 82.6007 176.67 76.8507 178.5 71.2007C179.64 67.6907 178.65 65.6907 175.75 63.7107C167.73 58.2307 159.21 53.2307 152.08 46.7207C137.06 33.0007 120.19 26.2507 99.8002 29.4007C94.3757 30.2461 114.797 23.6461 120.63 24.3007Z" fill="#A4D792"/>
<path d="M219.85 40.4507C209.23 49.3107 209.83 61.2007 206.31 71.5007C205.808 72.9684 201.262 81.0179 201.62 78.6907C203.04 70.7507 204.31 62.7807 206.1 54.9207C206.61 52.6807 208.7 50.8307 209.91 48.7207C211.086 46.6769 211.315 42.431 207.41 43.3607C192.8 46.8207 182.24 38.3007 172.14 30.5207C160.08 21.2407 147.33 14.6607 132.16 12.9307C129.93 12.6807 127.77 11.8907 125.61 10.4007C142.391 6.60121 167.374 15.7481 180.03 26.4607C189.92 34.8307 201.82 37.3307 214.09 39.0607C215.46 39.2507 216.8 39.7107 219.85 40.4507Z" fill="#A4D792"/>
<path d="M110.89 15.2007C117.98 16.0807 125.15 16.5407 132.14 17.9207C148.46 21.1307 162.48 28.8607 175.32 39.4907C180.79 44.0207 187.98 46.5707 194.61 49.5507C196.84 50.5507 199.73 50.0907 203.02 50.3607C200.517 58.8026 195.855 65.1368 195.03 74.5007C194.57 79.8507 194.41 85.4007 188.99 88.9907C193.1 78.9407 187.65 67.0707 196.37 57.2407C192.02 55.3307 187.99 54.0307 184.45 51.9007C177.53 47.7407 170.27 43.8107 164.28 38.5207C154.38 29.7807 143.19 24.1607 130.53 21.1807C126.548 20.2431 110.622 19.4242 110.89 15.2007Z" fill="#A4D792"/>
<path d="M75.3002 173.891C50.9302 188.681 29.2602 207.011 7.84017 225.921C7.24017 214.291 53.0302 178.551 75.3002 173.891Z" fill="#A4D792"/>
</svg>
