<svg width="188" height="343" viewBox="0 0 188 343" fill="none" xmlns="http://www.w3.org/2000/svg">
<path fill-rule="evenodd" clip-rule="evenodd" d="M129.192 1.86185C127.621 3.18385 123.809 8.02385 120.721 12.6158C114.49 21.8848 109.564 26.4278 95.7568 35.6378C72.0358 51.4608 49.7008 73.0258 43.1398 86.4398C40.7598 91.3058 35.7598 106.932 33.2498 117.346C30.0168 130.761 28.5758 134.42 18.8348 153.94C14.4428 162.74 9.94784 173.09 8.84684 176.94C3.20084 196.668 1.96784 201.556 0.877836 208.539C0.224836 212.718 -0.145162 219.722 0.0538384 224.103C0.356838 230.762 0.964839 233.126 3.75484 238.505C8.14584 246.969 14.7048 253.568 23.9168 258.79C34.1278 264.577 36.0728 265.329 43.6048 266.395C47.1928 266.903 51.186 264.685 51.5 265C51.815 265.314 49.8508 271.27 48.1128 274.701C43.6638 283.486 41.5528 289.325 36.9288 305.644C31.2228 325.779 29.5438 337.738 31.9038 341.44C33.4488 343.865 36.3018 341.309 37.0398 336.837C37.3938 334.694 37.9748 328.969 38.3298 324.115C39.0908 313.725 41.0638 303.764 43.9548 295.725C45.0998 292.543 46.8748 287.465 47.8998 284.44C51.4618 273.93 54.407 267.071 55.5 266.707C56.105 266.505 56.9648 274.566 59.4818 279.809C64.9388 291.176 68.4558 294.961 74.8338 296.329C81.0338 297.659 86.2548 296.413 97.4168 290.941C116.016 281.823 134.764 264.547 144.083 247.94C162.027 215.96 171.549 190.058 181.398 146.44C189.017 112.694 189.779 87.3699 183.837 65.4398C177.954 43.7348 152.37 9.85985 135.233 1.08685C132.164 -0.484152 131.948 -0.457152 129.192 1.86185ZM151.351 42.5918C157.053 45.1898 155.834 50.9608 148.426 56.4328C142.676 60.6808 132.488 64.0728 128.9 62.9348C126.204 62.0788 126.35 58.4879 129.318 52.6568C131.996 47.3969 135.172 44.0568 138.918 42.5628C142.354 41.1928 148.311 41.2068 151.351 42.5918ZM96.8378 50.8448C97.4788 51.6168 98.8268 55.1048 99.8318 58.5948C100.838 62.0848 103.568 68.6569 105.899 73.1989C109.388 80.0009 110.022 82.0688 109.487 84.9168C108.66 89.3258 106.531 91.4398 102.918 91.4398C97.0219 91.4398 93.4978 82.9659 91.9218 64.9958C91.1118 55.7699 91.1978 53.6598 92.4608 51.7328C94.1958 49.0848 95.2068 48.8798 96.8378 50.8448ZM175.917 63.0118C175.917 67.9038 165.579 79.6719 156.902 84.6569C151.119 87.9789 137.973 92.4398 133.967 92.4398C129.464 92.4398 124.218 89.9639 123.425 87.4639C122.443 84.3708 126.911 78.0808 132.689 74.4229C138.336 70.8479 144.349 69.0899 156.337 67.5089C161.638 66.8109 166.305 65.6008 167.837 64.5288C172.564 61.2238 175.917 60.5938 175.917 63.0118ZM69.0548 80.6059C71.4538 85.0268 75.5358 91.4828 78.1248 94.9509C85.7808 105.207 85.5758 108.769 77.2578 110.016C68.5898 111.316 66.5078 108.641 61.5678 89.8588C58.5188 78.2648 58.3138 75.1859 60.4458 73.0538C62.8498 70.6498 64.3798 71.9909 69.0548 80.6059ZM147.917 105.427C151.42 107.66 144.599 112.645 132.392 116.775C124.803 119.342 120.917 118.966 120.917 115.663C120.917 111.542 126.575 107.364 134.188 105.864C141.982 104.328 145.992 104.2 147.917 105.427ZM177.347 122.549C178.718 123.803 176.066 128.154 171.936 131.425C160.967 140.112 141.411 149.729 128.17 152.948C117.058 155.648 106.917 152.692 106.917 146.753C106.917 142.267 109.672 137.705 114.306 134.516C121.481 129.58 124.129 128.861 154.917 123.489C161.242 122.386 167.542 121.321 168.917 121.123C171.943 120.688 176.077 121.387 177.347 122.549ZM56.9708 130.265C64.1578 134.831 69.5328 141.726 76.5228 155.346C81.9588 165.937 80.7948 169.775 72.1168 169.882C67.5078 169.94 67.4648 169.908 63.1618 163.44C57.4998 154.929 52.4578 144.443 50.3398 136.776C47.6438 127.017 49.2998 125.391 56.9708 130.265ZM42.0788 167.749C57.0618 184.884 63.9168 196.413 63.9168 204.477C63.9168 210.539 61.9958 211.892 53.6178 211.737C45.2718 211.583 41.7318 208.918 37.3278 199.473C31.8578 187.741 30.6828 182.549 31.0728 171.824C31.4178 162.35 32.4068 159.923 35.4508 161.091C36.1188 161.348 39.1018 164.344 42.0788 167.749ZM132.183 166.439C139.159 169.525 139.409 172.441 133.072 176.832C127.017 181.029 117.43 184.405 106.091 186.334C89.2878 189.192 87.3938 187.282 97.5428 177.711C105.085 170.599 109.229 168.123 117.168 165.985C124.381 164.043 126.94 164.12 132.183 166.439ZM160.717 189.64C164.373 193.296 158.535 201.553 149.078 206.105C145.964 207.604 139.395 211.51 134.48 214.786C113.993 228.441 94.9178 233.604 87.0038 227.636C84.7998 225.974 84.4228 224.928 84.4588 220.575C84.4958 216.135 84.9548 214.992 87.9588 211.867C89.8608 209.888 92.5418 207.68 93.9168 206.96C98.6888 204.459 109.492 201.36 123.417 198.497C131.184 196.9 141.201 194.053 145.917 192.103C154.995 188.349 158.794 187.717 160.717 189.64ZM28.2168 222.078C33.0168 224.536 40.7248 231.256 45.1178 236.813C51.9878 245.504 49.0598 251.049 38.1258 250.056C31.5008 249.455 27.1918 246.98 23.6888 241.764C20.8618 237.555 17.9168 228.098 17.9168 223.23C17.9168 220.701 18.2488 220.44 21.4668 220.44C23.4188 220.44 26.4558 221.177 28.2168 222.078ZM134.823 245.827C138.533 250.297 99.1598 266.408 83.7938 266.707C65.9278 267.055 68.8448 253.985 87.4168 250.471C120.768 244.162 132.489 243.014 134.823 245.827Z" fill="#21825C"/>
</svg>
