<svg width="222" height="429" viewBox="0 0 222 429" fill="none" xmlns="http://www.w3.org/2000/svg">
<path fill-rule="evenodd" clip-rule="evenodd" d="M206.35 2.47587C205.36 4.20887 201.176 8.21687 197.051 11.3839C189.703 17.0259 182.884 23.4549 174.209 32.9219C171.821 35.5279 169.457 37.4069 168.957 37.0979C167.795 36.3799 140.325 41.9959 128.645 45.3389C120.822 47.5789 118.694 47.8009 111.145 47.1679C90.7461 45.4579 85.323 45.1859 81.5511 45.6869C76.4951 46.3579 77.8291 46.8259 93.051 49.7199C99.376 50.9219 105.212 52.2599 106.019 52.6929C107.603 53.5419 105.89 54.4579 94.7651 58.7069C83.5151 63.0049 89.7031 62.3019 113.675 56.5599C124.38 53.9959 127.627 53.6559 141.425 53.6559C150.019 53.6559 157.051 53.9429 157.051 54.2939C157.051 54.6449 155.139 57.0079 152.801 59.5439L148.551 64.1559L129.051 64.2249C110.714 64.2909 90.456 66.3799 86.1741 68.6489C85.4161 69.0499 88.9221 69.7009 93.965 70.0949C102.076 70.7299 112.651 70.5059 137.801 69.1659C141.789 68.9529 145.044 69.0889 145.036 69.4679C145.028 69.8459 143.565 71.8459 141.786 73.9119L138.551 77.6669L129.051 76.5459C113.812 74.7479 80.683 76.3639 63.0511 79.7649C42.2211 83.7829 37.5581 85.5259 47.0511 85.7459C83.2459 86.5849 114.664 84.8829 133.852 81.0459C136.501 80.5159 136.854 80.6869 136.423 82.2939C136.149 83.3179 135.377 84.8929 134.709 85.7939C132.871 88.2719 119.276 92.9309 113.051 93.2169C95.8621 94.0049 84.597 94.9149 77.0511 96.1269C68.6931 97.4679 44.878 103.249 36.0511 106.079L31.5511 107.522L39.0511 107.588C45.953 107.648 80.5251 105.384 91.051 104.183C95.389 103.687 95.175 103.871 85.1251 109.281C76.4411 113.955 73.432 115.051 67.1251 115.834C57.1801 117.068 34.619 121.294 29.5511 122.871L25.5511 124.117L29.4841 124.458C31.647 124.645 38.6991 124.316 45.1561 123.727C51.612 123.138 58.8301 122.656 61.1951 122.656H65.4951L63.3461 124.805C61.3871 126.765 46.947 131.839 34.8501 134.819C29.8861 136.042 12.7641 144.051 17.0511 143.145C18.4261 142.855 22.7011 141.901 26.5511 141.027C38.996 138.2 41.4951 137.744 44.8011 137.7C46.588 137.676 48.0361 137.994 48.0181 138.406C47.9591 139.743 32.708 150.389 27.0511 153.042C24.0261 154.46 18.401 157.636 14.5511 160.099C10.7011 162.563 6.08905 165.354 4.30106 166.302C-1.53792 169.4 0.865101 169.547 11.3011 166.729C29.444 161.831 30.839 162.006 19.2071 167.72C13.5181 170.515 9.08106 173.02 9.34806 173.287C9.61506 173.553 15.1701 172.121 21.6921 170.103C28.214 168.086 41.6511 164.453 51.5511 162.031C80.8239 154.868 86.1541 153.428 94.301 150.481C98.563 148.939 102.051 147.888 102.051 148.146C102.051 149.38 98.7551 156.657 98.1921 156.666C97.8401 156.672 92.376 157.599 86.0511 158.726C79.7261 159.852 71.851 161.222 68.5511 161.77C58.3461 163.463 28.07 173.606 17.6451 178.823C11.0971 182.101 0.0510624 189.046 0.0510624 189.886C0.0510624 191.016 0.951118 190.901 13.8181 188.126C47.0549 180.961 64.5442 175.163 92.837 161.931C96.939 160.012 97.676 160.694 96.018 164.874C94.0041 169.95 93.453 170.344 85.7601 172.202C71.8841 175.553 42.759 186.276 29.7151 192.837C20.0131 197.716 2.12006 209.347 2.07206 210.806C2.06106 211.164 5.76308 210.12 10.3011 208.486C14.838 206.852 22.9361 203.997 28.2951 202.142C33.654 200.286 42.0921 196.943 47.0461 194.712C52 192.481 56.2961 190.656 56.5921 190.656C56.8881 190.656 64.4381 187.056 73.3691 182.656C82.3 178.256 90.1581 174.656 90.829 174.656C92.169 174.656 92.451 177.506 91.286 179.265C90.882 179.875 86.951 181.415 82.5511 182.689C62.1321 188.599 41.368 199.147 24.5511 212.152C22.3511 213.853 17.536 217.37 13.8511 219.966C10.1661 222.562 6.88806 225.111 6.56606 225.631C5.11007 227.988 40.9231 210.283 62.8631 197.799C70.735 193.32 77.3531 189.656 77.5691 189.656C77.7861 189.656 80.2531 188.306 83.0511 186.656C85.849 185.006 88.5461 183.656 89.0431 183.656C89.5401 183.656 89.4061 185.216 88.7461 187.122C87.7001 190.145 86.369 191.16 78.3301 195.073C59.8451 204.07 35.455 218.81 25.5511 226.969C17.7031 233.434 -1.91193 253.044 0.151061 252.362C1.03206 252.072 20.6071 239.178 43.6511 223.71C77.2359 201.168 85.6101 195.954 85.8461 197.437C86.701 202.788 80.15 208.848 62.0511 219.448C46.6141 228.489 30.732 239.707 20.7291 248.637C16.1711 252.706 3.88207 266.82 4.42506 267.363C4.69906 267.637 9.52308 264.778 15.1451 261.009C28.437 252.098 30.1711 250.953 32.4901 249.554C33.5561 248.91 31.826 251.482 28.6451 255.27C22.4731 262.617 10.577 278.242 7.46706 283.086C5.62407 285.956 5.62407 285.995 7.47106 284.961C8.50906 284.38 23.2771 270.236 40.2901 253.53C68.0389 226.281 79.2141 216.486 80.7731 218.044C81.0581 218.329 81.0061 220.08 80.6591 221.935C80.1361 224.719 78.716 226.221 72.5011 230.56C63.5691 236.797 42.641 257.519 32.5141 270.156C25.9591 278.335 16.0511 292.836 16.0511 294.25C16.0511 295.45 24.9841 287.695 37.4721 275.656C57.653 256.199 62.6711 250.966 70.2671 241.454C74.153 236.587 77.5101 232.782 77.7271 232.998C77.9431 233.215 77.6851 235.33 77.1531 237.698C76.4041 241.033 75.099 242.912 71.3681 246.033C58.1671 257.074 44.54 274.015 32.9831 293.754C26.7841 304.342 19.2801 320.656 20.6101 320.656C20.8111 320.656 22.7851 317.994 24.9941 314.739C30.365 306.831 49.4881 282.793 50.0511 283.357C50.5721 283.877 38.614 301.979 36.0391 305.656C33.5831 309.162 29.573 316.108 25.9361 323.156L22.8401 329.156L27.1291 325.156C29.4871 322.956 44.0701 303.737 45.0511 302.637C47.6671 299.704 35.518 317.354 30.5451 329.224C28.0671 335.139 26.1561 340.094 26.2971 340.235C27.6391 341.577 35.4341 331.192 53.377 304.156C61.408 292.056 68.8841 281.031 69.9921 279.656L72.0071 277.156L72.0291 282.776C72.049 287.863 71.696 288.797 68.3011 292.64C57.7761 304.551 44.688 326.756 38.4971 343.203C35.8821 350.151 35.9671 351.655 38.6791 346.406C39.6021 344.619 45.1331 335.731 50.9691 326.656C56.805 317.581 63.7951 306.453 66.5021 301.926C69.21 297.4 71.6511 293.923 71.9281 294.199C72.2051 294.476 72.3091 296.999 72.1601 299.805C71.9211 304.32 71.293 305.611 66.7011 311.031C60.2071 318.698 48.971 336.526 44.6311 346.05C40.7251 354.622 37.6431 363.582 38.3571 364.295C38.6371 364.575 42.9881 358.704 48.0261 351.248C56.399 338.854 65.4731 322.936 64.0511 326.656C60.1161 336.951 47.1531 379.107 49.0531 376.962C49.446 376.519 52.5801 370.081 56.0191 362.656C61.361 351.121 66.7351 336.534 70.7561 322.656C71.5971 319.751 71.9021 319.468 72.5491 320.988C73.0641 322.199 71.601 327.953 68.2261 337.988C65.4201 346.33 62.2491 356.981 61.1791 361.656C59.2651 370.015 56.5651 392.503 57.377 393.315C57.999 393.937 62.3321 379.385 67.5491 359.156C74.792 331.071 74.2601 332.755 74.9911 335.609C75.3411 336.976 74.605 342.072 73.3301 347.109C72.0721 352.085 70.1431 361.267 69.0451 367.514C66.7711 380.448 65.2311 404.656 66.6831 404.656C67.2001 404.656 68.5061 400.494 69.5871 395.406L73.1941 378.453L72.0511 400.825C72.3261 408.894 72.8401 415.783 73.1941 416.135C73.5471 416.487 74.1231 413.485 74.4731 409.465C74.8241 405.445 75.6281 398.331 76.2591 393.656C77.3371 385.677 78.3691 378.401 79.0511 382.156C79.4511 384.356 79.3861 397.206 80.0271 402.156C81.768 415.579 82.188 417.656 83.162 417.656C83.651 417.656 84.0511 413.193 84.0511 407.738C84.0511 393.497 82.3291 384.496 86.0511 395.906C89.5811 406.725 94.6521 420.62 98.46 425.156L100.978 428.156L100.072 425.156C99.575 423.506 97.974 418.556 96.515 414.156C91.0461 397.658 89.8491 390.463 93.77 397.651C99.195 407.598 110.916 422.745 111.01 419.932C111.033 419.259 108.126 412.935 104.551 405.879C100.976 398.823 93.0511 387.243 93.0511 386.953C93.0511 386.663 101.263 395.083 105.188 398.856C120.481 413.553 122.107 412.418 109.416 395.906C105.929 391.368 95.2441 381.453 95.5511 381.453C95.8581 381.453 106.072 388.939 108.371 390.508C110.67 392.077 113.618 393.922 114.922 394.608C118.734 396.615 116.908 394.436 102.13 379.357C86.9461 363.862 87.0871 364.035 87.066 360.814C87.054 358.858 87.8311 359.434 91.794 364.314C96.97 370.69 100.191 373.7 106.335 377.906C113.094 382.533 112.754 381.003 105.334 373.406C96.0581 363.908 81.0511 345.745 81.0511 344.016C81.0511 341.487 82.5351 342.757 87.4221 349.468C92.349 356.232 99.8931 363.049 105.751 366.028C110.181 368.281 112.066 368.009 109.051 365.552C107.676 364.431 102.718 359.834 98.032 355.335C93.3471 350.837 87.4481 345.356 84.9221 343.156C82.3971 340.956 79.9781 338.035 79.5471 336.664C78.8161 334.343 78.8881 334.274 80.5951 335.664C81.6021 336.485 83.5801 338.214 84.9891 339.506C97.389 350.882 111.051 360.977 111.051 358.765C111.051 357.367 91.068 340.639 84.3011 336.373C78.9711 333.013 78.0511 332.005 78.0511 329.526C78.0511 326.636 78.1071 326.663 87.301 333.963C95.989 340.861 108.848 350.348 111.927 352.133C115.058 353.947 111.179 349.546 102.548 341.492C94.5891 334.065 90.025 330.617 79.8011 324.307C77.6541 322.982 77.0511 321.848 77.0511 319.133C77.0511 317.221 77.3501 315.656 77.7151 315.656C78.0801 315.656 81.3421 318.275 84.9651 321.475C95.723 330.98 113.052 343.6 113.05 341.929C113.049 340.314 89.703 320.782 81.3011 315.367C77.4101 312.859 77.0511 312.273 77.0511 308.426V304.224L82.7701 309.69C85.916 312.696 88.729 315.405 89.02 315.71C92.624 319.47 109.148 333.179 111.044 333.982C112.423 334.565 114.338 335.7 115.301 336.504C117.316 338.187 117.653 336.803 115.801 334.449C112.864 330.716 90.895 311.804 84.9911 307.927C81.4491 305.6 77.9891 303.22 77.3011 302.637C76.0321 301.561 75.5531 295.487 76.6501 294.39C76.9801 294.06 79.4561 296.442 82.1531 299.683C87.108 305.637 95.6711 312.866 106.419 320.169C118.822 328.597 123.205 330.73 119.456 326.514C117.788 324.638 102.103 311.499 86.6571 299.037C78.8051 292.702 75.9871 289.378 77.0341 287.684C77.7471 286.529 78.9171 287.262 82.7411 291.258C91.734 300.657 103.833 309.558 114.718 314.782C120.493 317.554 125.481 319.56 125.801 319.239C126.122 318.918 126.197 318.525 125.968 318.365C125.738 318.205 121.951 315.391 117.551 312.111C113.151 308.831 102.464 301.424 93.8021 295.652C83.2011 288.587 78.0531 284.568 78.0521 283.357C78.0511 281.959 80.1131 282.991 87.301 287.986C99.265 296.301 111.057 302.26 122.32 305.685C127.359 307.218 124.18 304.892 112.79 298.715C80.3952 281.147 78.5551 280.035 78.2311 277.833C77.8251 275.065 78.7451 275.094 83.0691 277.983C89.597 282.345 101.535 288.503 110.33 292.044C132.015 300.774 130.487 297.861 107.529 286.705C98.6091 282.37 88.889 277.814 85.9301 276.581C79.0221 273.703 78.0761 272.758 78.7401 269.406C79.3821 266.161 80.2081 266.019 83.841 268.526C92.52 274.516 118.841 288.674 124.051 290.155L126.551 290.865L124.551 288.863C121.33 285.637 100.418 272.952 89.309 267.483C78.3591 262.094 78.5931 262.406 80.6131 255.882C80.8621 255.074 84.4191 257.127 90.312 261.48C102.535 270.507 114 277.047 123.996 280.695C128.458 282.324 132.376 283.656 132.702 283.656C134.861 283.656 123.484 275.325 112.901 269.156C111.957 268.606 107.688 266.022 103.413 263.414C99.1381 260.806 92.47 257.445 88.596 255.947C84.7211 254.448 81.3261 252.913 81.0511 252.535C80.3401 251.558 81.1101 241.655 81.8981 241.661C82.2571 241.664 86.7651 245.277 91.9141 249.69C106.053 261.806 112.141 266.259 119.686 270.001C127.212 273.735 133.909 276.131 134.675 275.365C134.945 275.095 131.48 272.238 126.976 269.015C122.471 265.793 117.158 261.991 115.168 260.568C103.036 251.887 90.033 243.109 86.7961 241.414C84.7311 240.333 82.8521 239.143 82.6211 238.769C82.3901 238.395 82.6561 235.958 83.2111 233.352L84.2221 228.615L94.3861 238.303C99.977 243.632 108.257 250.415 112.786 253.377C121.969 259.382 136.841 267.199 137.614 266.426C138.49 265.55 114.866 246.231 105.628 240.27C104.02 239.232 98.684 235.207 93.77 231.325L84.8351 224.268L85.326 219.912C85.596 217.517 86.0271 215.347 86.285 215.089C86.542 214.832 90.9821 218.939 96.152 224.216C101.321 229.493 108.701 236.217 112.551 239.157C121.04 245.641 142.88 259.666 144.433 259.631C145.048 259.617 141.276 255.586 136.051 250.674C130.826 245.762 114.175 231.499 115 231.5C115.825 231.501 133.826 244.606 139.051 248.102C144.276 251.599 148.776 254.235 149.051 253.96C149.326 253.686 144.826 249.015 139.051 243.581C133.276 238.146 128.874 233.69 129.27 233.678C129.665 233.666 133.04 235.62 136.77 238.021C140.499 240.421 145.044 243.149 146.869 244.081C150.044 245.705 150.144 245.7 149.205 243.967C147.115 240.112 118.175 212.641 105.685 202.656C95.4201 194.449 92.483 191.566 92.2391 189.455C91.9271 186.751 93.4931 182.654 94.8361 182.658C95.229 182.66 99.8261 187.666 105.051 193.783C110.276 199.9 118.376 208.141 123.051 212.097C132.924 220.45 151.511 234.656 152.568 234.656C153.48 234.656 147.725 227.48 138.643 217.292C131.344 209.103 114.787 194.347 102.278 184.882C94.4601 178.966 94.5871 179.321 97.62 171.906C99.227 167.977 99.9721 167.905 102.484 171.437C110.069 182.102 128.406 203.673 134.82 209.476C143.613 217.431 158.627 229.656 159.605 229.656C160.968 229.656 145.982 213.245 110.476 175.854L100.401 165.244L102.055 160.885C102.965 158.488 104.099 156.5 104.576 156.468C105.052 156.436 108.166 160.732 111.496 166.013C121.755 182.284 129.612 192.102 140.294 202.001C150.049 211.04 163.051 221.348 163.051 220.043C163.051 219.708 161.307 217.346 159.176 214.795C153.453 207.943 141.014 190.36 141.527 189.847C141.771 189.603 147.193 194.523 153.576 200.78C159.959 207.037 165.684 212.333 166.298 212.55C166.912 212.767 164.698 209.617 161.377 205.55C152.725 194.956 142.051 180.49 142.051 179.359C142.051 178.828 144.639 180.903 147.801 183.97C156.971 192.863 174.589 206.451 175.617 205.424C175.833 205.208 173.178 201.909 169.717 198.094C160.128 187.52 137.927 160.775 131.442 151.986C128.265 147.679 123.503 141.284 120.859 137.774C118.214 134.264 116.051 130.759 116.051 129.984C116.051 129.21 117.001 126.713 118.163 124.436L120.275 120.296L123.502 127.226C131.16 143.673 148.387 165.258 167.999 182.98C178.327 192.313 180.398 193.143 174.406 185.548C164.271 172.702 156.427 162.028 153.175 156.656L149.846 151.156L158.698 159.868C163.567 164.66 168.676 169.489 170.051 170.6C171.426 171.71 173.209 173.19 174.014 173.887C174.818 174.585 177.18 176.396 179.264 177.912C184.039 181.388 184.256 179.562 179.781 173.55C177.982 171.133 175.236 167.264 173.677 164.952C170.07 159.602 157.554 144.422 144.575 129.656C139.015 123.331 132.621 115.901 130.366 113.146L126.266 108.135L128.524 103.708L130.783 99.2809L134.84 107.472C140.563 119.026 153.555 135.853 169.585 152.473C177.141 160.307 183.54 166.501 183.804 166.236C184.367 165.673 173.803 149.817 167.094 141.156C159.117 130.857 160.329 131.712 174.855 146.625C182.606 154.582 189.275 160.765 189.676 160.364C190.077 159.963 189.259 158.402 187.858 156.896C186.457 155.389 179.151 145.331 171.624 134.544C164.096 123.758 153.203 109.444 147.417 102.736C137.001 90.6589 136.914 90.5139 138.518 88.0659C139.41 86.7049 140.553 85.8479 141.059 86.1609C141.566 86.4739 144.5 91.2189 147.579 96.7059C153.77 107.736 158.402 113.829 171.051 127.582C178.565 135.751 192.684 147.356 193.778 146.262C194 146.041 191.171 142.101 187.492 137.508C183.813 132.914 178.722 126.274 176.177 122.751C173.633 119.228 167.999 112.478 163.658 107.751C153.515 96.7069 143.05 83.7809 143.056 82.3059C143.059 81.6739 144.085 79.8759 145.338 78.3109L147.614 75.4659L154.929 86.1149C167.122 103.865 180.947 120.04 191.388 128.774C198.576 134.785 200.911 135.155 195.375 129.406C193.124 127.068 188.913 121.781 186.018 117.656C178.66 107.171 168.83 95.3889 160.572 87.1559C156.711 83.3059 152.684 78.5109 151.624 76.4999C149.749 72.9409 149.746 72.7699 151.538 70.0359C153.24 67.4379 153.46 67.3639 154.465 69.0439C160.482 79.1069 174.483 99.0299 180.894 106.656C191.665 119.465 198.311 126.516 197.678 124.462C196.387 120.268 178.634 94.7619 167.363 80.9059L154.957 65.6569L156.754 63.1879C157.742 61.8299 159.017 60.7049 159.587 60.6869C160.157 60.6699 163.181 63.7879 166.309 67.6159C169.654 71.7109 175.573 77.1659 180.685 80.8659C189.862 87.5089 195.169 92.3699 203.889 102.122C206.823 105.404 210.119 108.716 211.214 109.483C213.163 110.848 213.162 110.798 211.134 107.016C209.995 104.893 207.878 101.693 206.429 99.9059C202.929 95.5879 204.774 95.6429 214.154 100.138C218.15 102.053 221.644 103.397 221.917 103.123C222.191 102.85 220.935 101.1 219.127 99.2349C215.801 95.8029 211.309 92.5809 198.485 84.4269C192.56 80.6599 189.456 77.4899 179.271 64.8079L167.125 49.6819L169.403 47.0329L171.682 44.3839L176.578 51.2699C186.392 65.0709 207.896 87.1449 209.734 85.3059C210.066 84.9739 207.236 81.2459 203.444 77.0209C199.653 72.7969 192.958 65.0449 188.566 59.7959C184.174 54.5469 179.085 48.7569 177.257 46.9279C175.041 44.7129 174.123 43.0049 174.503 41.8059C175.018 40.1829 183.063 32.2009 202.233 14.2919C210.228 6.82287 212.185 3.36187 209.777 0.952867C208.272 -0.552133 208.012 -0.436135 206.35 2.47587ZM167.051 41.2159C167.051 41.5229 165.365 43.7919 163.305 46.2569L159.559 50.7379L154.055 50.0749C144.939 48.9769 145.088 48.2319 155.19 44.4079C164.61 40.8419 167.051 40.1849 167.051 41.2159ZM166.051 54.6029C166.051 55.1239 168.29 58.5089 171.028 62.1249C180.74 74.9569 179.86 76.1309 168.57 65.4059C161.129 58.3379 160.978 58.0999 162.551 55.9059C164.204 53.5999 166.051 52.9129 166.051 54.6029ZM130.801 91.9059C130.573 92.5939 129.537 93.3199 128.5 93.5209C126.869 93.8369 126.795 93.6689 127.955 92.2709C129.541 90.3599 131.395 90.1219 130.801 91.9059ZM146.604 113.368C149.644 118.033 151.703 121.694 151.178 121.503C150.162 121.134 140.636 109.761 135.894 103.256C132.896 99.1429 132.291 95.8159 134.197 93.9099C135.058 93.0489 136.055 94.2709 138.209 98.8249C139.785 102.158 143.563 108.703 146.604 113.368ZM123.823 104.019L120.551 110.382L108.552 110.936C96.7311 111.482 93.9341 111.272 97.658 110.115C100.2 109.326 108.115 105.483 116.051 101.185C119.626 99.2489 123.573 97.6629 124.823 97.6609C127.08 97.6559 127.073 97.6969 123.823 104.019ZM130.393 119.906C133.048 124.994 137.037 131.989 139.256 135.452C141.476 138.915 143.121 141.919 142.912 142.128C142.605 142.435 137.05 136.149 131.551 129.269C131.001 128.581 128.387 125.757 125.743 122.993L120.934 117.969L122.678 114.312C123.637 112.301 124.679 110.656 124.993 110.656C125.307 110.656 127.737 114.818 130.393 119.906ZM117.929 114.666C117.171 115.07 113.626 115.65 110.051 115.955L103.551 116.511L110.551 114.755C117.16 113.096 120.965 113.051 117.929 114.666ZM90.551 119.616C76.8421 122.629 75.8511 122.755 76.2971 121.417C76.7391 120.092 86.8201 118.13 94.051 117.962C97.866 117.873 97.333 118.125 90.551 119.616ZM113.075 124.609C110.364 129.979 109.702 130.62 106.31 131.159C104.243 131.488 98.951 132.402 94.551 133.191C90.1511 133.98 83.401 135.105 79.5511 135.691C73.0861 136.674 55.125 141.065 52.6301 142.271C52.0371 142.558 53.1261 141.365 55.0511 139.62C59.628 135.47 62.6791 134.221 75.7061 131.162C96.457 126.291 102.086 124.653 108.3 121.677C111.738 120.03 114.895 118.677 115.315 118.669C115.736 118.662 114.728 121.335 113.075 124.609ZM105.921 139.515C103.589 145.127 103.476 145.186 93.551 146.067C90.2511 146.36 76.475 148.66 74 149C69.947 149.556 79.7441 147.229 90.551 141.747C101.816 136.033 107.206 133.656 107.811 134.136C107.954 134.249 107.103 136.67 105.921 139.515ZM116.051 135.2C116.051 136.049 118.518 141.758 121.532 147.885C124.547 154.013 126.797 159.243 126.532 159.508C126.268 159.773 125.897 159.802 125.708 159.573C124.234 157.781 115.018 145.509 113.218 142.941C111.089 139.904 111.051 139.556 112.533 136.691C114.212 133.445 116.051 132.665 116.051 135.2ZM117.33 156.295C121.057 163.246 123.968 169.072 123.799 169.241C123.56 169.48 109.083 155.486 106.511 152.531C105.865 151.788 108.98 143.656 109.911 143.656C110.264 143.656 113.603 149.343 117.33 156.295ZM65.4951 146.067C65.4951 146.278 55.926 147.638 54.5511 147.901C53.1761 148.164 45.5 150.974 45.5 150.5C45.5 150.027 53.1761 146.656 54.5511 146.656C55.926 146.656 65.4951 145.857 65.4951 146.067ZM95.785 200.842C98.113 204.241 108.256 213.244 108 213.5C107.462 214.037 91.647 203.079 89.962 201.049C88.8101 199.661 89.483 194.653 90.82 194.659C91.222 194.661 93.4561 197.444 95.785 200.842ZM95.9161 213.23C99.392 217.395 109.688 227.312 109.5 227.5C108.96 228.038 87.051 210.63 87.051 209.675C87.051 208.192 88.237 205.656 88.93 205.656C89.296 205.656 92.4401 209.064 95.9161 213.23ZM82.0511 211.621C82.0511 212.151 81.038 213.117 79.8011 213.766C77.5631 214.941 77.5611 214.936 79.4561 212.802C81.572 210.418 82.0511 210.2 82.0511 211.621ZM74.4911 255.406C73.9721 258.396 71.99 261.017 64.7121 268.339C59.6921 273.39 55.415 277.354 55.209 277.147C54.4211 276.359 72.8631 251.656 74.2401 251.656C74.7361 251.656 74.8491 253.344 74.4911 255.406ZM67.5511 275.477C64.5261 278.946 54 294.149 54 293.754C54 292.946 72.1891 264.656 72.7141 264.656C75.3004 264.656 67.6976 275.309 67.5511 275.477ZM79.0511 360.453C78.7741 361.141 77.0511 354.828 77.0511 353.453C77.0511 352.078 77.4361 347.719 77.7131 348.406C79.0511 348.953 79.3291 359.766 79.0511 360.453Z" fill="#F7FDB6"/>
</svg>
