<svg width="210" height="440" viewBox="0 0 210 440" fill="none" xmlns="http://www.w3.org/2000/svg">
<path d="M189.406 119.946C217.117 108.568 209.729 180.625 204.816 192.886C199.377 206.482 172.454 208.578 160.486 212.266C172.38 213.681 184.338 214.682 196.006 217.486C209.731 220.808 199.567 242.592 196.876 250.676C192.27 264.494 166.136 247.197 155.536 251.716C165.705 255.443 176.363 258.727 185.716 264.306C192.066 268.106 194.856 274.236 191.926 280.946C187.926 290.116 182.726 298.826 177.406 307.336C165.914 325.75 143.456 297.874 130.276 303.346C139.675 310.182 149.616 316.665 156.006 326.686C171.308 350.725 126.962 393.776 105.716 405.276C95.1858 410.966 84.0958 409.316 76.3758 399.886C69.4092 391.385 64.7331 381.124 59.0858 371.726C46.3337 391.127 34.1062 410.874 21.2058 430.176C14.0013 440.952 -8.13463 445.151 3.14582 429.806C24.2385 401.099 45.3684 372.421 62.9758 341.346C87.2458 298.506 107.336 253.626 119.766 205.856C125.826 182.566 130.706 158.696 133.016 134.796C135.686 107.196 136.306 79.236 132.036 51.546C129.856 37.416 127.456 23.326 125.166 9.21599C122.597 -6.62453 141.329 1.57784 149.276 7.18599C165.326 18.516 179.586 31.956 186.876 50.826C190.336 59.776 192.626 69.246 194.666 78.646C197.326 90.906 191.926 100.806 182.736 108.066C170.699 117.575 157.158 125.263 143.886 132.906C146.405 140.902 184.566 121.932 189.406 119.946Z" fill="#A4D792"/>
</svg>
