<svg width="263" height="327" viewBox="0 0 263 327" fill="none" xmlns="http://www.w3.org/2000/svg">
<path fill-rule="evenodd" clip-rule="evenodd" d="M76.3162 1.84782C65.6032 4.58182 64.0922 5.42882 55.9192 13.2788C51.7372 17.2948 44.7792 23.2078 40.4552 26.4188C30.4332 33.8628 23.7102 42.2468 19.8392 52.1318C16.7012 60.1428 16.1622 62.9138 17.7432 62.9138C18.2532 62.9138 24.2162 60.2058 30.9932 56.8968C48.5002 48.3478 58.6032 46.5848 76.6502 48.9278C84.9372 50.0038 91.8162 53.2788 91.8162 56.1488C91.8162 58.8008 87.2562 60.3608 73.8162 62.3078C52.1762 65.4438 48.4202 66.1678 41.3722 68.5628C31.8022 71.8168 17.1142 79.1158 12.6962 82.8138C6.99521 87.5868 5.81321 91.2208 4.76621 107.189C3.96421 119.42 3.00121 125.024 0.13221 134.164C-0.19679 135.211 0.10221 135.914 0.87521 135.914C2.94121 135.914 28.9802 120.477 45.3032 109.575C61.2602 98.9168 69.4892 94.6748 82.2882 90.5088C92.8692 87.0648 94.8162 87.0978 94.8162 90.7178C94.8162 94.1968 90.0222 101.925 86.1852 104.633C81.5242 107.922 73.8552 111.518 59.9252 116.947C34.2892 126.937 19.7602 135.63 8.97321 147.433C3.07521 153.886 2.35121 155.89 3.07721 163.753C3.65821 170.046 10.3422 191.621 12.3932 193.823C14.0302 195.581 14.0142 195.593 28.4472 182.679C60.4292 154.063 90.6832 136.538 98.2772 142.227C105.397 147.559 76.7143 163.94 74.5032 165.282C53.1742 178.222 36.3982 190.508 25.1562 201.424C16.3432 209.98 16.7112 215.626 27.0802 230.958C30.5102 236.031 35.0332 243.383 37.1322 247.297C39.2312 251.211 41.4522 254.414 42.0672 254.414C42.6822 254.414 44.7432 251.714 46.6472 248.414C58.2252 228.349 67.6582 216.353 89.6562 193.726C105.561 177.365 113.473 172.514 118.779 175.87C121.661 177.693 117.079 183.677 100.187 200.153C79.8092 220.03 70.5442 230.482 62.2282 242.972C54.9452 253.913 52.7802 259.153 53.8862 263.168C55.1952 267.917 68.4182 283.454 75.3782 288.421C83.2112 294.011 92.3102 298.322 94.5012 297.481C95.9072 296.942 96.0202 295.333 95.4182 284.482C94.6222 270.169 95.5922 264.542 101.292 250.403C109.453 230.161 127.017 204.066 130.876 206.451C132.51 207.461 131.896 216.444 129.709 223.525C123.121 244.852 112.928 263.593 108.257 285.914C106.867 292.576 108.354 300.508 113.158 305.283C122.411 314.474 136.122 318.71 148.685 319.891C162.481 321.188 165.179 321.921 167.025 324.877C167.725 325.997 168.615 326.914 169.003 326.914C169.391 326.914 171.339 324.459 173.33 321.458C175.496 318.195 179.726 313.946 183.858 310.883C192.164 304.725 193.122 302.369 191.667 291.667C189.701 277.21 185.291 265.766 177.197 254.121C171.488 245.908 169.816 242.58 169.816 239.432C169.816 234.001 175.398 235.654 183.113 243.369C188.673 248.929 197.111 265.522 199.408 275.414C202.49 288.68 202.901 289.914 204.24 289.914C205.9 289.914 212.072 283.188 214.509 278.724C215.912 276.154 216.316 273.167 216.316 265.361C216.316 255.778 216.143 254.961 212.617 247.861C208.523 239.621 199.103 228.645 186.472 217.398C165.459 198.689 157.434 188.959 159.207 184.339C160.861 180.027 181.393 188.245 188.659 196.128C197.598 205.825 199.175 207.822 206.323 218.5C215.135 231.661 219.401 240.321 220.949 248.188C222.213 254.607 223.13 255.721 225.531 253.75C227.615 252.04 234.195 237.859 236.359 230.416C238.665 222.482 238.05 211.866 234.941 205.914C230.2 196.842 225.685 191.122 218.308 184.84C207.872 175.954 201.707 172.057 184.029 163.171C167.303 154.765 161.466 150.405 161.99 146.71C162.273 144.717 162.846 144.436 166.328 144.58C172.539 144.836 192.278 153.038 201.816 159.326C215.349 168.247 229.665 180.441 234.793 187.414C236.816 190.164 240.368 195.676 242.687 199.664C245.007 203.651 247.298 206.914 247.78 206.914C250.124 206.914 254.805 184.737 254.812 173.594C254.817 166.527 251.971 161.816 243.116 154.229C229.409 142.486 219.528 137.405 193.786 128.864C181.977 124.945 171.318 121.103 170.098 120.325C164.892 117.004 172.244 112.798 183.316 112.762C191.516 112.736 201.195 115.131 215.816 120.804C230.488 126.496 237.611 130.993 248.855 141.664C254.216 146.752 259.064 150.914 259.63 150.914C262.232 150.914 262.954 132.185 260.778 121.125C258.073 107.375 247.748 101.44 208.404 91.0138C205.032 90.1201 176.939 79.075 193.816 78.0948C206.953 77.3338 237.228 82.4238 250.149 87.5658C255.007 89.4988 259.221 90.8418 259.514 90.5488C259.806 90.2568 258.686 86.7318 257.025 82.7158C255.364 78.6998 253.307 70.9988 252.456 65.6028C251.604 60.2068 249.826 53.4568 248.506 50.6028C245.45 43.9978 236.95 35.6718 229.839 32.3158C217.714 26.5948 215.458 25.2718 211.768 21.7198C209.629 19.6618 207.399 16.2528 206.73 14.0198C203.923 4.65282 195.054 1.59882 183.316 5.95782C174.872 9.09382 170.543 14.0238 163.119 28.9638C161.084 33.0601 154.826 67.7048 140.778 65.6028C129.042 65.6028 128 44 125.598 37.0958C120.815 23.3461 114.581 8.96746 100.606 1.81382C95.8592 -0.617184 85.9182 -0.603184 76.3162 1.84782ZM125.355 99.9468C127.236 101.508 127.225 106.222 125.332 109.884C123.572 113.286 116.8 118.961 111.629 121.367C108.445 122.848 107.171 122.922 102.29 121.909C90.2912 119.418 89.4432 111.733 100.455 105.28C112.162 98.4188 121.186 96.4858 125.355 99.9468ZM125.816 143.57C125.816 149.355 115.073 157.816 110.98 155.254C108.9 153.952 108.421 149.939 110.089 147.792C112.627 144.525 119.12 140.914 122.456 140.914C125.426 140.914 125.816 141.222 125.816 143.57Z" fill="#21825C"/>
</svg>
