<svg width="379" height="375" viewBox="0 0 379 375" fill="none" xmlns="http://www.w3.org/2000/svg">
<path fill-rule="evenodd" clip-rule="evenodd" d="M167.956 3.83193C166.413 13.6569 166.975 70.7879 168.869 96.6389C169.031 98.8457 173.998 138.93 171.678 132.832C170.818 130.568 162.202 82.8869 159.554 63.2919C157.925 51.2359 153.294 31.6829 149.015 18.7919C148.284 16.5919 146.918 11.9669 145.979 8.51493C143.459 -0.742072 142.105 -0.574072 142.956 8.88893C143.734 17.5439 147.738 44.4259 150.016 56.2919C152.564 69.5623 154.188 83.1993 157.555 96.2919C160.859 109.167 161.841 117.9 164.919 130.832C166.97 139.447 166.227 144.685 162.419 131.832C161.37 128.295 159.144 125.467 156.021 115.292C148.598 91.1009 144.178 76.5259 141.465 67.2919C138.078 55.7659 119.864 2.27393 119.049 1.45893C117.863 0.271928 118.709 10.2749 120.587 19.6349C122.572 29.5249 126.9 45.6029 140.281 92.7919C148.737 122.613 157.858 140.467 155.178 140.332C149.32 140.034 122.773 75.0525 120.569 71.2919C104.028 43.0709 98.3081 34.5009 88.7351 23.6009C82.6541 16.6759 80.0181 14.9369 81.0761 18.5479C82.0801 21.9749 88.9181 35.2049 99.5521 54.2919C106.859 67.4054 113.399 81.1502 121.484 93.8079C127.478 103.195 143.211 131.799 142.678 132.332C142.191 132.819 118.392 101.765 117.119 99.4809C113.494 92.9739 66.2851 46.3779 58.7991 41.9189C55.5661 39.9919 58.5181 44.0249 69.7991 56.9439C89.5771 79.5936 107.163 104.045 127.492 126.137C134.752 134.027 150.701 151.51 150.419 151.792C149.818 152.393 134.54 138.221 129.527 133.858C125.926 130.724 122.497 128.027 114.549 122.077C92.9246 105.892 71.9219 88.9043 50.2611 72.7739C41.8941 66.5439 33.3501 59.9989 31.2721 58.2289C29.1951 56.4599 27.1701 55.3509 26.7721 55.7649C25.8501 56.7249 50.0111 80.1169 72.0491 99.6009C89.4585 114.992 107.001 130.287 125.96 143.762C130.871 147.25 132.735 149.292 131.008 149.292C130.711 149.292 127.223 147.544 123.258 145.406C119.293 143.269 109.299 137.931 101.049 133.543C88.9503 127.108 76.907 120.534 65.0491 113.663C44.8241 101.946 10.3921 84.2919 7.76412 84.2919C6.12012 84.2919 10.9501 87.9209 17.8951 91.9029C50.923 110.848 82.0367 132.743 115.549 150.941C127.769 157.577 148.795 160.832 146.919 160.832C144.762 160.832 119.544 158.307 112.549 155.571C79.3992 142.598 45.6574 131.255 13.0461 116.833C6.77912 114.062 -1.30488 111.847 0.178117 113.308C2.83512 115.926 50.3631 140.42 67.5491 148.028C82.4251 154.614 93.9191 158.292 101.049 159.792C105.419 160.711 149.413 168.92 148.178 169.332C146.558 169.872 101.517 165.731 91.0171 163.216C76.698 159.787 61.9832 156.627 47.5491 153.757C10.5601 146.402 2.75812 145.146 1.97012 146.419C1.29612 147.51 3.59612 148.584 15.5491 152.762C40.4061 161.451 66.6931 167.07 102.049 171.253C122.857 173.715 150.385 173.798 151.419 174.832C152.455 175.868 126.584 176.372 106.549 176.856C95.1461 177.132 90.7461 177.094 80.0491 176.627C58.9591 175.708 2.85412 179.587 0.300117 182.141C-2.18188 184.623 47.1281 185.04 78.0491 182.798C100.319 181.184 128.297 178.983 125.96 180.292C125.135 180.754 112.899 183.567 109.049 184.22C100.337 185.698 85.0171 188.511 68.0491 191.75C55.0617 194.229 41.8768 195.89 28.9771 198.804C11.1781 202.826 3.93112 204.635 2.54912 205.4C0.0501173 206.785 11.7501 206.421 21.7991 204.801C42.9134 201.402 64.5144 199.398 85.0491 193.238C89.7511 191.827 138.95 181.508 141.678 182.193C143.901 182.751 110.35 191.758 105.937 193.434C100.922 195.338 95.6041 196.104 90.5141 197.845C86.4081 199.249 79.8991 201.233 76.0491 202.253C63.2421 205.649 50.9353 211.092 38.5491 215.731C28.5681 219.47 23.2321 222.193 25.7711 222.252C27.5831 222.294 42.5991 218.458 63.5491 212.601C70.4241 210.679 77.6241 208.714 79.5491 208.235C81.4741 207.756 90.4741 204.817 99.5491 201.705C115.524 196.225 143.724 185.327 146.419 185.292C148.859 185.26 131.567 194.098 127.298 195.621C124.961 196.455 117.424 199.687 110.549 202.803C103.674 205.919 91.8001 210.93 84.1621 213.94C64.8811 221.536 25.9161 241.545 21.0851 246.33C19.1371 248.26 19.1471 248.268 22.2811 247.369C33.1431 244.254 72.4381 228.128 89.0491 219.97C100.379 214.403 112.214 209.91 123.429 204.11C127.488 202.01 148.876 190.96 149.629 190.96C153.318 190.96 132.697 202.952 115.049 214.659C98.5341 225.614 77.9101 239.702 74.0491 242.665C60.6271 252.966 36.6351 272.343 35.9691 273.421C35.1051 274.819 41.4111 271.321 51.5491 264.778C61.827 258.145 72.4122 252.035 82.3791 244.923C95.6357 235.462 110.242 227.88 123.201 218.042C127.572 214.724 142.163 202.275 139.129 205.4C137.928 206.637 113.147 231.274 99.2731 245.307C83.3718 261.392 66.1659 277.213 53.0861 295.792L58.4461 291.544C65.2971 286.114 72.9411 278.964 101.161 251.589C113.749 239.378 126.749 227.295 130.049 224.74C133.509 222.061 146.371 206.995 149.629 204.11C151.829 202.161 141.642 215.362 137.869 220.945C122.071 244.326 104.234 266.269 87.1271 288.695C76.4121 302.745 68.5561 313.593 68.5911 314.292C68.6611 315.705 91.4031 290.159 98.0491 281.202C101.067 277.134 130.737 241.243 141.014 229.228C145.983 223.418 152.299 215.836 155.049 212.379C164.1 201.002 164.794 200.203 165.243 200.652C170.557 205.988 135.854 262.147 131.053 270.292C122.865 284.183 115.098 298.306 106.809 312.142C101.092 321.684 96.5881 329.664 96.7991 329.876C97.5851 330.661 115.295 305.985 132.028 280.792C153.825 247.973 165.828 225.119 172.6 203.542C174.369 197.904 176.179 193.292 176.622 193.292C180.264 193.292 177.567 241.101 172.126 272.965C169.891 286.057 158.971 334.524 154.028 353.292C152.651 358.517 151.242 365.379 150.895 368.542L150.264 374.292H153.364C156.327 374.292 156.553 373.994 158.463 367.542C163.036 352.1 172.953 304.998 175.043 288.792C175.397 286.042 176.32 280.192 177.093 275.792C180.111 258.62 181.549 239.708 181.549 217.197C181.549 204.599 181.887 194.299 182.299 194.308C184.019 194.345 193.943 214.19 209.043 247.792C212.503 255.492 216.677 264.717 218.319 268.292C226.215 285.492 229.951 303.369 231.169 329.792L231.906 345.792L233.181 339.292C237.017 319.728 232.594 283.262 223.918 262.926C220.307 254.466 217.633 245.643 213.755 237.292C210.501 230.283 191.529 190.087 192.942 190.96C199.115 194.773 220.38 240.064 224.433 246.053C230.003 254.281 234.166 263.402 239.19 271.962C251.506 292.948 254.717 303.353 256.06 326.638C256.461 333.598 257.14 339.292 257.569 339.292C258.691 339.292 259.919 315.183 259.194 307.387C257.777 292.156 249.719 270.144 240.449 256.182C238.4 253.096 235.553 248.371 234.121 245.682C232.69 242.992 229.286 237.192 226.558 232.792C223.83 228.392 215.124 214.848 215.678 214.659C217.626 213.994 228.337 227.242 236.156 236.831C240.497 242.154 246.55 249.499 249.607 253.151C265.531 272.177 278.591 294.09 289.921 320.792C291.321 324.092 292.485 326.436 292.508 326C292.596 324.297 289.321 309.441 287.451 303.065C281.092 281.383 261.714 252.384 237.323 228.051C224.937 215.694 198.178 182.832 218.919 201.832C224.946 204.948 245.819 226.389 258.102 241.115C275.425 261.882 288.731 274.346 302.064 282.294C308.854 286.341 313.741 289.988 315.01 291.955C316.132 293.692 319.461 298.979 322.41 303.703C325.358 308.427 327.926 312.292 328.115 312.292C328.537 312.292 320.549 295.141 320.549 292.721C320.549 292.701 332.549 297.292 332.549 295.476C332.549 295.027 329.215 292.331 325.139 289.486C318.558 284.891 317.177 283.333 312.791 275.552C297.904 249.147 292.516 247.409 269.694 220.945C266.907 217.713 250.919 203.061 251.178 202.803C252.781 201.2 296.578 234.551 311.549 249.779C318.424 256.772 328.499 266.061 333.937 270.421C343.604 278.171 347.389 280.007 342.413 274.532C326.908 257.47 300.809 229.57 296.061 224.981C290.962 220.052 276.722 209.974 259.909 199.396C251.269 193.96 228.036 188.745 230.678 188.679C233.946 188.597 278.569 200.894 286.505 204.529C313.694 216.98 331.369 226.142 343.049 233.84C345.799 235.653 350.974 238.784 354.549 240.798C369.525 249.238 339.491 225.941 337.913 224.743C317.313 209.098 314.41 207.15 303.874 201.909C290.745 195.377 282.516 192.373 267.627 188.679C260.245 186.847 216.213 180.827 215.678 180.292C213.298 177.912 260.344 181.899 275.049 184.154C278.899 184.745 288.574 186.17 296.549 187.322C304.524 188.473 319.824 191.161 330.549 193.295C351.26 197.417 376.582 199.665 377.919 197.502C378.719 196.207 377.851 195.935 364.549 193.31C352.704 190.972 341.2 187.452 329.549 184.311C308.776 178.711 298.371 176.898 278.049 175.339C264.237 174.278 215.944 171.273 209.178 170.292C202.881 169.379 239.44 169.594 258.049 167.846C281.882 165.608 304.458 166.235 325.549 169.72C343.63 172.708 365.776 174.599 371.661 173.658C378.137 172.622 350.392 167.372 345.549 166.262C300.442 155.918 268.418 157.622 223.549 161.792C214.305 162.651 216.646 161.235 227.178 156.792C247.429 148.249 271.144 143.14 303.549 141.348C314.274 140.755 331.149 139.821 341.049 139.273C350.949 138.725 361.24 137.703 363.918 137.003C368.733 135.742 368.607 135.714 352.418 134.407C328.883 132.506 294.286 131.481 285.549 132.425C272.043 133.885 246.921 142.845 234.178 147.673C249.908 140.386 279.115 128.63 295.549 123.037L315.419 118.53L336.049 116.194C361.807 115.2 375.893 114.302 375.283 113.692C374.774 113.184 362.68 111.636 348.118 110.216C332.146 108.658 319.081 108.987 305.871 111.281C299.502 112.387 266.157 126.137 265.678 126.137C263.505 126.137 293.224 111.18 302.299 103.814C320.381 89.1369 346.761 65.2919 344.916 65.2919C339.349 65.2919 328.008 76.0833 323.667 79.2009C312.458 87.2529 294.654 98.6769 282.229 105.792C277.426 108.542 266.597 115.292 258.163 120.792C249.729 126.292 240.404 132.104 237.439 133.707C235.814 134.586 209.119 157.531 207.178 156.332C205.969 155.584 231.398 132.761 245.579 120.812C267.633 102.227 291.414 79.7119 306.317 63.3049C316.797 51.7659 324.102 42.5109 323.334 41.7439C323.062 41.4709 317.936 45.8209 311.944 51.4099C289.769 72.0976 266.231 91.1668 241.925 109.262C233.379 115.622 208.946 151.792 198.419 151.792C197.055 151.792 202.995 144.734 206.049 141.589C213.392 134.028 219.798 124.87 226.549 116.746C234.22 107.512 260.68 77.1709 267.959 69.2599C276.708 59.7545 285.246 50.0536 293.858 40.4249C295.431 38.6665 313.393 18.609 306.948 22.7119C291.311 32.6629 261.952 59.7119 243.761 80.9269C232.568 93.9805 218.419 118.395 205.021 131.381C197.107 139.052 209.991 115.642 211.068 113.792C214.27 108.292 218.762 100.867 221.05 97.2919C229.766 83.6729 235.164 74.4229 240.6 63.7919C243.693 57.7419 251.047 43.4179 256.943 31.9599C262.838 20.5029 267.501 10.6489 267.306 10.0619C266.705 8.25893 250.906 28.0169 241.133 42.7919C226.756 64.5318 215.222 88.0347 201.015 109.703C199.004 112.773 184.311 154.776 187.019 135.874C187.81 130.344 195.486 97.1889 198.623 85.7529C202.517 71.5674 206.707 57.6279 211.159 43.5429C219.789 16.2339 222.736 6.14593 222.23 5.63993C220.14 3.54993 206.813 31.3069 197.049 58.0829C194.884 64.0199 189.567 87.5159 188.919 87.2919C187.443 86.7809 190.931 64.1199 192.942 56.9279C197.558 40.4309 203.267 -0.888071 200.713 0.689929C198.994 1.75293 191.336 26.2989 187.101 44.3209C185.792 49.8916 180.048 138.792 178.178 138.792C177.542 138.792 176.524 95.8299 176.482 81.0419C176.445 68.702 176.016 56.5711 175.132 44.2919C173.882 26.9589 170.782 2.63793 169.528 0.331929C168.999 -0.641071 168.475 0.524929 167.956 3.83193ZM269.694 231.042C291.159 253.083 307.321 273.292 303.484 273.292C298.956 273.292 233.757 208.229 226.549 195.621C221.383 186.584 247.678 209.792 269.694 231.042Z" fill="#AABCA4"/>
</svg>
