<svg width="156" height="131" viewBox="0 0 156 131" fill="none" xmlns="http://www.w3.org/2000/svg">
<path d="M68.9629 71.458C68.2678 70.9833 67.5716 70.5078 66.9046 70.0031C67.2934 69.1143 67.6822 68.2256 68.1821 67.448C69.256 67.3739 70.3299 67.2937 71.4038 67.2135C73.5515 67.053 75.6992 66.8925 77.8469 66.7814C81.1875 66.6321 84.5248 66.486 87.8604 66.34C98.1683 65.8889 108.46 65.4385 118.783 64.8929C121.283 64.7818 124.005 64.5041 126.226 63.4488C127.615 62.7822 128.781 60.616 129.004 59.0052C129.281 56.7278 127.837 54.506 125.504 54.0617C121.949 53.3951 118.228 53.0619 114.562 53.1175C106.291 53.2129 98.0388 53.3812 89.7941 53.5493C83.6426 53.6748 77.4954 53.8001 71.3482 53.8951C70.9397 53.8951 70.5151 53.9345 70.0842 53.9745C68.4053 54.1302 66.6311 54.2948 65.3493 52.1732C65.4185 52.0152 65.4876 51.8554 65.5574 51.6942C65.8799 50.9487 66.2159 50.1724 66.6269 49.396C66.8344 48.981 67.0993 48.5851 67.3621 48.1924C67.7324 47.6392 68.0983 47.0924 68.2932 46.5076C68.9042 44.7857 69.4597 43.0083 69.6818 41.2309C70.0151 38.4536 66.9601 36.2319 64.5717 37.4539C63.2942 38.1204 61.9611 38.898 60.9058 39.8423C52.5741 47.2852 43.4647 53.4507 33.189 57.8943C29.6341 59.394 26.1903 61.4491 26.3014 65.6705C26.4125 70.5585 30.4117 72.3359 34.522 73.2802C43.5758 75.3353 52.0742 78.8902 60.4059 82.8339C62.4055 83.7781 64.5162 84.5002 66.6824 84.9446C69.293 85.5 71.8481 85.1112 73.681 82.8339C75.3474 80.6676 75.2919 77.1128 73.0145 74.6688C71.8515 73.4307 70.4096 72.446 68.9629 71.458Z" fill="black"/>
<path fill-rule="evenodd" clip-rule="evenodd" d="M92.3693 1.0443C90.4442 0.860048 88.6732 0.690539 87.1229 0.516521C63.072 1.07197 42.7427 6.07096 23.0798 14.236C21.9172 14.7011 20.8324 15.3219 19.7603 15.9355C19.5519 16.0547 19.3441 16.1737 19.1362 16.2912C11.0267 20.8458 5.58326 27.4557 2.75049 36.3984C-0.748818 47.3407 -1.08211 58.1163 2.69493 69.0586C5.80545 77.8347 9.9713 86.0553 15.6369 93.4428C17.7228 96.1725 19.8565 98.8664 21.9882 101.558C24.4542 104.671 26.9175 107.781 29.3009 110.939C33.9111 117.049 39.8543 121.215 46.9085 123.937C55.1847 127.158 63.7386 129.547 72.6257 130.491C76.6249 130.935 80.7908 131.047 84.79 130.491C88.436 129.976 92.0088 129.118 95.5892 128.259C97.4088 127.822 99.2304 127.385 101.065 126.992C111.563 124.77 120.394 119.66 127.393 111.55C132.003 106.274 136.335 100.72 140.668 95.1652L140.668 95.1646C146.667 87.4995 150.444 78.6679 153.221 69.3919C156.665 57.7831 155.443 46.7852 149.555 36.1762C145 27.9556 139.335 20.7348 132.392 14.5138C125.56 8.40384 117.672 4.51575 108.73 3.01603C103.009 2.06261 97.2036 1.50696 92.3693 1.0443ZM73.6285 118.724L72.8479 118.605C72.67 117.741 72.5067 116.949 72.3519 116.2C71.8299 113.671 71.4052 111.613 70.8483 108.829C70.1993 109.455 69.5889 110.044 69.0052 110.608C66.7913 112.747 64.9597 114.516 62.8499 116.494C52.2408 114.827 42.9093 110.495 36.4106 100.941C34.3687 97.9465 32.0975 95.1186 29.8268 92.2914C28.3914 90.5042 26.9562 88.7172 25.5793 86.8885C19.6916 79.1678 15.5813 70.5584 13.1374 61.1158C10.7489 51.9509 13.0263 43.5081 17.0255 35.3986C19.6361 30.1218 24.5796 27.1224 29.8008 25.2894C39.1878 21.9568 48.6304 18.6796 58.2952 16.4023C74.2921 12.6253 90.4555 12.2919 106.73 15.1247C114.673 16.5134 121.561 19.8461 127.115 25.5116C147.278 46.0632 149.055 59.9493 136.113 84.1113C131.614 92.4985 125.282 99.9971 119.006 107.218C113.34 113.717 106.23 117.882 96.8988 118.16C95.0961 118.208 93.2935 118.714 91.4639 119.227C89.0652 119.9 86.6202 120.586 84.0679 120.271C80.6939 119.804 77.3199 119.288 73.6285 118.724Z" fill="black"/>
</svg>
