<svg width="70" height="69" viewBox="0 0 70 69" fill="none" xmlns="http://www.w3.org/2000/svg">
<rect x="4" y="4" width="62" height="59" fill="#2E2E2E"/>
<path d="M62.2222 0C64.285 0 66.2633 0.797005 67.7219 2.21568C69.1806 3.63436 70 5.5585 70 7.56481V60.5185C70 62.5248 69.1806 64.449 67.7219 65.8676C66.2633 67.2863 64.285 68.0833 62.2222 68.0833H7.77778C5.71498 68.0833 3.73667 67.2863 2.27806 65.8676C0.819442 64.449 0 62.5248 0 60.5185V7.56481C0 5.5585 0.819442 3.63436 2.27806 2.21568C3.73667 0.797005 5.71498 0 7.77778 0H62.2222ZM60.2778 58.6273V38.5806C60.2778 35.3103 58.9421 32.1739 56.5645 29.8615C54.187 27.549 50.9624 26.2499 47.6 26.2499C44.2944 26.2499 40.4444 28.2168 38.5778 31.167V26.9686H27.7278V58.6273H38.5778V39.98C38.5778 37.0676 40.9889 34.6847 43.9833 34.6847C45.4273 34.6847 46.8121 35.2426 47.8331 36.2357C48.8542 37.2287 49.4278 38.5756 49.4278 39.98V58.6273H60.2778ZM15.0889 21.0302C16.8216 21.0302 18.4834 20.3607 19.7087 19.169C20.9339 17.9773 21.6222 16.361 21.6222 14.6757C21.6222 11.1581 18.7056 8.28347 15.0889 8.28347C13.3458 8.28347 11.6742 8.95694 10.4416 10.1557C9.20909 11.3545 8.51667 12.9804 8.51667 14.6757C8.51667 18.1934 11.4722 21.0302 15.0889 21.0302ZM20.4944 58.6273V26.9686H9.72222V58.6273H20.4944Z" fill="white"/>
</svg>
