<svg width="156" height="131" viewBox="0 0 156 131" fill="none" xmlns="http://www.w3.org/2000/svg">
<path d="M86.1645 59.4092C86.8596 59.8839 87.5559 60.3594 88.2229 60.8641C87.834 61.7529 87.4452 62.6416 86.9453 63.4192C85.8714 63.4932 84.7976 63.5735 83.7237 63.6537C81.576 63.8142 79.4283 63.9747 77.2805 64.0857C73.94 64.2351 70.6027 64.3812 67.2671 64.5271C56.9592 64.9783 46.6675 65.4287 36.3441 65.9743C33.8446 66.0854 31.1229 66.3631 28.9011 67.4184C27.5125 68.085 26.3461 70.2512 26.1239 71.862C25.8461 74.1394 27.2903 76.3611 29.6232 76.8055C33.178 77.472 36.8995 77.8053 40.5655 77.7497C48.8362 77.6543 57.0886 77.486 65.3333 77.3179C71.4849 77.1924 77.6321 77.067 83.7793 76.9721C84.1877 76.9721 84.6124 76.9327 85.0433 76.8927C86.7221 76.737 88.4963 76.5724 89.7781 78.694C89.709 78.852 89.6399 79.0118 89.5701 79.173C89.2475 79.9185 88.9116 80.6948 88.5006 81.4712C88.2931 81.8862 88.0281 82.2821 87.7653 82.6748C87.3951 83.228 87.0291 83.7748 86.8342 84.3596C86.2232 86.0815 85.6678 87.8589 85.4456 89.6363C85.1123 92.4135 88.1673 94.6353 90.5557 93.4133C91.8332 92.7468 93.1663 91.9692 94.2217 91.0249C102.553 83.582 111.663 77.4165 121.938 72.9729C125.493 71.4732 128.937 69.4181 128.826 65.1966C128.715 60.3087 124.716 58.5312 120.605 57.587C111.552 55.5318 103.053 51.977 94.7216 48.0333C92.722 47.0891 90.6113 46.367 88.445 45.9226C85.8344 45.3671 83.2794 45.756 81.4464 48.0333C79.7801 50.1996 79.8356 53.7544 82.1129 56.1984C83.276 57.4365 84.7178 58.4212 86.1645 59.4092Z" fill="black"/>
<path fill-rule="evenodd" clip-rule="evenodd" d="M62.7582 129.823C64.6833 130.007 66.4543 130.177 68.0046 130.351C92.0554 129.795 112.385 124.796 132.048 116.631C133.21 116.166 134.295 115.545 135.367 114.932C135.575 114.812 135.783 114.694 135.991 114.576C144.101 110.021 149.544 103.412 152.377 94.4688C155.876 83.5265 156.21 72.7509 152.433 61.8086C149.322 53.0325 145.156 44.8119 139.491 37.4244C137.405 34.6947 135.271 32.0008 133.139 29.3094C130.673 26.1959 128.21 23.0858 125.827 19.9278C121.216 13.8179 115.273 9.65208 108.219 6.93038C99.9427 3.70879 91.3889 1.32034 82.5017 0.376074C78.5025 -0.0682764 74.3367 -0.179373 70.3375 0.376074C66.6914 0.891687 63.1187 1.74916 59.5382 2.60847C57.7186 3.0452 55.897 3.48239 54.0628 3.87542C43.5649 6.09721 34.7333 11.2074 27.7347 19.3169C23.1246 24.5934 18.7923 30.1477 14.4599 35.7019L14.4595 35.7026C8.46065 43.3677 4.6836 52.1993 1.90637 61.4752C-1.53739 73.0841 -0.315419 84.082 5.57232 94.691C10.127 102.912 15.7926 110.132 22.7356 116.353C29.5676 122.463 37.455 126.351 46.3977 127.851C52.1182 128.805 57.9239 129.36 62.7582 129.823ZM81.4989 12.1434L82.2795 12.2627C82.4574 13.1266 82.6208 13.9178 82.7756 14.6677C83.2975 17.1962 83.7223 19.2539 84.2792 22.0385C84.9282 21.4127 85.5385 20.8231 86.1222 20.2592C88.3362 18.1206 90.1677 16.3513 92.2776 14.3734C102.887 16.0397 112.218 20.3722 118.717 29.9259C120.759 32.9206 123.03 35.7486 125.301 38.5758C126.736 40.363 128.171 42.15 129.548 43.9787C135.436 51.6994 139.546 60.3088 141.99 69.7514C144.379 78.9163 142.101 87.3591 138.102 95.4686C135.491 100.745 130.548 103.745 125.327 105.578C115.94 108.91 106.497 112.188 96.8323 114.465C80.8354 118.242 64.6719 118.575 48.3973 115.742C40.4544 114.354 33.5669 111.021 28.0124 105.356C7.84966 84.804 6.07222 70.9178 19.0141 46.7559C23.5133 38.3687 29.8454 30.8701 36.1219 23.6493C41.7875 17.1506 48.8972 12.9848 58.2287 12.707C60.0313 12.659 61.8339 12.1533 63.6636 11.64C66.0622 10.9671 68.5072 10.2812 71.0595 10.5963C74.4335 11.0635 77.8075 11.5792 81.4989 12.1434Z" fill="black"/>
</svg>
