<svg width="100" height="100" viewBox="0 0 100 100" fill="none" xmlns="http://www.w3.org/2000/svg">
<path d="M45.6699 7.5C47.5944 4.16667 52.4056 4.16667 54.3301 7.5L88.9711 67.5C90.8956 70.8333 88.49 75 84.641 75H15.359C11.51 75 9.10436 70.8333 11.0289 67.5L45.6699 7.5Z" fill="#D9D9D9"/>
<path d="M39.2842 49.5544C38.8986 49.9499 38.9066 50.583 39.302 50.9685L45.7458 57.2516C46.1413 57.6372 46.7744 57.6292 47.1599 57.2338C47.5455 56.8384 47.5375 56.2052 47.1421 55.8197L41.4142 50.2347L46.9992 44.5069C47.3848 44.1114 47.3768 43.4783 46.9813 43.0928C46.5859 42.7072 45.9528 42.7152 45.5672 43.1106L39.2842 49.5544ZM59.9859 49.0001L39.9875 49.2526L40.0128 51.2525L60.0112 50.9999L59.9859 49.0001Z" fill="black"/>
</svg>
