<svg width="156" height="131" viewBox="0 0 156 131" fill="none" xmlns="http://www.w3.org/2000/svg">
<path d="M86.1567 59.9258C86.8518 60.4005 87.5481 60.876 88.215 61.3807C87.8262 62.2695 87.4374 63.1582 86.9375 63.9358C85.8636 64.0098 84.7897 64.0901 83.7159 64.1703C81.5682 64.3308 79.4204 64.4913 77.2727 64.6023C73.9322 64.7517 70.5949 64.8978 67.2593 65.0437C56.9514 65.4949 46.6597 65.9453 36.3363 66.4909C33.8368 66.602 31.1151 66.8797 28.8933 67.935C27.5047 68.6016 26.3382 70.7678 26.116 72.3786C25.8383 74.656 27.2825 76.8777 29.6154 77.3221C33.1702 77.9886 36.8917 78.3219 40.5577 78.2663C48.8284 78.1709 57.0808 78.0026 65.3255 77.8345C71.4771 77.709 77.6243 77.5836 83.7715 77.4887C84.1799 77.4887 84.6045 77.4493 85.0355 77.4093C86.7143 77.2536 88.4885 77.089 89.7703 79.2106C89.7012 79.3686 89.632 79.5284 89.5623 79.6896C89.2397 80.4351 88.9038 81.2114 88.4928 81.9878C88.2853 82.4028 88.0203 82.7987 87.7575 83.1914C87.3873 83.7446 87.0213 84.2914 86.8264 84.8762C86.2154 86.5981 85.66 88.3755 85.4378 90.1529C85.1045 92.9301 88.1595 95.1519 90.5479 93.9299C91.8254 93.2634 93.1585 92.4858 94.2139 91.5415C102.546 84.0986 111.655 77.9331 121.931 73.4895C125.486 71.9898 128.929 69.9347 128.818 65.7132C128.707 60.8253 124.708 59.0478 120.598 58.1036C111.544 56.0485 103.045 52.4936 94.7137 48.5499C92.7142 47.6057 90.6035 46.8836 88.4372 46.4392C85.8266 45.8837 83.2716 46.2726 81.4386 48.5499C79.7722 50.7162 79.8278 54.271 82.1051 56.715C83.2682 57.9531 84.71 58.9378 86.1567 59.9258Z" fill="black"/>
<path fill-rule="evenodd" clip-rule="evenodd" d="M62.7504 130.339C64.6754 130.524 66.4465 130.693 67.9968 130.867C92.0476 130.312 112.377 125.313 132.04 117.148C133.202 116.683 134.287 116.062 135.359 115.448C135.568 115.329 135.776 115.21 135.983 115.093C144.093 110.538 149.536 103.928 152.369 94.9854C155.868 84.0431 156.202 73.2675 152.425 62.3252C149.314 53.5491 145.148 45.3285 139.483 37.941C137.397 35.2113 135.263 32.5174 133.131 29.826C130.665 26.7125 128.202 23.6024 125.819 20.4445C121.209 14.3345 115.265 10.1687 108.211 7.44698C99.9349 4.22539 91.3811 1.83694 82.4939 0.892676C78.4947 0.448325 74.3288 0.337229 70.3296 0.892676C66.6836 1.40829 63.1109 2.26577 59.5304 3.12508C57.7108 3.5618 55.8892 3.999 54.055 4.39202C43.5571 6.61381 34.7255 11.724 27.7269 19.8335C23.1168 25.11 18.7845 30.6643 14.4521 36.2185L14.4517 36.2192C8.45284 43.8843 4.67579 52.7159 1.89856 61.9918C-1.5452 73.6007 -0.323232 84.5986 5.56451 95.2076C10.1192 103.428 15.7847 110.649 22.7278 116.87C29.5598 122.98 37.4472 126.868 46.3899 128.368C52.1104 129.321 57.9161 129.877 62.7504 130.339ZM81.4911 12.66L82.2717 12.7793C82.4496 13.6432 82.6129 14.4344 82.7677 15.1843C83.2897 17.7128 83.7144 19.7705 84.2714 22.5551C84.9204 21.9293 85.5307 21.3397 86.1144 20.7758C88.3283 18.6372 90.1599 16.8679 92.2698 14.89C102.879 16.5563 112.21 20.8888 118.709 30.4425C120.751 33.4372 123.022 36.2652 125.293 39.0924C126.728 40.8796 128.163 42.6666 129.54 44.4953C135.428 52.216 139.538 60.8254 141.982 70.268C144.371 79.4329 142.093 87.8757 138.094 95.9852C135.484 101.262 130.54 104.261 125.319 106.094C115.932 109.427 106.489 112.704 96.8244 114.981C80.8276 118.759 64.6641 119.092 48.3895 116.259C40.4466 114.87 33.5591 111.538 28.0046 105.872C7.84184 85.3206 6.06441 71.4344 19.0063 47.2725C23.5055 38.8853 29.8376 31.3867 36.1141 24.1659C41.7797 17.6672 48.8894 13.5014 58.2209 13.2236C60.0235 13.1756 61.8261 12.6699 63.6558 12.1566C66.0544 11.4837 68.4994 10.7978 71.0517 11.1129C74.4257 11.5801 77.7997 12.0958 81.4911 12.66Z" fill="black"/>
</svg>
