<svg width="1192" height="320" viewBox="0 0 1192 320" fill="none" xmlns="http://www.w3.org/2000/svg">
<path d="M256.866 81.9307L190.745 268.259H157.232L90.9819 81.9307H128.118L174.053 228.017L219.729 81.9307H256.866ZM406.316 81.9307V108.457H331.138V150.639H384.319V177.165H331.138V241.474H409.034V268H295.037V81.9307H406.316ZM499.61 81.9307C509.789 81.9307 519.192 82.4914 527.818 83.6128C536.444 84.6479 544.38 86.5026 551.626 89.1768C560.167 92.3685 567.326 96.6385 573.106 101.987C578.886 107.249 583.501 113.503 586.951 120.749C590.402 127.995 592.86 136.147 594.327 145.205C595.793 154.176 596.526 163.924 596.526 174.448C596.526 184.972 595.75 194.763 594.197 203.82C592.731 212.878 590.229 221.073 586.692 228.405C583.156 235.651 578.497 241.992 572.718 247.426C567.024 252.775 559.994 257.088 551.626 260.366C544.38 263.126 536.444 265.11 527.818 266.318C519.192 267.439 509.789 268 499.61 268H449.146V81.9307H499.61ZM490.552 241.733C504.786 241.733 516.388 240.698 525.359 238.627C534.331 236.557 541.361 232.977 546.451 227.888C551.54 222.798 555.034 216.027 556.932 207.573C558.829 199.033 559.778 188.293 559.778 175.354C559.778 162.414 558.829 151.631 556.932 143.005C555.12 134.379 551.842 127.521 547.098 122.431C542.353 117.255 535.927 113.589 527.818 111.433C519.709 109.276 509.444 108.198 497.022 108.198H485.376V241.733H490.552ZM721.91 81.9307L792.171 268H755.682L734.461 210.808H673.128L651.907 268H615.418L685.679 81.9307H721.91ZM703.794 120.361L682.703 184.799H724.886L703.794 120.361ZM820.896 235.781C828.056 238.541 835.691 240.87 843.799 242.768C851.994 244.58 860.879 245.485 870.455 245.485C876.666 245.485 882.359 244.925 887.535 243.803C892.71 242.682 897.153 240.913 900.862 238.498C904.658 236.083 907.591 233.02 909.661 229.311C911.818 225.515 912.896 220.987 912.896 215.725C912.896 210.031 911.731 205.502 909.402 202.138C907.16 198.774 903.968 196.014 899.827 193.857C895.687 191.7 890.683 189.889 884.817 188.422C878.951 186.956 872.439 185.317 865.279 183.505C857.256 181.435 849.924 179.063 843.282 176.389C836.726 173.715 831.119 170.264 826.46 166.037C821.802 161.81 818.179 156.591 815.591 150.38C813.003 144.169 811.709 136.492 811.709 127.348C811.709 121.223 812.701 115.746 814.686 110.915C816.756 106.084 819.516 101.901 822.967 98.3638C826.417 94.7407 830.385 91.6784 834.871 89.1768C839.443 86.6751 844.188 84.6479 849.104 83.0952C854.108 81.5425 859.197 80.4211 864.373 79.731C869.549 79.0409 874.466 78.6958 879.124 78.6958C882.402 78.6958 886.327 78.8683 890.899 79.2134C895.557 79.5584 900.474 80.2054 905.65 81.1543C910.912 82.0169 916.303 83.1815 921.824 84.6479C927.431 86.1144 932.823 87.9691 937.999 90.2119L928.812 112.727C921.91 110.225 914.708 108.198 907.203 106.645C899.784 105.092 891.977 104.316 883.782 104.316C878.606 104.316 873.862 104.747 869.549 105.61C865.236 106.386 861.483 107.68 858.292 109.492C855.186 111.303 852.771 113.675 851.045 116.608C849.32 119.541 848.458 123.078 848.458 127.219C848.458 132.567 849.493 136.751 851.563 139.77C853.72 142.789 856.782 145.248 860.75 147.146C864.718 149.043 869.549 150.682 875.242 152.062C881.022 153.356 887.535 154.952 894.781 156.85C902.717 158.92 910.006 161.379 916.648 164.226C923.377 166.986 929.157 170.609 933.987 175.095C938.904 179.494 942.743 184.972 945.503 191.528C948.264 198.084 949.644 206.149 949.644 215.725C949.644 224.178 948.307 231.424 945.633 237.463C942.959 243.501 939.465 248.591 935.152 252.731C930.839 256.786 925.922 260.021 920.401 262.436C914.88 264.851 909.273 266.706 903.58 268C897.886 269.294 892.365 270.113 887.017 270.458C881.669 270.89 876.967 271.105 872.913 271.105C868.945 271.019 864.459 270.76 859.456 270.329C854.539 269.898 849.363 269.208 843.929 268.259C838.494 267.31 832.973 266.059 827.366 264.506C821.845 262.867 816.497 260.883 811.321 258.554L820.896 235.781ZM977.076 86.7183C980.526 84.2166 984.236 82.3188 988.204 81.0249C992.258 79.6447 996.183 78.9546 999.979 78.9546C1002.57 78.9546 1005.02 79.3428 1007.35 80.1191C1009.77 80.8092 1011.88 81.9307 1013.69 83.4834C1015.51 84.9499 1016.93 86.8045 1017.96 89.0474C1019.09 91.2902 1019.65 93.9212 1019.65 96.9404C1019.65 100.563 1019.13 104.014 1018.09 107.292C1017.06 110.484 1015.46 114.021 1013.31 117.902C1011.15 121.698 1008.48 126.011 1005.28 130.842C1002.09 135.673 998.34 141.452 994.026 148.181H971.771L985.357 110.786L977.076 86.7183ZM1050.18 235.781C1057.34 238.541 1064.98 240.87 1073.09 242.768C1081.28 244.58 1090.17 245.485 1099.74 245.485C1105.95 245.485 1111.65 244.925 1116.82 243.803C1122 242.682 1126.44 240.913 1130.15 238.498C1133.94 236.083 1136.88 233.02 1138.95 229.311C1141.1 225.515 1142.18 220.987 1142.18 215.725C1142.18 210.031 1141.02 205.502 1138.69 202.138C1136.45 198.774 1133.25 196.014 1129.11 193.857C1124.97 191.7 1119.97 189.889 1114.1 188.422C1108.24 186.956 1101.73 185.317 1094.57 183.505C1086.54 181.435 1079.21 179.063 1072.57 176.389C1066.01 173.715 1060.41 170.264 1055.75 166.037C1051.09 161.81 1047.47 156.591 1044.88 150.38C1042.29 144.169 1041 136.492 1041 127.348C1041 121.223 1041.99 115.746 1043.97 110.915C1046.04 106.084 1048.8 101.901 1052.25 98.3638C1055.7 94.7407 1059.67 91.6784 1064.16 89.1768C1068.73 86.6751 1073.47 84.6479 1078.39 83.0952C1083.39 81.5425 1088.48 80.4211 1093.66 79.731C1098.84 79.0409 1103.75 78.6958 1108.41 78.6958C1111.69 78.6958 1115.61 78.8683 1120.19 79.2134C1124.84 79.5584 1129.76 80.2054 1134.94 81.1543C1140.2 82.0169 1145.59 83.1815 1151.11 84.6479C1156.72 86.1144 1162.11 87.9691 1167.29 90.2119L1158.1 112.727C1151.2 110.225 1143.99 108.198 1136.49 106.645C1129.07 105.092 1121.26 104.316 1113.07 104.316C1107.89 104.316 1103.15 104.747 1098.84 105.61C1094.52 106.386 1090.77 107.68 1087.58 109.492C1084.47 111.303 1082.06 113.675 1080.33 116.608C1078.61 119.541 1077.74 123.078 1077.74 127.219C1077.74 132.567 1078.78 136.751 1080.85 139.77C1083.01 142.789 1086.07 145.248 1090.04 147.146C1094.01 149.043 1098.84 150.682 1104.53 152.062C1110.31 153.356 1116.82 154.952 1124.07 156.85C1132 158.92 1139.29 161.379 1145.94 164.226C1152.66 166.986 1158.44 170.609 1163.27 175.095C1168.19 179.494 1172.03 184.972 1174.79 191.528C1177.55 198.084 1178.93 206.149 1178.93 215.725C1178.93 224.178 1177.59 231.424 1174.92 237.463C1172.25 243.501 1168.75 248.591 1164.44 252.731C1160.13 256.786 1155.21 260.021 1149.69 262.436C1144.17 264.851 1138.56 266.706 1132.87 268C1127.17 269.294 1121.65 270.113 1116.3 270.458C1110.96 270.89 1106.25 271.105 1102.2 271.105C1098.23 271.019 1093.75 270.76 1088.74 270.329C1083.83 269.898 1078.65 269.208 1073.22 268.259C1067.78 267.31 1062.26 266.059 1056.65 264.506C1051.13 262.867 1045.78 260.883 1040.61 258.554L1050.18 235.781Z" fill="black"/>
<path d="M987.176 289.005C988.8 286.345 991.096 285.015 994.063 285.015C995.533 285.015 996.771 285.302 997.779 285.876C998.787 286.45 999.599 287.227 1000.21 288.207C1000.84 289.173 1001.29 290.299 1001.56 291.587C1001.84 292.861 1001.98 294.212 1001.98 295.639C1001.98 297.655 1001.71 299.426 1001.16 300.951C1000.63 302.463 999.872 303.73 998.892 304.752C997.912 305.774 996.736 306.543 995.365 307.061C994.007 307.579 992.502 307.838 990.851 307.838C990.249 307.838 989.661 307.81 989.087 307.754C988.527 307.698 987.96 307.628 987.386 307.544V315.754H981.654V292.637C981.654 291.979 981.647 291.363 981.633 290.789C981.633 290.215 981.612 289.67 981.57 289.152C981.528 288.634 981.465 288.13 981.381 287.64C981.311 287.136 981.206 286.632 981.066 286.128C981.962 285.876 982.809 285.666 983.607 285.498C984.405 285.33 985.266 285.169 986.189 285.015C986.287 285.309 986.378 285.589 986.462 285.855C986.546 286.121 986.616 286.408 986.672 286.716C986.742 287.024 986.798 287.36 986.84 287.724C986.882 288.088 986.917 288.515 986.945 289.005H987.176ZM987.323 303.219C988.443 303.499 989.486 303.639 990.452 303.639C991.278 303.639 992.04 303.527 992.74 303.303C993.454 303.079 994.063 302.715 994.567 302.211C995.085 301.707 995.491 301.056 995.785 300.259C996.079 299.461 996.226 298.488 996.226 297.34C996.226 296.15 996.177 295.059 996.079 294.065C995.981 293.071 995.785 292.217 995.491 291.503C995.197 290.775 994.777 290.215 994.231 289.823C993.685 289.418 992.964 289.215 992.068 289.215C991.41 289.215 990.83 289.348 990.326 289.614C989.836 289.879 989.388 290.25 988.982 290.726C988.674 291.062 988.387 291.447 988.121 291.881C987.855 292.301 987.589 292.756 987.323 293.246V303.219ZM1016.65 285.015C1018.49 285.015 1020.08 285.302 1021.42 285.876C1022.76 286.45 1023.87 287.248 1024.74 288.27C1025.62 289.278 1026.27 290.481 1026.69 291.881C1027.12 293.267 1027.34 294.779 1027.34 296.416C1027.34 298.054 1027.12 299.573 1026.69 300.972C1026.27 302.372 1025.62 303.583 1024.74 304.605C1023.87 305.613 1022.76 306.403 1021.42 306.977C1020.08 307.551 1018.49 307.838 1016.65 307.838C1014.82 307.838 1013.23 307.551 1011.89 306.977C1010.54 306.403 1009.43 305.613 1008.55 304.605C1007.68 303.583 1007.03 302.372 1006.6 300.972C1006.18 299.573 1005.97 298.054 1005.97 296.416C1005.97 294.779 1006.18 293.267 1006.6 291.881C1007.03 290.481 1007.68 289.278 1008.55 288.27C1009.43 287.248 1010.54 286.45 1011.89 285.876C1013.23 285.302 1014.82 285.015 1016.65 285.015ZM1016.65 289.131C1015.65 289.131 1014.82 289.32 1014.18 289.698C1013.53 290.075 1013.03 290.593 1012.67 291.251C1012.3 291.909 1012.05 292.686 1011.91 293.582C1011.78 294.464 1011.72 295.408 1011.72 296.416C1011.72 297.438 1011.78 298.397 1011.91 299.293C1012.05 300.175 1012.3 300.944 1012.67 301.602C1013.03 302.26 1013.53 302.778 1014.18 303.156C1014.82 303.534 1015.65 303.723 1016.65 303.723C1017.66 303.723 1018.49 303.534 1019.13 303.156C1019.78 302.778 1020.28 302.26 1020.64 301.602C1021.01 300.944 1021.25 300.175 1021.38 299.293C1021.52 298.397 1021.59 297.438 1021.59 296.416C1021.59 295.408 1021.52 294.464 1021.38 293.582C1021.25 292.686 1021.01 291.909 1020.64 291.251C1020.28 290.593 1019.78 290.075 1019.13 289.698C1018.49 289.32 1017.66 289.131 1016.65 289.131ZM1038.91 289.236C1039.41 288.494 1039.88 287.885 1040.32 287.409C1040.74 286.947 1041.18 286.569 1041.64 286.275C1042.1 285.967 1042.56 285.722 1043.03 285.54C1043.5 285.344 1043.98 285.211 1044.45 285.141C1044.93 285.057 1045.4 285.015 1045.86 285.015C1046.25 285.015 1046.63 285.043 1046.99 285.099C1047.37 285.141 1047.72 285.197 1048.04 285.267C1048 285.659 1047.95 286.079 1047.88 286.527C1047.81 286.961 1047.73 287.402 1047.65 287.85C1047.56 288.298 1047.46 288.739 1047.35 289.173C1047.25 289.607 1047.15 290.012 1047.04 290.39C1046.24 290.236 1045.55 290.11 1044.96 290.012C1044.37 289.9 1043.84 289.844 1043.38 289.844C1042.95 289.844 1042.55 289.907 1042.19 290.033C1041.84 290.145 1041.49 290.348 1041.14 290.642C1040.79 290.936 1040.42 291.328 1040.04 291.818C1039.68 292.294 1039.27 292.896 1038.81 293.624V307.334H1033.05V293.876C1033.05 293.064 1033.05 292.308 1033.03 291.608C1033.02 290.894 1032.99 290.229 1032.95 289.614C1032.91 288.984 1032.84 288.389 1032.76 287.829C1032.67 287.269 1032.56 286.723 1032.42 286.191C1033.33 285.953 1034.24 285.736 1035.13 285.54C1036.04 285.344 1036.96 285.169 1037.88 285.015C1037.98 285.309 1038.07 285.603 1038.15 285.897C1038.24 286.177 1038.31 286.485 1038.36 286.821C1038.42 287.143 1038.47 287.5 1038.51 287.892C1038.55 288.284 1038.6 288.732 1038.64 289.236H1038.91ZM1060.45 280.501V285.498H1067.8V289.698H1060.45V300.175C1060.45 300.86 1060.48 301.427 1060.54 301.875C1060.61 302.323 1060.73 302.68 1060.89 302.946C1061.06 303.198 1061.29 303.38 1061.59 303.492C1061.88 303.59 1062.26 303.639 1062.72 303.639C1063.17 303.639 1063.69 303.59 1064.27 303.492C1064.88 303.394 1065.58 303.254 1066.39 303.072C1066.48 303.324 1066.57 303.618 1066.67 303.954C1066.78 304.29 1066.88 304.64 1066.98 305.004C1067.09 305.354 1067.2 305.697 1067.3 306.032C1067.4 306.354 1067.49 306.641 1067.57 306.893C1067.18 307.033 1066.72 307.166 1066.18 307.292C1065.67 307.404 1065.12 307.502 1064.55 307.586C1063.97 307.67 1063.39 307.733 1062.8 307.775C1062.22 307.817 1061.66 307.838 1061.15 307.838C1060.66 307.838 1060.17 307.817 1059.7 307.775C1059.22 307.733 1058.77 307.656 1058.33 307.544C1057.91 307.446 1057.52 307.313 1057.16 307.145C1056.79 306.977 1056.48 306.76 1056.21 306.494C1055.6 305.892 1055.19 305.067 1054.99 304.017C1054.8 302.953 1054.7 301.602 1054.7 299.965V289.698H1051.55V285.498H1054.7V280.501H1060.45ZM1075.32 284.7C1075.32 283.231 1075.44 281.964 1075.67 280.9C1075.93 279.836 1076.34 278.969 1076.91 278.297C1077.5 277.611 1078.28 277.107 1079.24 276.785C1080.22 276.449 1081.44 276.281 1082.9 276.281C1084.03 276.281 1085.26 276.372 1086.59 276.554C1087.92 276.736 1089.34 276.981 1090.83 277.289L1089.93 281.278C1088.67 281.04 1087.58 280.851 1086.66 280.711C1085.75 280.557 1084.94 280.48 1084.24 280.48C1083.56 280.48 1083 280.543 1082.58 280.669C1082.16 280.781 1081.84 280.998 1081.62 281.32C1081.39 281.642 1081.25 282.09 1081.18 282.664C1081.11 283.238 1081.07 283.98 1081.07 284.889V285.498H1088.08V289.698H1081.07V303.135H1088.08V307.334H1071.66V303.135H1075.32V289.698H1071.66V285.498H1075.32V284.7ZM1103.62 285.015C1105.45 285.015 1107.04 285.302 1108.39 285.876C1109.73 286.45 1110.84 287.248 1111.7 288.27C1112.59 289.278 1113.24 290.481 1113.66 291.881C1114.09 293.267 1114.31 294.779 1114.31 296.416C1114.31 298.054 1114.09 299.573 1113.66 300.972C1113.24 302.372 1112.59 303.583 1111.7 304.605C1110.84 305.613 1109.73 306.403 1108.39 306.977C1107.04 307.551 1105.45 307.838 1103.62 307.838C1101.79 307.838 1100.2 307.551 1098.85 306.977C1097.51 306.403 1096.4 305.613 1095.52 304.605C1094.65 303.583 1094 302.372 1093.56 300.972C1093.14 299.573 1092.93 298.054 1092.93 296.416C1092.93 294.779 1093.14 293.267 1093.56 291.881C1094 290.481 1094.65 289.278 1095.52 288.27C1096.4 287.248 1097.51 286.45 1098.85 285.876C1100.2 285.302 1101.79 285.015 1103.62 285.015ZM1103.62 289.131C1102.61 289.131 1101.79 289.32 1101.14 289.698C1100.5 290.075 1100 290.593 1099.63 291.251C1099.27 291.909 1099.02 292.686 1098.88 293.582C1098.75 294.464 1098.69 295.408 1098.69 296.416C1098.69 297.438 1098.75 298.397 1098.88 299.293C1099.02 300.175 1099.27 300.944 1099.63 301.602C1100 302.26 1100.5 302.778 1101.14 303.156C1101.79 303.534 1102.61 303.723 1103.62 303.723C1104.63 303.723 1105.45 303.534 1106.1 303.156C1106.74 302.778 1107.25 302.26 1107.61 301.602C1107.97 300.944 1108.22 300.175 1108.34 299.293C1108.48 298.397 1108.55 297.438 1108.55 296.416C1108.55 295.408 1108.48 294.464 1108.34 293.582C1108.22 292.686 1107.97 291.909 1107.61 291.251C1107.25 290.593 1106.74 290.075 1106.1 289.698C1105.45 289.32 1104.63 289.131 1103.62 289.131ZM1124.39 298.768C1124.39 299.93 1124.39 300.902 1124.41 301.686C1124.43 302.47 1124.48 303.156 1124.53 303.744C1124.56 304.052 1124.59 304.325 1124.62 304.563C1124.64 304.787 1124.67 305.011 1124.7 305.235C1124.73 305.445 1124.76 305.662 1124.81 305.885C1124.86 306.095 1124.92 306.333 1124.99 306.599C1124.07 306.879 1123.15 307.124 1122.22 307.334C1121.3 307.53 1120.35 307.698 1119.39 307.838C1119.18 307.208 1119 306.543 1118.84 305.844C1118.7 305.13 1118.63 304.353 1118.63 303.513V277.1H1124.39V298.768ZM1133.81 274.853C1134.29 274.853 1134.74 274.944 1135.16 275.126C1135.59 275.308 1135.96 275.56 1136.27 275.882C1136.59 276.19 1136.84 276.561 1137.03 276.995C1137.21 277.415 1137.3 277.863 1137.3 278.339C1137.3 278.829 1137.21 279.283 1137.03 279.703C1136.84 280.123 1136.59 280.494 1136.27 280.816C1135.96 281.138 1135.59 281.39 1135.16 281.572C1134.74 281.754 1134.29 281.845 1133.81 281.845C1133.32 281.845 1132.87 281.754 1132.45 281.572C1132.03 281.39 1131.66 281.138 1131.34 280.816C1131.01 280.494 1130.76 280.123 1130.58 279.703C1130.4 279.283 1130.31 278.829 1130.31 278.339C1130.31 277.863 1130.4 277.415 1130.58 276.995C1130.76 276.561 1131.01 276.19 1131.34 275.882C1131.66 275.56 1132.03 275.308 1132.45 275.126C1132.87 274.944 1133.32 274.853 1133.81 274.853ZM1136.67 285.498V307.334H1130.92V285.498H1136.67ZM1153.3 285.015C1155.13 285.015 1156.72 285.302 1158.06 285.876C1159.41 286.45 1160.51 287.248 1161.38 288.27C1162.26 289.278 1162.91 290.481 1163.33 291.881C1163.77 293.267 1163.98 294.779 1163.98 296.416C1163.98 298.054 1163.77 299.573 1163.33 300.972C1162.91 302.372 1162.26 303.583 1161.38 304.605C1160.51 305.613 1159.41 306.403 1158.06 306.977C1156.72 307.551 1155.13 307.838 1153.3 307.838C1151.46 307.838 1149.88 307.551 1148.53 306.977C1147.19 306.403 1146.07 305.613 1145.19 304.605C1144.33 303.583 1143.67 302.372 1143.24 300.972C1142.82 299.573 1142.61 298.054 1142.61 296.416C1142.61 294.779 1142.82 293.267 1143.24 291.881C1143.67 290.481 1144.33 289.278 1145.19 288.27C1146.07 287.248 1147.19 286.45 1148.53 285.876C1149.88 285.302 1151.46 285.015 1153.3 285.015ZM1153.3 289.131C1152.29 289.131 1151.46 289.32 1150.82 289.698C1150.18 290.075 1149.67 290.593 1149.31 291.251C1148.94 291.909 1148.69 292.686 1148.55 293.582C1148.43 294.464 1148.36 295.408 1148.36 296.416C1148.36 297.438 1148.43 298.397 1148.55 299.293C1148.69 300.175 1148.94 300.944 1149.31 301.602C1149.67 302.26 1150.18 302.778 1150.82 303.156C1151.46 303.534 1152.29 303.723 1153.3 303.723C1154.31 303.723 1155.13 303.534 1155.77 303.156C1156.42 302.778 1156.92 302.26 1157.29 301.602C1157.65 300.944 1157.9 300.175 1158.02 299.293C1158.16 298.397 1158.23 297.438 1158.23 296.416C1158.23 295.408 1158.16 294.464 1158.02 293.582C1157.9 292.686 1157.65 291.909 1157.29 291.251C1156.92 290.593 1156.42 290.075 1155.77 289.698C1155.13 289.32 1154.31 289.131 1153.3 289.131Z" fill="black"/>
</svg>
