<svg width="86" height="69" viewBox="0 0 86 69" fill="none" xmlns="http://www.w3.org/2000/svg">
<rect x="3" y="5" width="80" height="57" rx="20" fill="#2E2E2E"/>
<path fill-rule="evenodd" clip-rule="evenodd" d="M42.9167 0C46.5861 0 50.3499 0.094417 53.9978 0.248917L58.3066 0.454916L62.4309 0.699542L66.2934 0.961333L69.8212 1.236C73.6496 1.52902 77.252 3.16273 79.9947 5.84971C82.7374 8.53669 84.4447 12.1048 84.8163 15.9264L84.988 17.7503L85.3098 21.6557C85.6103 25.7028 85.8334 30.1146 85.8334 34.3333C85.8334 38.552 85.6103 42.9639 85.3098 47.0109L84.988 50.9163C84.9322 51.5429 84.8764 52.148 84.8163 52.7403C84.4446 56.5625 82.7367 60.1312 79.9931 62.8182C77.2495 65.5053 73.646 67.1386 69.8169 67.4306L66.2977 67.701L62.4352 67.9671L58.3066 68.2117L53.9978 68.4177C50.3062 68.5781 46.6117 68.6611 42.9167 68.6666C39.2217 68.6611 35.5272 68.5781 31.8356 68.4177L27.5268 68.2117L23.4025 67.9671L19.54 67.701L16.0122 67.4306C12.1838 67.1376 8.58142 65.5039 5.8387 62.8169C3.09598 60.13 1.38867 56.5618 1.01713 52.7403L0.845459 50.9163L0.523584 47.0109C0.195432 42.7928 0.0207889 38.5641 0 34.3333C0 30.1146 0.223167 25.7028 0.523584 21.6557L0.845459 17.7503C0.901251 17.1237 0.957043 16.5186 1.01713 15.9264C1.38853 12.1055 3.09522 8.5379 5.83707 5.85101C8.57891 3.16412 12.1803 1.52999 16.0079 1.236L19.5314 0.961333L23.3939 0.699542L27.5225 0.454916L31.8313 0.248917C35.5243 0.0885497 39.2202 0.00555893 42.9167 0ZM34.3334 23.926V44.7406C34.3334 46.7234 36.4792 47.9594 38.1959 46.9723L56.2209 36.565C56.6131 36.3392 56.9389 36.014 57.1654 35.6223C57.392 35.2305 57.5113 34.7859 57.5113 34.3333C57.5113 33.8808 57.392 33.4362 57.1654 33.0444C56.9389 32.6526 56.6131 32.3274 56.2209 32.1017L38.1959 21.6987C37.8043 21.4726 37.3601 21.3536 36.908 21.3537C36.4558 21.3538 36.0117 21.4729 35.6202 21.6991C35.2287 21.9253 34.9036 22.2506 34.6777 22.6423C34.4518 23.0339 34.3331 23.4782 34.3334 23.9303V23.926Z" fill="white"/>
</svg>
