<svg width="3074" height="1944" viewBox="0 0 3074 1944" fill="none" xmlns="http://www.w3.org/2000/svg">
<rect width="3074" height="1944" fill="#272727"/>
<path d="M817.929 576.602C819.079 557.028 820.944 540.512 820.858 524.021C820.684 491.325 827.648 461.354 843.248 433.271C859.397 404.21 866.408 359.133 879.501 326.436C892.499 293.945 922.536 248.304 944.154 221.203C953.223 209.826 958.452 194.889 966.675 182.556C981.068 160.965 999.809 141.713 1016.77 122.566C1031.66 105.756 1045.58 87.6997 1060.66 71.1802C1068.38 62.6956 1076.82 54.8323 1085.63 47.7339C1099.87 36.2683 1118.85 22.8218 1136.83 20.8699C1146.47 19.8421 1155.34 19.5075 1162.54 11.238C1174.14 -1.98231 1217.82 -5.51862 1228.95 11.5248C1245.7 37.1938 1245.05 57.9155 1229.41 83.9908C1213.94 109.779 1199.51 136.404 1186.13 163.555C1182.05 171.849 1179.27 185.066 1182.53 192.546C1195.05 221.347 1275.04 165.083 1287.88 157.102C1295.41 152.418 1302.76 147.184 1310.68 143.455C1351.6 124.205 1347.62 209.766 1330.71 229.783C1324.85 236.714 1320.23 244.984 1315.41 252.895C1301.13 276.412 1277.97 284.633 1262.24 305.595C1246.25 327.01 1229.5 346.967 1204.87 356.503C1183.38 364.747 1164.28 391.549 1145.04 405.093C1118.91 423.471 1091.29 432.982 1064.2 447.731C1054 453.3 1043.85 459.49 1033.04 463.123C993.421 476.384 956.834 500.474 918.662 518.118C900.46 526.505 882.533 538.713 863.859 545.412C844.949 552.222 833.205 563.999 817.929 576.602Z" fill="#F7FDB6"/>
<path fill-rule="evenodd" clip-rule="evenodd" d="M280.291 1130.16C276.883 1133.32 268.612 1144.89 261.913 1155.86C248.394 1178.01 237.707 1188.87 207.751 1210.88C156.287 1248.7 107.83 1300.24 93.595 1332.3C88.4314 1343.93 77.5836 1381.28 72.1379 1406.17C65.1237 1438.23 61.9974 1446.98 40.8636 1493.63C31.3348 1514.66 21.5826 1539.4 19.1939 1548.6C6.94445 1595.75 4.26936 1607.44 1.90453 1624.13C0.487798 1634.11 -0.314939 1650.85 0.116806 1661.32C0.774187 1677.24 2.09329 1682.89 8.1464 1695.75C17.673 1715.97 31.9032 1731.75 51.8893 1744.23C74.0428 1758.06 78.2627 1759.86 94.6039 1762.4C102.388 1763.62 111.052 1758.32 111.733 1759.07C112.416 1759.82 108.155 1774.05 104.384 1782.26C94.7319 1803.25 90.1519 1817.21 80.1198 1856.21C67.7402 1904.33 64.0975 1932.92 69.2177 1941.76C72.5697 1947.56 78.7595 1941.45 80.3606 1930.76C81.1287 1925.64 82.3892 1911.96 83.1594 1900.36C84.8104 1875.52 89.091 1851.72 95.3632 1832.5C97.8474 1824.9 101.698 1812.76 103.922 1805.53C111.65 1780.41 118.04 1764.02 120.411 1763.15C121.724 1762.67 123.589 1781.93 129.05 1794.46C140.89 1821.63 148.52 1830.68 162.357 1833.95C175.809 1837.13 187.136 1834.15 211.353 1821.07C251.705 1799.28 292.38 1757.99 312.598 1718.3C351.529 1641.86 372.188 1579.95 393.556 1475.71C410.086 1395.05 411.739 1334.53 398.847 1282.11C386.084 1230.24 330.577 1149.27 293.397 1128.31C286.739 1124.55 286.27 1124.62 280.291 1130.16ZM328.367 1227.51C340.738 1233.71 338.093 1247.51 322.021 1260.59C309.546 1270.74 287.442 1278.85 279.658 1276.13C273.808 1274.08 274.125 1265.5 280.564 1251.56C286.375 1238.99 293.265 1231.01 301.392 1227.44C308.847 1224.16 321.771 1224.2 328.367 1227.51ZM210.097 1247.23C211.487 1249.08 214.412 1257.41 216.592 1265.75C218.775 1274.09 224.698 1289.8 229.755 1300.66C237.325 1316.91 238.7 1321.86 237.54 1328.66C235.745 1339.2 231.126 1344.25 223.288 1344.25C210.496 1344.25 202.85 1324 199.431 1281.05C197.674 1259 197.86 1253.96 200.601 1249.35C204.365 1243.02 206.558 1242.53 210.097 1247.23ZM381.664 1276.31C381.664 1288 359.235 1316.13 340.41 1328.04C327.863 1335.98 299.342 1346.64 290.651 1346.64C280.881 1346.64 269.5 1340.73 267.779 1334.75C265.649 1327.36 275.342 1312.33 287.878 1303.58C300.13 1295.04 313.175 1290.84 339.184 1287.06C350.685 1285.39 360.81 1282.5 364.134 1279.94C374.39 1272.04 381.664 1270.53 381.664 1276.31ZM149.82 1318.36C155.024 1328.93 163.881 1344.36 169.498 1352.65C186.108 1377.16 185.663 1385.67 167.617 1388.65C148.811 1391.76 144.294 1385.37 133.576 1340.48C126.961 1312.77 126.516 1305.41 131.142 1300.31C136.357 1294.56 139.677 1297.77 149.82 1318.36ZM320.916 1377.68C328.516 1383.02 313.718 1394.93 287.234 1404.81C270.769 1410.94 262.338 1410.04 262.338 1402.15C262.338 1392.3 274.613 1382.31 291.13 1378.73C308.04 1375.06 316.74 1374.75 320.916 1377.68ZM384.767 1418.61C387.741 1421.6 381.988 1432 373.027 1439.82C349.229 1460.58 306.801 1483.57 278.074 1491.26C253.966 1497.71 231.964 1490.65 231.964 1476.45C231.964 1465.73 237.941 1454.83 247.995 1447.21C263.562 1435.41 269.307 1433.69 336.103 1420.85C349.826 1418.22 363.494 1415.67 366.477 1415.2C373.043 1414.16 382.012 1415.83 384.767 1418.61ZM123.602 1437.05C139.195 1447.96 150.857 1464.44 166.022 1496.99C177.816 1522.3 175.29 1531.48 156.463 1531.73C146.463 1531.87 146.37 1531.8 137.034 1516.34C124.75 1496 113.811 1470.93 109.216 1452.61C103.367 1429.28 106.96 1425.4 123.602 1437.05ZM91.2931 1526.64C123.8 1567.59 138.672 1595.14 138.672 1614.42C138.672 1628.91 134.504 1632.14 116.328 1631.77C98.2205 1631.4 90.5403 1625.03 80.9855 1602.46C69.1179 1574.42 66.5686 1562.01 67.4148 1536.37C68.1633 1513.73 70.309 1507.93 76.9132 1510.72C78.3624 1511.34 84.8343 1518.5 91.2931 1526.64ZM286.78 1523.5C301.915 1530.88 302.458 1537.85 288.709 1548.34C275.572 1558.38 254.773 1566.44 230.172 1571.05C193.716 1577.89 189.607 1573.32 211.626 1550.45C227.989 1533.45 236.98 1527.53 254.204 1522.42C269.853 1517.78 275.405 1517.96 286.78 1523.5ZM348.687 1578.96C356.619 1587.69 343.953 1607.43 323.435 1618.31C316.679 1621.89 302.427 1631.23 291.764 1639.06C247.316 1671.69 205.931 1684.03 188.761 1669.77C183.979 1665.8 183.161 1663.3 183.24 1652.89C183.32 1642.28 184.316 1639.55 190.833 1632.08C194.96 1627.35 200.776 1622.07 203.759 1620.35C214.113 1614.37 237.551 1606.97 267.762 1600.12C284.613 1596.31 306.346 1589.5 316.577 1584.84C336.273 1575.87 344.515 1574.36 348.687 1578.96ZM61.2185 1656.48C71.6324 1662.36 88.3555 1678.42 97.8864 1691.7C112.791 1712.47 106.439 1725.73 82.7168 1723.35C68.3434 1721.92 58.9947 1716 51.3947 1703.53C45.2613 1693.47 38.8719 1670.87 38.8719 1659.24C38.8719 1653.19 39.5922 1652.57 46.5739 1652.57C50.8089 1652.57 57.3979 1654.33 61.2185 1656.48ZM292.508 1713.25C300.557 1723.93 215.134 1762.43 181.797 1763.15C143.035 1763.98 149.364 1732.74 189.657 1724.34C262.015 1709.27 287.444 1706.52 292.508 1713.25Z" fill="#21825C"/>
<path d="M2733.66 790.525C2719.41 749.78 2708.62 708.979 2681.03 676.353C2667.62 660.483 2655.67 644.064 2646.03 625.35C2640.72 614.974 2634.94 638.188 2641.91 646.669C2651.33 658.117 2661.61 668.729 2671.18 680.034C2689.06 701.185 2702.94 725.181 2711.08 752.763C2716.36 770.673 2738.47 815.509 2729.91 833.426C2716.96 801.949 2706.82 769.302 2687.19 741.673C2667.73 714.283 2650.18 685.22 2632.02 657.257C2622.84 668.705 2627.37 677.381 2636.03 688.901C2653.86 712.682 2671.11 737.514 2685.15 764.115C2696.62 785.846 2723.08 829.403 2718.39 855.797C2691.01 796.954 2656.29 743.609 2622.17 686.2C2616.68 704.675 2622.77 716.936 2630.54 727.356C2651.48 755.447 2669.94 776.418 2685.13 809.622C2697.71 837.168 2709.65 864.11 2716.91 893.823C2707.19 898.108 2639.23 721.053 2622.17 734.605C2637.59 758.624 2706.87 907.651 2711.94 921.093C2702.28 926.127 2637.59 757.429 2619.5 762.209C2626.01 771.77 2695.06 901.59 2700.84 942.197C2694.77 945.152 2650.24 835.687 2646.62 827.117C2647.58 839.227 2696.85 955.115 2685.54 960.098C2678.12 942.89 2655.3 855.797 2642.6 855.797C2643.99 870.352 2671.87 958.686 2674.91 969.874C2668.3 972.533 2627.09 833.426 2618.41 829.817C2615.22 838.398 2669.4 977.313 2667.12 984.214C2654.52 988.712 2620.47 875.965 2612.84 858.593C2602.36 863.096 2661.61 985.946 2652.63 989.807C2642.43 968.272 2618 907.637 2607.8 886.079C2601.77 889.32 2639.5 987.356 2642.6 996.786C2632.66 1000.93 2627.84 969.714 2624.62 960.29C2618.5 960.771 2621.89 993.458 2621.89 1000.44C2615.03 1001.17 2616.18 991.767 2615.22 985.146C2614.42 979.53 2613.81 973.865 2612.84 966.05C2604.12 977.57 2609.08 993.655 2594.81 1002.38C2598.02 979.625 2600.58 959.381 2603.83 939.281C2605.05 931.8 2607.85 924.606 2599.19 918.034C2590.73 943.488 2600.91 972.431 2585.44 996.116C2585.44 985.653 2590.19 920.397 2582.94 918.297C2578.08 936.485 2573.22 954.673 2568.36 972.861C2553.8 969.594 2586.48 881.041 2591.23 870.352C2593.18 865.979 2594.07 861.007 2593.62 855.678C2581.21 868.847 2575.69 885.195 2571.53 902.546C2568.92 913.438 2563.55 954.188 2552.5 950.491C2561.35 915.333 2574.99 858.593 2587.39 829.817C2571.53 829.817 2547.62 898.961 2535.1 928.359C2528.62 926.541 2532.73 915.227 2534.34 909.167C2545.17 868.584 2567.75 835.721 2591.97 804.029C2599.73 793.847 2601.73 782.638 2600.25 767.748C2573.66 813.47 2534.08 846.165 2517.79 897.408C2520 859.812 2538.42 831.251 2558.62 803.575C2534.84 820.138 2518.29 843.297 2505.9 870.854C2502.97 857.375 2508.66 846.404 2515.23 838.398C2541.59 806.275 2565.82 772.48 2587.39 736.295C2591.49 729.436 2596.85 722.983 2602.79 718.083C2610.15 712.036 2610.19 704.866 2609.5 698.604C2573.7 746.668 2537.32 795.544 2500.93 844.397C2490.88 836.159 2511.25 812.904 2516.49 805.989C2525.9 793.537 2536.45 782.041 2545.26 769.11C2555.24 754.459 2563.83 738.661 2571.72 722.361C2546.34 751.448 2511.52 770.043 2497.03 810.506C2488.88 804.479 2498.29 789.466 2503.51 781.921C2512.17 769.397 2522.45 758.26 2532.04 746.501C2546.9 728.265 2561.77 710.029 2576.56 691.721C2582.23 684.718 2587.74 677.548 2593.31 670.45C2589.88 666.422 2529.47 724.279 2524.25 729.436C2509.74 743.824 2497.03 760.411 2483.81 775.659C2484.79 761.653 2491.82 749.177 2501.28 739.02C2515.94 723.317 2531.52 708.571 2547.21 694.087C2566.47 676.305 2586.09 658.977 2605.92 641.984C2610.3 638.232 2616.09 635.459 2621.56 634.527C2632.06 632.735 2636.05 625.899 2637.59 615.431C2638.09 611.965 2640.26 608.81 2642.6 603.361C2658.46 626.008 2675.69 647.572 2693.96 667.916C2714.99 691.329 2752.15 754.97 2733.66 790.525ZM2634.45 827.117C2626.06 811.329 2621.67 791.933 2604.75 789.019C2607 796.756 2627.46 833.359 2634.45 827.117ZM2597.87 689.116C2603.99 680.058 2618.26 678.863 2617.55 659.001C2612.47 665.095 2591.94 682.433 2597.87 689.116ZM2598.76 736.462C2592.29 748.747 2587.15 758.475 2582.03 768.226C2595.03 761.918 2603.26 752.235 2598.76 736.462Z" fill="#A4D792"/>
<path d="M2744.92 597.823C2729.54 568.688 2702.46 547.417 2698.88 510.443C2685.78 520.361 2689.99 530.065 2698.62 545.05C2708.3 561.852 2720.99 576.527 2732.4 592.134C2743.45 607.239 2746.53 625.212 2746.92 644.452C2736.72 625.953 2726.55 607.454 2716.33 588.979C2706.02 570.361 2695.67 551.79 2685.04 532.622C2680.64 536.327 2678.14 541.155 2682.63 548.588C2690.55 561.709 2698.25 574.974 2705.83 588.358C2718.93 611.494 2732.27 634.486 2744.55 658.147C2750.17 668.969 2743.34 686.094 2740.73 696.866C2735.7 688.821 2713.06 643.981 2706.19 648.013C2722.79 674.877 2736.4 703.032 2738.48 736.373C2737.48 734.915 2730.32 716.034 2729.91 714.409C2719.49 673.013 2695.61 663.262 2673.87 630.208C2668.84 622.559 2658.91 593.469 2647.07 597.225C2632.49 601.862 2618.39 608.697 2603.64 612.306C2558.95 623.229 2524.08 652.172 2491.52 685.155C2481.64 695.183 2478.28 712.135 2467.76 721.053C2476.25 647.785 2568.12 602.025 2626.81 593.473C2643.54 591.035 2647.31 588.477 2651.98 569.692C2615.07 571.628 2580.16 580.925 2546.54 599.257C2512.39 617.875 2492.32 651.097 2469.47 681.904C2468.6 681.211 2467.74 680.518 2466.89 679.801C2468.82 675.547 2470.51 671.149 2472.71 667.062C2484.94 644.309 2495.59 620.695 2515.88 604.084C2553.33 573.42 2593.18 553.87 2641.17 562.689C2650.46 564.386 2660.26 565.605 2662.91 550.882C2581.62 528.248 2520.91 567.612 2468.45 632.072C2461.62 622.591 2477.77 605.519 2485.12 598.587C2518.57 566.919 2553.87 538.263 2597.72 525.882C2618.26 520.098 2637.27 525.834 2655.17 535.897C2684.79 552.529 2665.39 521.987 2637.59 514.625C2603.49 505.591 2573.07 518.879 2545.04 537.617C2533.25 545.497 2486.02 596.034 2474.22 589.386C2497.69 565.673 2521.41 540.066 2548.99 522.273C2567.43 510.371 2588.5 503.081 2608.82 495.099C2620.84 490.39 2633.06 490.247 2644.95 498.875C2655.95 506.834 2668.25 512.618 2681.03 519.955C2709.38 497.334 2619.61 481.316 2603.14 483.507C2558.08 489.497 2523.85 526.561 2489.3 555.782C2472.06 535.426 2579.89 479.143 2590.84 475.046C2607.07 468.975 2625.49 467.589 2642.82 468.163C2670.32 469.084 2684.08 509.879 2702.85 494.644C2706.61 505.424 2709.84 515.247 2713.44 524.878C2716.41 532.813 2725.79 565.782 2733.14 561.805C2721.01 498.875 2704.11 482.575 2658.05 463.478C2632.52 455.089 2610.39 448.254 2587.09 457.336C2577.5 461.08 2507.64 504.753 2503.64 497.967C2527.19 478.84 2551.84 461.837 2578.34 447.919C2614.79 428.751 2649.59 433.555 2681.96 460.037C2686.3 463.592 2718.66 489.03 2721.01 479.683C2714.63 500.596 2724.42 518.019 2731.67 535.634C2742.73 562.67 2744.92 563.967 2744.92 597.823ZM2733.79 656.856C2726.25 643.949 2677.83 551.862 2670.61 556.905C2674.78 571.198 2725.06 663.416 2733.79 656.856ZM2700.03 636.015C2687.49 614.433 2674.97 592.851 2662.43 571.245C2656.65 572.01 2657.69 586.083 2660.89 590.581C2665.45 596.978 2695.77 639.844 2700.03 636.015Z" fill="#A4D792"/>
<path d="M2725.37 479.444C2722.23 475.8 2726.46 473.469 2684.59 452.699C2670.42 445.051 2656.66 436.877 2642.02 430.472C2610.26 416.586 2580.29 426.863 2550.79 440.295C2546.88 442.069 2517.87 451.523 2530.24 444.43C2561.57 426.552 2593.46 410.252 2630.11 413.981C2664.36 417.47 2693.75 436.89 2720.67 459.128C2731.62 468.067 2732.53 467.78 2738.54 455.137C2722.55 443.521 2707.08 431.404 2690.86 420.673C2662.22 401.744 2630.93 399.067 2598.67 404.898C2585.77 407.232 2567.22 416.816 2554.22 411.591C2587.13 399.999 2620 386.758 2655.27 392.04C2682.25 396.071 2744.33 449.49 2756.85 437.475C2740.65 424.64 2728.56 413.526 2715.18 404.922C2701.33 396.031 2686.82 387.14 2671.52 382.528C2635.13 371.523 2603.32 378.409 2567.8 387.236C2564.98 377.939 2594.67 370.152 2602.21 368.785C2621.69 365.272 2641.65 363.861 2661.41 363.861C2677.12 363.861 2691.83 369.98 2704.48 381.118C2718.58 393.546 2733.42 404.97 2746.92 418.139C2755.38 426.409 2763.19 430.376 2774.38 423.517C2765.03 400.855 2726.2 381.845 2707.74 367.757C2684.37 349.927 2657.7 352.27 2631.32 353.608C2621.75 354.086 2612.21 355.09 2602.66 355.855C2601.39 347.01 2626.77 346.485 2633.75 345.888C2653.5 344.215 2673.48 341.443 2693.05 343.235C2721.73 345.864 2742.14 366.395 2760.78 388.766C2764.66 393.426 2768.16 398.565 2772.39 402.771C2781.44 411.758 2791 410.873 2801.59 399.497C2795.65 396.701 2789.61 395.171 2785.06 391.466C2774.38 382.767 2764.19 373.326 2754.25 363.622C2723.07 333.149 2688.1 317.973 2645.99 329.397C2636.62 331.93 2626.96 333.221 2616.18 332.528C2637.69 317.058 2671.57 313.229 2696.78 310.253C2723.03 307.17 2742.21 324.497 2759.05 345.1C2769.61 358.03 2780.59 370.721 2792.63 381.882C2798.71 387.499 2807.56 389.435 2815.58 393.211C2800.57 415.343 2808.08 443.856 2804.54 470.457C2802.31 487.403 2799.51 504.252 2795.17 520.839C2793.28 484.511 2785.19 448.325 2799.94 412.642C2791.87 410.316 2785.25 416.49 2784.6 426.958C2783.45 445.935 2783.93 465.032 2783.91 484.08C2783.89 500.715 2784.34 517.374 2783.82 533.984C2783.69 537.904 2780.5 541.704 2778.7 545.552C2773.45 543.665 2776.52 539.039 2776.05 533.554C2773.58 503.708 2769.62 474.436 2771.76 444.454C2772.08 439.912 2773.84 435.491 2775.21 429.946C2753.23 442.47 2756.18 462.785 2759.02 482.312C2761.3 497.99 2765.9 513.239 2768.18 528.894C2769.35 536.996 2767.72 545.6 2764.82 554.013C2759.78 520.552 2741.36 490.462 2749.02 454.826C2741.06 453.949 2738.16 466.329 2739.54 474.711C2744.86 506.752 2752.07 538.365 2758.11 570.241C2755.63 571.111 2747.59 551.638 2748.72 554.754C2742.57 531.072 2737.74 499.305 2725.37 479.444Z" fill="#A4D792"/>
<path d="M3067.69 229.374C3037.64 246.248 3007.16 262.261 2977.59 280.067C2961.58 289.722 2950.62 304.66 2950.03 326.625C2949.58 343.689 2943.31 358.293 2931.4 369.836C2936.19 338.933 2937.67 306.931 2959.28 281.596C2932.15 269.473 2904.1 272.346 2875.92 254.517C2848.71 237.309 2821.77 219.407 2790.83 211.162C2781.65 208.724 2772.26 207.242 2762.95 205.33C2763.35 198.394 2778.49 201.171 2783.69 202.103C2818.58 208.318 2851.27 221.415 2881.89 241.037C2907.31 257.361 2935.67 264.412 2964.46 266.658C2975.76 267.543 2988.09 261.376 2999.11 256.238C3021.22 245.913 3042.72 234.011 3064.54 222.921C3067.3 221.511 3070.42 220.985 3073.37 220.053C3075.45 224.926 3072.06 226.928 3067.69 229.374Z" fill="#A4D792"/>
<path d="M2651.43 297.968C2666.19 286.974 2681.29 282.242 2697.3 283.054C2734.9 284.942 2768.81 297.251 2795.95 327.796C2806.28 339.411 2817.26 350.358 2828.32 361.113C2831.36 364.056 2844.4 368.256 2842.86 371.868C2831.9 397.441 2833.24 425.405 2830.77 452.436C2828.56 476.528 2819.36 496.604 2806.43 515.892C2808.79 492.182 2813.07 468.601 2817.3 445.218C2821.9 419.623 2838.35 389.512 2814.35 372.25C2800.38 362.188 2786.66 350.525 2775.73 336.758C2753.71 308.986 2726.68 295.674 2693.85 295.697C2680.31 295.65 2666.71 297.084 2651.43 297.968Z" fill="#A4D792"/>
<path d="M2728.52 258.843C2760.41 262.787 2787.12 279.684 2810.57 303.202C2823.57 316.228 2836.15 329.756 2849.65 342.112C2854.33 346.39 2861.19 347.776 2866.14 350.071C2862.99 371.533 2859.82 392.159 2856.96 412.809C2854.12 433.223 2853.92 450.255 2843.96 467.637C2843.96 446.509 2842.68 429.157 2844.35 412.164C2845.72 398.182 2850.1 384.44 2854.07 370.936C2856.55 362.547 2854.4 357.767 2848.11 353.035C2830.71 339.937 2812.22 327.987 2796.75 312.428C2764.17 279.636 2727.57 263.504 2683.33 271.032C2671.56 273.053 2715.86 257.278 2728.52 258.843Z" fill="#A4D792"/>
<path d="M2943.78 297.442C2920.74 318.618 2922.05 347.036 2914.41 371.653C2913.32 375.161 2903.46 394.399 2904.23 388.837C2907.31 369.86 2910.07 350.812 2913.95 332.026C2915.06 326.672 2919.59 322.251 2922.22 317.208C2924.77 312.323 2925.27 302.175 2916.8 304.397C2885.1 312.667 2862.19 292.304 2840.27 273.709C2814.11 251.53 2786.45 235.803 2753.53 231.668C2748.7 231.071 2744.01 229.183 2739.32 225.621C2775.73 216.541 2829.93 238.402 2857.39 264.006C2878.85 284.01 2904.67 289.985 2931.29 294.12C2934.26 294.574 2937.17 295.674 2943.78 297.442Z" fill="#A4D792"/>
<path d="M2707.39 237.094C2722.77 239.197 2738.33 240.296 2753.49 243.595C2788.9 251.267 2819.32 269.742 2847.17 295.148C2859.04 305.975 2874.64 312.069 2889.02 319.192C2893.86 321.582 2900.13 320.482 2907.27 321.127C2901.84 341.304 2891.73 356.443 2889.94 378.823C2888.94 391.61 2888.59 404.874 2876.83 413.455C2885.75 389.435 2873.92 361.065 2892.84 337.571C2883.41 333.006 2874.66 329.899 2866.98 324.808C2851.97 314.866 2836.22 305.473 2823.22 292.829C2801.74 271.94 2777.47 258.508 2750 251.386C2741.36 249.145 2706.81 247.188 2707.39 237.094Z" fill="#A4D792"/>
<path d="M2630.17 616.369C2577.3 651.718 2530.29 695.527 2483.81 740.723C2482.51 712.927 2581.86 627.507 2630.17 616.369Z" fill="#A4D792"/>
<path d="M1008.85 1270.92C994.596 1230.18 983.81 1189.38 956.218 1156.75C942.81 1140.88 930.856 1124.46 921.223 1105.75C915.914 1095.37 910.129 1118.59 917.101 1127.07C926.517 1138.52 936.8 1149.13 946.368 1160.43C964.246 1181.58 978.131 1205.58 986.267 1233.16C991.551 1251.07 1013.67 1295.91 1005.1 1313.82C992.146 1282.35 982.014 1249.7 962.38 1222.07C942.919 1194.68 925.367 1165.62 907.207 1137.65C898.03 1149.1 902.565 1157.78 911.221 1169.3C929.055 1193.08 946.303 1217.91 960.34 1244.51C971.808 1266.24 998.266 1309.8 993.578 1336.2C966.198 1277.35 931.485 1224.01 897.358 1166.6C891.869 1185.07 897.965 1197.33 905.732 1207.75C926.67 1235.85 945.135 1256.82 960.319 1290.02C972.897 1317.57 984.841 1344.51 992.103 1374.22C982.379 1378.51 914.418 1201.45 897.358 1215C912.783 1239.02 982.059 1388.05 987.135 1401.49C977.472 1406.53 912.783 1237.83 894.689 1242.61C901.198 1252.17 970.255 1381.99 976.026 1422.6C969.956 1425.55 925.434 1316.08 921.809 1307.51C922.772 1319.63 972.041 1435.51 960.731 1440.5C953.311 1423.29 930.487 1336.2 917.795 1336.2C919.183 1350.75 947.057 1439.08 950.1 1450.27C943.494 1452.93 902.282 1313.82 893.604 1310.22C890.415 1318.8 944.589 1457.71 942.311 1464.61C929.707 1469.11 895.661 1356.36 888.028 1338.99C877.554 1343.49 936.799 1466.34 927.818 1470.2C917.621 1448.67 893.192 1388.04 882.995 1366.48C876.957 1369.72 914.694 1467.75 917.795 1477.18C907.846 1481.33 903.027 1450.11 899.809 1440.69C893.694 1441.17 897.076 1473.86 897.076 1480.84C890.218 1481.57 891.371 1472.16 890.415 1465.54C889.612 1459.93 889.005 1454.26 888.028 1446.45C879.307 1457.97 884.275 1474.05 869.999 1482.78C873.21 1460.02 875.77 1439.78 879.025 1419.68C880.24 1412.2 883.038 1405 874.382 1398.43C865.92 1423.89 876.096 1452.83 860.627 1476.51C860.627 1466.05 865.376 1400.8 858.132 1398.69C853.272 1416.88 848.412 1435.07 843.552 1453.26C828.991 1449.99 861.671 1361.44 866.419 1350.75C868.372 1346.38 869.262 1341.41 868.806 1336.08C856.396 1349.24 850.885 1365.59 846.72 1382.94C844.111 1393.84 838.741 1434.59 827.693 1430.89C836.544 1395.73 850.184 1338.99 862.579 1310.22C846.72 1310.22 822.811 1379.36 810.293 1408.76C803.811 1406.94 807.916 1395.63 809.533 1389.56C820.359 1348.98 842.945 1316.12 867.157 1284.43C874.924 1274.25 876.92 1263.04 875.445 1248.15C848.846 1293.87 809.273 1326.56 792.979 1377.81C795.192 1340.21 813.612 1311.65 833.811 1283.97C810.032 1300.54 793.478 1323.7 781.09 1351.25C778.161 1337.77 783.846 1326.8 790.419 1318.8C816.78 1286.67 841.014 1252.88 862.579 1216.69C866.68 1209.83 872.039 1203.38 877.983 1198.48C885.338 1192.43 885.382 1185.26 884.687 1179C848.889 1227.07 812.506 1275.94 776.122 1324.79C766.074 1316.56 786.444 1293.3 791.678 1286.39C801.094 1273.93 811.638 1262.44 820.446 1249.51C830.426 1234.86 839.018 1219.06 846.915 1202.76C821.531 1231.85 786.709 1250.44 772.217 1290.9C764.069 1284.88 773.477 1269.86 778.704 1262.32C787.36 1249.8 797.644 1238.66 807.234 1226.9C822.095 1208.66 836.957 1190.43 851.753 1172.12C857.416 1165.12 862.926 1157.95 868.502 1150.85C865.075 1146.82 804.656 1204.68 799.445 1209.83C784.93 1224.22 772.217 1240.81 759.004 1256.06C759.98 1242.05 767.01 1229.58 776.469 1219.42C791.135 1203.72 806.713 1188.97 822.399 1174.49C841.665 1156.7 861.278 1139.38 881.108 1122.38C885.49 1118.63 891.283 1115.86 896.75 1114.93C907.251 1113.13 911.243 1106.3 912.783 1095.83C913.282 1092.36 915.452 1089.21 917.795 1083.76C933.649 1106.41 950.878 1127.97 969.149 1148.31C990.178 1171.73 1027.34 1235.37 1008.85 1270.92ZM909.637 1307.51C901.254 1291.73 896.861 1272.33 879.936 1269.42C882.193 1277.15 902.648 1313.76 909.637 1307.51ZM873.058 1169.51C879.177 1160.46 893.452 1159.26 892.736 1139.4C887.656 1145.49 867.13 1162.83 873.058 1169.51ZM873.948 1216.86C867.483 1229.15 862.341 1238.87 857.22 1248.62C870.218 1242.32 878.45 1232.63 873.948 1216.86Z" fill="#A4D792"/>
<path d="M1020.11 1078.22C1004.73 1049.09 977.653 1027.81 974.074 990.841C960.969 1000.76 965.178 1010.46 973.813 1025.45C983.49 1042.25 996.182 1056.93 1007.59 1072.53C1018.64 1087.64 1021.72 1105.61 1022.11 1124.85C1011.91 1106.35 1001.74 1087.85 991.517 1069.38C981.212 1050.76 970.863 1032.19 960.232 1013.02C955.828 1016.72 953.333 1021.55 957.824 1028.99C965.743 1042.11 973.444 1055.37 981.016 1068.76C994.121 1091.89 1007.46 1114.88 1019.74 1138.55C1025.36 1149.37 1018.53 1166.49 1015.92 1177.26C1010.89 1169.22 988.249 1124.38 981.385 1128.41C997.982 1155.28 1011.59 1183.43 1013.67 1216.77C1012.67 1215.31 1005.51 1196.43 1005.1 1194.81C994.685 1153.41 970.798 1143.66 949.059 1110.61C944.032 1102.96 934.097 1073.87 922.264 1077.62C907.685 1082.26 893.583 1089.1 878.829 1092.7C834.136 1103.63 799.271 1132.57 766.706 1165.55C756.826 1175.58 753.473 1192.53 742.949 1201.45C751.436 1128.18 843.306 1082.42 902 1073.87C918.728 1071.43 922.503 1068.88 927.168 1050.09C890.263 1052.03 855.355 1061.32 821.726 1079.65C787.577 1098.27 767.509 1131.49 744.663 1162.3C743.795 1161.61 742.927 1160.92 742.081 1160.2C744.012 1155.94 745.704 1151.55 747.896 1147.46C760.132 1124.71 770.785 1101.09 791.07 1084.48C828.517 1053.82 868.372 1034.27 916.363 1043.09C925.649 1044.78 935.455 1046 938.102 1031.28C856.808 1008.65 796.104 1048.01 743.643 1112.47C736.809 1102.99 752.958 1085.92 760.306 1078.99C793.76 1047.32 829.059 1018.66 872.906 1006.28C893.452 1000.5 912.458 1006.23 930.357 1016.29C959.977 1032.93 940.583 1002.38 912.783 995.023C878.678 985.989 848.26 999.278 820.229 1018.02C808.438 1025.89 761.215 1076.43 749.414 1069.78C772.884 1046.07 796.598 1020.46 824.178 1002.67C842.619 990.769 863.686 983.479 884.015 975.497C896.034 970.788 908.249 970.645 920.138 979.273C931.138 987.232 943.439 993.016 956.218 1000.35C984.575 977.733 894.8 961.714 878.33 963.905C833.273 969.895 799.038 1006.96 764.493 1036.18C747.247 1015.82 855.077 959.541 866.029 955.444C882.257 949.374 900.677 947.987 918.012 948.561C945.513 949.482 959.269 990.277 978.044 975.043C981.797 985.822 985.03 995.645 988.632 1005.28C991.603 1013.21 1000.98 1046.18 1008.33 1042.2C996.203 979.273 979.302 962.973 933.242 943.876C907.706 935.487 885.577 928.652 862.276 937.734C852.691 941.478 782.83 985.151 778.834 978.365C802.382 959.238 827.029 942.235 853.532 928.317C889.981 909.149 924.781 913.953 957.151 940.435C961.493 943.991 993.846 969.428 996.203 960.081C989.825 980.994 999.61 998.417 1006.86 1016.03C1017.92 1043.07 1020.11 1044.37 1020.11 1078.22ZM1008.98 1137.25C1001.44 1124.35 953.018 1032.26 945.804 1037.3C949.968 1051.6 1000.25 1143.81 1008.98 1137.25ZM975.224 1116.41C962.683 1094.83 950.165 1073.25 937.625 1051.64C931.836 1052.41 932.883 1066.48 936.084 1070.98C940.637 1077.38 970.959 1120.24 975.224 1116.41Z" fill="#A4D792"/>
<path d="M1000.56 959.842C997.418 956.198 1001.65 953.867 959.776 933.097C945.609 925.449 931.854 917.275 917.209 910.87C885.447 896.984 855.485 907.261 825.979 920.693C822.073 922.467 793.063 931.921 805.433 924.828C836.761 906.95 868.654 890.65 905.298 894.379C939.546 897.868 968.94 917.288 995.856 939.527C1006.81 948.465 1007.72 948.179 1013.73 935.535C997.744 923.92 982.275 911.802 966.046 901.071C937.408 882.142 906.123 879.465 873.861 885.297C860.956 887.63 842.413 897.214 829.407 891.989C862.319 880.397 895.188 867.156 930.465 872.438C957.444 876.469 1019.52 929.888 1032.04 917.873C1015.84 905.038 1003.75 893.925 990.367 885.32C976.525 876.429 962.011 867.539 946.715 862.926C910.316 851.921 878.506 858.808 842.988 867.634C840.175 858.337 869.859 850.55 877.398 849.183C896.88 845.67 916.84 844.26 936.605 844.26C952.313 844.26 967.023 850.378 979.671 861.516C993.773 873.944 1008.61 885.368 1022.11 898.537C1030.57 906.807 1038.38 910.774 1049.57 903.915C1040.22 881.253 1001.39 862.243 982.926 848.155C959.559 830.326 932.895 832.668 906.513 834.006C896.945 834.484 887.399 835.488 877.853 836.253C876.585 827.408 901.96 826.883 908.943 826.286C928.686 824.613 948.668 821.841 968.238 823.633C996.919 826.263 1017.33 846.793 1035.97 869.164C1039.86 873.824 1043.35 878.963 1047.58 883.169C1056.63 892.156 1066.19 891.272 1076.78 879.895C1070.84 877.099 1064.81 875.569 1060.25 871.865C1049.57 863.165 1039.38 853.724 1029.44 844.021C998.264 813.548 963.291 798.371 921.179 809.795C911.807 812.329 902.152 813.619 891.37 812.926C912.879 797.456 946.762 793.627 971.969 790.651C998.221 787.568 1017.4 804.896 1034.24 825.498C1044.8 838.428 1055.78 851.119 1067.82 862.28C1073.9 867.897 1082.75 869.833 1090.77 873.609C1075.76 895.741 1083.27 924.254 1079.73 950.855C1077.5 967.801 1074.7 984.651 1070.36 1001.24C1068.47 964.909 1060.38 928.724 1075.13 893.04C1067.06 890.714 1060.44 896.888 1059.79 907.357C1058.64 926.334 1059.12 945.43 1059.1 964.479C1059.08 981.113 1059.53 997.772 1059.01 1014.38C1058.88 1018.3 1055.69 1022.1 1053.89 1025.95C1048.65 1024.06 1051.71 1019.44 1051.25 1013.95C1048.77 984.106 1044.81 954.834 1046.95 924.852C1047.27 920.311 1049.03 915.889 1050.4 910.344C1028.42 922.868 1031.37 943.183 1034.21 962.71C1036.49 978.389 1041.09 993.637 1043.37 1009.29C1044.54 1017.39 1042.91 1026 1040.01 1034.41C1034.97 1000.95 1016.55 970.86 1024.21 935.224C1016.25 934.347 1013.35 946.728 1014.73 955.11C1020.05 987.15 1027.26 1018.76 1033.3 1050.64C1030.82 1051.51 1022.78 1032.04 1023.91 1035.15C1017.76 1011.47 1012.93 979.703 1000.56 959.842Z" fill="#A4D792"/>
<path d="M1342.88 709.772C1312.83 726.646 1282.35 742.659 1252.78 760.465C1236.77 770.12 1225.81 785.058 1225.22 807.023C1224.77 824.088 1218.5 838.691 1206.59 850.235C1211.38 819.331 1212.86 787.329 1234.47 761.994C1207.34 749.871 1179.29 752.744 1151.11 734.915C1123.9 717.707 1096.96 699.806 1066.02 691.56C1056.84 689.122 1047.45 687.64 1038.14 685.728C1038.54 678.792 1053.68 681.569 1058.88 682.502C1093.77 688.716 1126.46 701.813 1157.08 721.435C1182.5 737.759 1210.86 744.81 1239.65 747.057C1250.95 747.941 1263.28 741.775 1274.3 736.636C1296.41 726.311 1317.91 714.409 1339.73 703.319C1342.49 701.909 1345.61 701.383 1348.56 700.451C1350.64 705.324 1347.25 707.326 1342.88 709.772Z" fill="#A4D792"/>
<path d="M926.625 778.366C941.378 767.372 956.478 762.64 972.49 763.452C1010.09 765.34 1044 777.649 1071.14 808.194C1081.47 819.809 1092.45 830.756 1103.51 841.511C1106.55 844.455 1119.59 848.654 1118.05 852.266C1107.09 877.84 1108.44 905.803 1105.96 932.834C1103.75 956.926 1094.55 977.002 1081.62 996.29C1083.98 972.58 1088.26 948.999 1092.49 925.616C1097.09 900.021 1113.54 869.91 1089.54 852.649C1075.57 842.587 1061.85 830.923 1050.92 817.156C1028.9 789.384 1001.87 776.072 969.04 776.096C955.502 776.048 941.899 777.482 926.625 778.366Z" fill="#A4D792"/>
<path d="M1003.71 739.241C1035.6 743.185 1062.31 760.082 1085.76 783.6C1098.76 796.626 1111.34 810.154 1124.84 822.51C1129.52 826.788 1136.38 828.175 1141.33 830.469C1138.18 851.932 1135.01 872.558 1132.15 893.208C1129.31 913.621 1129.12 930.653 1119.15 948.035C1119.15 926.907 1117.87 909.555 1119.54 892.562C1120.91 878.581 1125.29 864.838 1129.26 851.334C1131.74 842.945 1129.59 838.165 1123.3 833.433C1105.9 820.335 1087.41 808.385 1071.94 792.826C1039.36 760.035 1002.76 743.902 958.518 751.43C946.749 753.451 991.054 737.677 1003.71 739.241Z" fill="#A4D792"/>
<path d="M1218.97 777.84C1195.93 799.016 1197.24 827.434 1189.6 852.051C1188.51 855.559 1178.65 874.798 1179.42 869.235C1182.5 850.259 1185.26 831.21 1189.14 812.424C1190.25 807.071 1194.78 802.649 1197.41 797.606C1199.96 792.721 1200.46 782.573 1191.99 784.795C1160.29 793.065 1137.38 772.702 1115.46 754.107C1089.3 731.928 1061.64 716.201 1028.73 712.066C1023.89 711.469 1019.2 709.581 1014.51 706.02C1050.92 696.939 1105.12 718.8 1132.58 744.404C1154.04 764.408 1179.86 770.383 1206.48 774.518C1209.45 774.972 1212.36 776.072 1218.97 777.84Z" fill="#A4D792"/>
<path d="M982.578 717.492C997.961 719.595 1013.52 720.694 1028.68 723.993C1064.09 731.665 1094.51 750.14 1122.36 775.546C1134.23 786.373 1149.83 792.467 1164.21 799.59C1169.05 801.98 1175.32 800.88 1182.46 801.526C1177.03 821.702 1166.92 836.841 1165.13 859.221C1164.13 872.008 1163.78 885.273 1152.02 893.853C1160.94 869.833 1149.11 841.463 1168.03 817.969C1158.6 813.404 1149.85 810.297 1142.17 805.206C1127.16 795.264 1111.41 785.871 1098.41 773.228C1076.93 752.339 1052.66 738.907 1025.19 731.784C1016.55 729.543 981.997 727.586 982.578 717.492Z" fill="#A4D792"/>
<path d="M905.363 1096.77C852.491 1132.12 805.476 1175.93 759.004 1221.12C757.702 1193.32 857.047 1107.9 905.363 1096.77Z" fill="#A4D792"/>
<path fill-rule="evenodd" clip-rule="evenodd" d="M1929.03 1192.34C1926.11 1210.69 1927.17 1317.36 1930.76 1365.63C1931.06 1369.75 1940.47 1444.6 1936.08 1433.21C1934.45 1428.99 1918.13 1339.96 1913.12 1303.37C1910.04 1280.86 1901.27 1244.35 1893.16 1220.28C1891.78 1216.17 1889.19 1207.53 1887.41 1201.09C1882.64 1183.8 1880.08 1184.12 1881.69 1201.79C1883.16 1217.95 1890.75 1268.14 1895.06 1290.3C1899.88 1315.08 1902.96 1340.54 1909.33 1364.99C1915.59 1389.03 1917.45 1405.33 1923.28 1429.48C1927.16 1445.56 1925.76 1455.34 1918.54 1431.35C1916.56 1424.74 1912.34 1419.46 1906.43 1400.46C1892.37 1355.29 1884 1328.08 1878.87 1310.84C1872.45 1289.32 1837.97 1189.44 1836.42 1187.91C1834.18 1185.7 1835.78 1204.37 1839.33 1221.85C1843.09 1240.32 1851.29 1270.34 1876.63 1358.45C1892.64 1414.13 1909.91 1447.47 1904.83 1447.22C1893.74 1446.66 1843.47 1325.33 1839.3 1318.31C1807.98 1265.61 1797.15 1249.61 1779.02 1229.26C1767.51 1216.33 1762.52 1213.08 1764.52 1219.82C1766.42 1226.22 1779.37 1250.92 1799.5 1286.56C1813.34 1311.05 1825.72 1336.71 1841.03 1360.35C1852.38 1377.88 1882.17 1431.28 1881.16 1432.28C1880.24 1433.19 1835.18 1375.21 1832.77 1370.94C1825.9 1358.79 1736.51 1271.79 1722.34 1263.46C1716.22 1259.86 1721.81 1267.39 1743.17 1291.52C1780.62 1333.81 1813.92 1379.46 1852.41 1420.71C1866.16 1435.44 1896.36 1468.09 1895.82 1468.62C1894.68 1469.74 1865.75 1443.28 1856.26 1435.13C1849.44 1429.28 1842.95 1424.24 1827.9 1413.13C1786.95 1382.91 1747.19 1351.19 1706.17 1321.07C1690.33 1309.44 1674.15 1297.22 1670.21 1293.91C1666.28 1290.61 1662.45 1288.54 1661.69 1289.31C1659.95 1291.11 1705.7 1334.78 1747.43 1371.16C1780.39 1399.9 1813.61 1428.46 1849.51 1453.62C1858.81 1460.13 1862.34 1463.95 1859.07 1463.95C1858.5 1463.95 1851.9 1460.68 1844.39 1456.69C1836.88 1452.7 1817.96 1442.73 1802.34 1434.54C1779.43 1422.53 1756.63 1410.25 1734.17 1397.42C1695.88 1375.54 1630.68 1342.58 1625.7 1342.58C1622.59 1342.58 1631.73 1349.36 1644.88 1356.79C1707.42 1392.16 1766.34 1433.05 1829.8 1467.03C1852.93 1479.42 1892.75 1485.49 1889.19 1485.49C1885.11 1485.49 1837.36 1480.78 1824.11 1475.67C1761.34 1451.45 1697.45 1430.27 1635.7 1403.34C1623.84 1398.17 1608.53 1394.03 1611.34 1396.76C1616.37 1401.65 1706.36 1447.38 1738.91 1461.59C1767.07 1473.88 1788.84 1480.75 1802.34 1483.55C1810.61 1485.27 1893.92 1500.6 1891.58 1501.37C1888.51 1502.37 1803.23 1494.64 1783.34 1489.95C1756.23 1483.54 1728.37 1477.64 1701.04 1472.28C1631 1458.55 1616.22 1456.21 1614.73 1458.58C1613.45 1460.62 1617.81 1462.63 1640.44 1470.43C1687.51 1486.65 1737.29 1497.14 1804.23 1504.95C1843.63 1509.55 1895.76 1509.71 1897.72 1511.64C1899.68 1513.57 1850.69 1514.51 1812.75 1515.41C1791.16 1515.93 1782.83 1515.86 1762.57 1514.99C1722.64 1513.27 1616.4 1520.51 1611.57 1525.28C1606.87 1529.92 1700.24 1530.7 1758.79 1526.51C1800.96 1523.5 1853.93 1519.39 1849.51 1521.83C1847.95 1522.69 1824.78 1527.95 1817.49 1529.17C1800.99 1531.92 1771.98 1537.18 1739.85 1543.23C1715.26 1547.85 1690.29 1550.95 1665.87 1556.4C1632.17 1563.91 1618.44 1567.28 1615.83 1568.71C1611.09 1571.3 1633.25 1570.62 1652.28 1567.59C1692.26 1561.25 1733.16 1557.51 1772.04 1546C1780.95 1543.37 1874.11 1524.1 1879.27 1525.38C1883.48 1526.42 1819.95 1543.24 1811.59 1546.37C1802.1 1549.92 1792.03 1551.36 1782.39 1554.61C1774.62 1557.23 1762.29 1560.93 1755 1562.84C1730.75 1569.18 1707.45 1579.34 1683.99 1588C1665.09 1594.98 1654.99 1600.07 1659.8 1600.18C1663.23 1600.26 1691.66 1593.09 1731.33 1582.16C1744.35 1578.57 1757.98 1574.9 1761.63 1574.01C1765.27 1573.11 1782.31 1567.62 1799.5 1561.81C1829.75 1551.58 1883.15 1531.23 1888.25 1531.17C1892.87 1531.11 1860.13 1547.61 1852.04 1550.45C1847.62 1552.01 1833.35 1558.05 1820.33 1563.86C1807.31 1569.68 1784.83 1579.04 1770.36 1584.66C1733.85 1598.84 1660.07 1636.2 1650.93 1645.14C1647.24 1648.74 1647.26 1648.76 1653.19 1647.08C1673.76 1641.26 1748.16 1611.15 1779.62 1595.92C1801.07 1585.52 1823.48 1577.13 1844.72 1566.3C1852.4 1562.38 1892.9 1541.75 1894.33 1541.75C1901.31 1541.75 1862.27 1564.14 1828.85 1586C1797.58 1606.46 1758.52 1632.76 1751.21 1638.29C1725.8 1657.53 1680.37 1693.71 1679.11 1695.72C1677.47 1698.33 1689.41 1691.8 1708.61 1679.58C1728.07 1667.2 1748.11 1655.79 1766.99 1642.51C1792.09 1624.84 1819.75 1610.69 1844.28 1592.32C1852.56 1586.12 1880.19 1562.88 1874.44 1568.71C1872.17 1571.02 1825.25 1617.02 1798.98 1643.23C1768.87 1673.26 1736.29 1702.8 1711.52 1737.49L1721.67 1729.56C1734.64 1719.42 1749.12 1706.07 1802.55 1654.96C1826.39 1632.16 1851 1609.59 1857.25 1604.82C1863.8 1599.82 1888.16 1571.69 1894.33 1566.3C1898.49 1562.66 1879.2 1587.31 1872.06 1597.74C1842.14 1641.39 1808.37 1682.37 1775.98 1724.24C1755.69 1750.48 1740.81 1770.73 1740.88 1772.04C1741.01 1774.67 1784.07 1726.97 1796.66 1710.25C1802.37 1702.65 1858.55 1635.64 1878.01 1613.2C1887.42 1602.36 1899.38 1588.2 1904.59 1581.74C1921.73 1560.5 1923.04 1559.01 1923.89 1559.85C1933.95 1569.81 1868.24 1674.67 1859.15 1689.88C1843.65 1715.82 1828.94 1742.19 1813.25 1768.02C1802.42 1785.84 1793.89 1800.74 1794.29 1801.13C1795.78 1802.6 1829.31 1756.52 1861 1709.48C1902.27 1648.2 1925 1605.53 1937.82 1565.24C1941.17 1554.72 1944.6 1546.1 1945.44 1546.1C1952.33 1546.1 1947.23 1635.37 1936.92 1694.87C1932.69 1719.32 1912.02 1809.81 1902.66 1844.86C1900.05 1854.61 1897.38 1867.43 1896.72 1873.33L1895.53 1884.07H1901.4C1907.01 1884.07 1907.44 1883.51 1911.05 1871.46C1919.71 1842.63 1938.49 1754.68 1942.45 1724.42C1943.12 1719.29 1944.87 1708.36 1946.33 1700.15C1952.04 1668.08 1954.77 1632.77 1954.77 1590.74C1954.77 1567.22 1955.41 1547.98 1956.19 1548C1959.44 1548.07 1978.24 1585.13 2006.83 1647.87C2013.38 1662.24 2021.28 1679.47 2024.39 1686.14C2039.34 1718.26 2046.42 1751.64 2048.72 1800.98L2050.12 1830.85L2052.53 1818.72C2059.8 1782.19 2051.42 1714.1 2034.99 1676.12C2028.16 1660.33 2023.09 1643.85 2015.75 1628.26C2009.59 1615.17 1973.67 1540.12 1976.34 1541.75C1988.03 1548.87 2028.29 1633.44 2035.97 1644.62C2046.52 1659.98 2054.4 1677.01 2063.91 1693C2087.23 1732.18 2093.31 1751.61 2095.86 1795.09C2096.62 1808.08 2097.9 1818.72 2098.71 1818.72C2100.84 1818.72 2103.16 1773.7 2101.79 1759.14C2099.11 1730.7 2083.85 1689.6 2066.3 1663.53C2062.42 1657.77 2057.03 1648.95 2054.31 1643.93C2051.6 1638.9 2045.16 1628.07 2039.99 1619.86C2034.83 1611.64 2018.34 1586.35 2019.39 1586C2023.08 1584.76 2043.36 1609.5 2058.17 1627.4C2066.39 1637.34 2077.85 1651.05 2083.64 1657.87C2113.79 1693.4 2138.52 1734.31 2159.97 1784.17C2162.62 1790.33 2164.83 1794.71 2164.87 1793.9C2165.04 1790.72 2158.84 1762.98 2155.3 1751.07C2143.25 1710.59 2106.56 1656.44 2060.38 1611.01C2036.92 1587.93 1986.26 1526.57 2025.53 1562.05C2036.94 1567.87 2076.46 1607.9 2099.72 1635.4C2132.52 1674.18 2157.72 1697.45 2182.97 1712.29C2195.82 1719.85 2205.08 1726.66 2207.48 1730.33C2209.6 1733.57 2215.91 1743.44 2221.49 1752.26C2227.07 1761.08 2231.94 1768.3 2232.29 1768.3C2233.09 1768.3 2217.97 1736.28 2217.97 1731.76C2217.97 1731.72 2240.69 1740.29 2240.69 1736.9C2240.69 1736.06 2234.38 1731.03 2226.66 1725.72C2214.2 1717.14 2211.58 1714.23 2203.28 1699.7C2175.09 1650.4 2164.89 1647.15 2121.67 1597.74C2116.39 1591.7 2086.12 1564.34 2086.61 1563.86C2089.65 1560.87 2172.58 1623.14 2200.93 1651.58C2213.94 1664.63 2233.02 1681.98 2243.32 1690.12C2261.62 1704.59 2268.79 1708.02 2259.37 1697.8C2230.01 1665.94 2180.59 1613.84 2171.6 1605.27C2161.94 1596.07 2134.98 1577.25 2103.14 1557.5C2086.78 1547.35 2042.79 1537.61 2047.79 1537.49C2053.98 1537.34 2138.48 1560.3 2153.5 1567.09C2204.99 1590.33 2238.46 1607.44 2260.57 1621.82C2265.78 1625.2 2275.58 1631.05 2282.35 1634.81C2310.7 1650.57 2253.83 1607.07 2250.85 1604.83C2211.84 1575.62 2206.34 1571.98 2186.39 1562.19C2161.53 1550 2145.95 1544.39 2117.76 1537.49C2103.78 1534.07 2020.4 1522.83 2019.39 1521.83C2014.89 1517.39 2103.97 1524.83 2131.81 1529.04C2139.1 1530.15 2157.42 1532.81 2172.52 1534.96C2187.62 1537.11 2216.59 1542.13 2236.9 1546.11C2276.12 1553.81 2324.07 1558 2326.6 1553.97C2328.11 1551.55 2326.47 1551.04 2301.28 1546.14C2278.85 1541.77 2257.07 1535.2 2235.01 1529.33C2195.67 1518.88 2175.97 1515.49 2137.49 1512.58C2111.34 1510.6 2019.9 1504.99 2007.08 1503.16C1995.16 1501.45 2064.39 1501.86 2099.62 1498.59C2144.75 1494.41 2187.5 1495.58 2227.44 1502.09C2261.67 1507.67 2303.61 1511.2 2314.75 1509.44C2327.01 1507.51 2274.47 1497.71 2265.31 1495.63C2179.89 1476.32 2119.26 1479.5 2034.3 1487.29C2016.79 1488.89 2021.22 1486.25 2041.17 1477.95C2079.51 1462 2124.42 1452.46 2185.78 1449.11C2206.09 1448.01 2238.04 1446.26 2256.78 1445.24C2275.53 1444.22 2295.02 1442.31 2300.09 1441C2309.2 1438.65 2308.97 1438.59 2278.31 1436.15C2233.75 1432.6 2168.24 1430.69 2151.69 1432.45C2126.12 1435.18 2078.55 1451.91 2054.42 1460.92C2084.21 1447.32 2139.51 1425.37 2170.63 1414.92L2208.25 1406.51L2247.32 1402.15C2296.09 1400.29 2322.76 1398.61 2321.61 1397.48C2320.64 1396.53 2297.74 1393.64 2270.17 1390.98C2239.93 1388.08 2215.19 1388.69 2190.17 1392.97C2178.11 1395.04 2114.97 1420.71 2114.07 1420.71C2109.95 1420.71 2166.23 1392.78 2183.41 1379.03C2217.65 1351.63 2267.6 1307.1 2264.11 1307.1C2253.57 1307.1 2232.09 1327.25 2223.87 1333.07C2202.65 1348.11 2168.93 1369.44 2145.41 1382.72C2136.31 1387.86 2115.81 1400.46 2099.84 1410.73C2083.87 1421 2066.21 1431.85 2060.6 1434.85C2057.52 1436.49 2006.97 1479.33 2003.3 1477.09C2001.01 1475.7 2049.16 1433.08 2076.01 1410.77C2117.77 1376.07 2162.8 1334.03 2191.02 1303.39C2210.86 1281.85 2224.7 1264.57 2223.24 1263.13C2222.73 1262.62 2213.02 1270.75 2201.67 1281.18C2159.68 1319.81 2115.11 1355.42 2069.09 1389.2C2052.91 1401.08 2006.64 1468.62 1986.71 1468.62C1984.13 1468.62 1995.38 1455.44 2001.16 1449.56C2015.06 1435.45 2027.19 1418.35 2039.98 1403.18C2054.5 1385.94 2104.6 1329.28 2118.39 1314.51C2134.95 1296.76 2151.12 1278.65 2167.43 1260.67C2170.41 1257.39 2204.42 1219.94 2192.21 1227.6C2162.6 1246.18 2107.01 1296.68 2072.57 1336.3C2051.37 1360.67 2024.58 1406.26 1999.21 1430.5C1984.23 1444.83 2008.62 1401.12 2010.66 1397.66C2016.73 1387.39 2025.23 1373.53 2029.56 1366.85C2046.07 1341.42 2056.29 1324.15 2066.58 1304.3C2072.44 1293.01 2086.36 1266.26 2097.53 1244.87C2108.69 1223.47 2117.52 1205.07 2117.15 1203.98C2116.01 1200.61 2086.1 1237.5 2067.59 1265.09C2040.37 1305.68 2018.53 1349.57 1991.63 1390.03C1987.82 1395.76 1960 1474.19 1965.13 1438.89C1966.62 1428.57 1981.16 1366.66 1987.1 1345.31C1994.47 1318.82 2002.4 1292.79 2010.83 1266.49C2027.18 1215.5 2032.76 1196.67 2031.8 1195.72C2027.84 1191.82 2002.61 1243.65 1984.12 1293.64C1980.02 1304.73 1969.95 1348.6 1968.72 1348.18C1965.93 1347.23 1972.53 1304.91 1976.34 1291.49C1985.08 1260.68 1995.89 1183.53 1991.06 1186.48C1987.8 1188.46 1973.3 1234.29 1965.28 1267.95C1962.8 1278.35 1951.93 1444.34 1948.38 1444.34C1947.18 1444.34 1945.25 1364.12 1945.17 1336.51C1945.1 1313.47 1944.29 1290.82 1942.62 1267.89C1940.25 1235.53 1934.38 1190.11 1932.01 1185.81C1931 1183.99 1930.01 1186.17 1929.03 1192.34ZM2121.67 1616.59C2162.32 1657.75 2192.92 1695.48 2185.65 1695.48C2177.08 1695.48 2053.62 1573.99 2039.98 1550.45C2030.19 1533.58 2079.98 1576.91 2121.67 1616.59Z" fill="#A4D792"/>
</svg>
