<svg width="180" height="173" viewBox="0 0 180 173" fill="none" xmlns="http://www.w3.org/2000/svg">
<path d="M86 2C86 3 87.6156 4 89.6929 4C91.5393 4 92.4625 3 91.7701 2C91.0777 0.8 89.4621 -5.96046e-08 88.0772 -5.96046e-08C86.9232 -5.96046e-08 86 0.8 86 2Z" fill="white"/>
<path d="M103.718 3.53846C105.089 4.15385 107.83 4.15385 109.43 3.53846C110.8 2.61538 109.658 2 106.459 2C103.261 2 102.118 2.61538 103.718 3.53846Z" fill="white"/>
<path d="M57 6.59579C57 7.89369 58.4 8.41285 60 7.63411C61.6 6.59579 63 5.55748 63 5.03832C63 4.51916 61.6 4 60 4C58.4 4 57 5.03832 57 6.59579Z" fill="white"/>
<path d="M119.224 6.5C118.541 7.75 119.452 9 121.5 9C123.548 9 124.459 7.75 123.776 6.5C123.093 5 121.955 4 121.5 4C121.045 4 119.907 5 119.224 6.5Z" fill="white"/>
<path d="M66.1891 10.5385C68.378 11.1538 71.783 11.1538 73.4855 10.5385C74.9448 9.61538 73.2423 9 69.1076 9C65.2162 9 63.7569 9.61538 66.1891 10.5385Z" fill="white"/>
<path d="M84.8609 11.0169C91.1396 13.661 93 13.661 93 11.0169C93 9.69479 90.2094 8.8134 86.7212 9.03374C80.9076 9.03374 80.675 9.25409 84.8609 11.0169Z" fill="white"/>
<path d="M100 10.28C100 13.2315 108.823 15.5018 110.68 12.7774C111.377 11.6422 110.912 10.7341 109.519 10.7341C108.358 10.7341 105.804 10.053 103.715 9.37192C101.625 8.69082 100 8.91785 100 10.28Z" fill="white"/>
<path d="M43.4793 14.5C41.1877 16.3667 40.2711 18 41.646 18C42.7918 18 46 16.3667 48.5207 14.5C50.8123 12.6333 51.7289 11 50.354 11C49.2082 11 46 12.6333 43.4793 14.5Z" fill="white"/>
<path d="M131.172 13.5C131.843 14.75 134.08 16 135.869 16C137.658 16 139 14.75 139 13.5C139 12 136.987 11 134.303 11C131.843 11 130.501 12 131.172 13.5Z" fill="white"/>
<path d="M119.33 16.0169C125.986 18.661 128.125 18.661 126.461 16.0169C125.748 14.6948 122.658 13.8134 119.806 14.0337C114.814 14.0337 114.814 14.2541 119.33 16.0169Z" fill="white"/>
<path d="M49.7313 18.0084C44.0221 21.2998 48.0661 22.1775 54.489 19.1056C58.0572 17.3502 59.0087 16.0336 56.8678 16.0336C54.9647 15.8142 51.6344 16.6919 49.7313 18.0084Z" fill="white"/>
<path d="M100 18.1298C100 19.185 100.907 20.0291 102.041 20.0291C103.174 20.0291 105.895 20.6622 108.162 21.5063C110.656 22.3504 111.563 22.1394 110.656 20.6622C108.616 17.7078 100 15.5975 100 18.1298Z" fill="white"/>
<path d="M69.1906 20.5C69.8877 21.75 72.6762 23 75 23C77.3238 23 80.1123 21.75 80.8094 20.5C81.7389 19 79.1828 18 75 18C70.8172 18 68.2611 19 69.1906 20.5Z" fill="white"/>
<path d="M87.0569 19.5385C89.0027 20.1538 92.0293 20.1538 93.5427 19.5385C94.8398 18.6154 93.3265 18 89.6512 18C86.1922 18 84.895 18.6154 87.0569 19.5385Z" fill="white"/>
<path d="M134 19.7276C134 22.0002 138.665 27 141.109 27C144.664 27 142.886 22.682 138.443 20.1821C135.999 18.8185 134 18.5912 134 19.7276Z" fill="white"/>
<path d="M29.2478 23.6044C27.6574 25.6418 27.6574 27 28.8502 27C31.2358 27 34.0189 22.6989 32.6274 21.1143C32.2298 20.6615 30.6394 21.567 29.2478 23.6044Z" fill="white"/>
<path d="M57.4071 23.3994C55.2488 25.3197 54.3854 26.76 55.4646 27C58.7022 27 64.0981 22.6793 62.8031 21.2391C62.1556 20.519 59.7814 21.4791 57.4071 23.3994Z" fill="white"/>
<path d="M89.2268 25C88.2722 26.2 90.4201 27 94 27C97.5799 27 99.7278 26.2 98.7732 25C98.0572 23.8 95.9093 23 94 23C92.0907 23 89.9428 23.8 89.2268 25Z" fill="white"/>
<path d="M117.839 24.3249C119.175 24.7665 120.512 26.7539 120.512 28.2996C120.512 30.0661 122.517 32.4951 124.744 33.82C131.873 37.5739 133.209 36.249 127.195 31.6118C122.071 27.6371 122.071 27.1955 126.081 27.1955C129.868 27.1955 129.868 26.7539 127.195 24.9873C125.413 23.8833 121.849 23 119.398 23C116.948 23 116.279 23.6624 117.839 24.3249Z" fill="white"/>
<path d="M149.258 25C149.806 26 150.72 27 151.269 27C151.634 27 152 26 152 25C152 23.8 151.086 23 149.989 23C149.075 23 148.709 23.8 149.258 25Z" fill="white"/>
<path d="M34.4932 28.2294C32.117 30.1594 30.4536 32.3306 31.1665 32.8131C31.8794 33.5368 34.9684 32.0893 38.2951 29.6769C45.186 24.3695 41.6217 23.1633 34.4932 28.2294Z" fill="white"/>
<path d="M106.787 27.0407C108.913 28.4011 109.15 29.3081 107.259 29.7616C105.842 30.2151 107.023 32.029 109.858 33.8429C114.82 36.7906 115.057 36.7906 111.985 33.3894C109.858 30.6685 109.622 29.5348 111.512 29.5348C113.166 29.5348 113.639 28.4011 112.93 27.2674C112.221 25.907 109.622 25 107.496 25C104.424 25 104.188 25.4535 106.787 27.0407Z" fill="white"/>
<path d="M76.7177 28.7692C78.0886 29.0769 80.8302 29.0769 82.4296 28.7692C83.8004 28.3077 82.658 28 79.4594 28C76.2608 28 75.1184 28.3077 76.7177 28.7692Z" fill="white"/>
<path d="M134 28.6389C134 30.9393 138.941 36 141.187 36C144.556 36 142.984 32.5495 138.492 29.559C136.021 27.9488 134 27.4887 134 28.6389Z" fill="white"/>
<path d="M17.4905 32.5C15.7339 34.3667 15.483 36 16.9887 36C18.2434 36 20.7528 34.3667 22.5095 32.5C24.2661 30.6333 24.517 29 23.0113 29C21.7566 29 19.2472 30.6333 17.4905 32.5Z" fill="white"/>
<path d="M43.3042 32.5C41.7672 34.3667 41.5476 36 42.8651 36C43.963 36 46.1587 34.3667 47.6958 32.5C49.2328 30.6333 49.4524 29 48.1349 29C47.037 29 44.8413 30.6333 43.3042 32.5Z" fill="white"/>
<path d="M61 31.5316C61 34.8228 63.6086 34.8228 68.1144 31.5316C70.9602 29.5063 70.723 29 66.4544 29C63.3715 29 61 30.0127 61 31.5316Z" fill="white"/>
<path d="M90.0951 30.7738C91.7912 31.1484 93.9719 31.0236 94.6987 30.6489C95.6679 30.2743 94.2142 29.8996 91.5489 30.0245C88.8837 30.0245 88.1568 30.3991 90.0951 30.7738Z" fill="white"/>
<path d="M151.4 36.4822C153.713 38.9474 156.025 40.5162 156.719 39.8439C158.338 38.4992 152.556 32 149.549 32C148.393 32 149.087 34.017 151.4 36.4822Z" fill="white"/>
<path d="M68.708 37.3994C66.2799 39.3197 65.3086 40.76 66.5227 41C70.165 41 76.2354 36.6793 74.7785 35.2391C74.05 34.519 71.379 35.4791 68.708 37.3994Z" fill="white"/>
<path d="M84.8235 35.5683C85.7401 37.1693 82.9903 38.999 77.2614 40.6C65.3454 43.8019 46.5547 61.6414 42.659 73.5344C39.4509 83.5977 41.055 101.895 46.0964 111.729C49.992 119.048 67.4078 134.372 71.9908 134.372C73.8241 134.372 74.7407 135.744 73.8241 137.802C72.9075 140.318 74.0532 141.233 78.178 141.233C81.3862 141.233 83.9069 140.089 83.9069 138.946C83.9069 137.574 86.1984 136.659 89.1775 136.659C93.0731 136.659 93.5314 137.116 90.7815 138.946C86.1984 141.69 89.4066 144.206 95.3646 142.377C98.1145 141.462 99.7186 140.318 99.0311 139.632C98.3436 138.946 104.073 135.286 111.864 131.627C124.238 125.223 126.301 123.393 132.259 110.586C135.925 102.809 138.904 92.7462 138.904 87.9432C138.904 83.1403 139.821 79.7096 140.966 80.3957C143.487 81.9967 146.237 65.0721 144.404 60.2691C143.716 58.2107 142.112 56.6098 140.966 56.6098C140.05 56.6098 139.592 58.2107 140.279 60.0404C141.196 61.8701 140.966 66.2156 140.05 69.6463C138.675 75.5928 138.446 75.3641 132.029 64.3859C127.446 56.1523 122.405 51.3494 115.072 47.4613C108.426 43.8019 105.677 41.2861 107.51 40.1425C110.489 38.3128 110.26 38.0841 98.3436 37.1693C94.6772 36.9406 89.8649 36.0257 87.5734 34.8822C84.5944 33.5099 83.6777 33.7386 84.8235 35.5683Z" fill="white"/>
<path d="M118 35.5726C118 36.7655 120.025 38.9128 122.5 40.5829C124.975 42.253 127 42.4916 127 41.06C127 39.8671 124.975 37.7199 122.5 36.2884C120.025 34.8568 118 34.6183 118 35.5726Z" fill="white"/>
<path d="M160.344 36.5C161.075 37.75 162.294 39 163.025 39C163.512 39 164 37.75 164 36.5C164 35 162.781 34 161.319 34C160.1 34 159.612 35 160.344 36.5Z" fill="white"/>
<path d="M48.4071 39.3994C46.2488 41.3197 45.3854 42.76 46.4646 43C49.7022 43 55.0981 38.6793 53.8031 37.2391C53.1556 36.519 50.7814 37.4791 48.4071 39.3994Z" fill="white"/>
<path d="M146 37.7018C146 38.8246 147.4 41.7441 149 44.2144C151.4 47.8075 151.8 47.8075 152 44.8881C152 42.8669 150.6 39.9475 149 38.3755C147.4 36.8035 146 36.5789 146 37.7018Z" fill="white"/>
<path d="M20.8844 43.5C18.5547 45.975 17.3898 48 18.3217 48C19.2536 48 22.0493 45.975 24.845 43.5C27.6407 41.025 28.8055 39 27.4077 39C26.2428 39 23.2142 41.025 20.8844 43.5Z" fill="white"/>
<path d="M138.491 42C140.247 43.6 142.757 45 144.011 45C145.517 45 145.266 43.6 143.509 42C141.753 40.4 139.243 39 137.989 39C136.483 39 136.734 40.4 138.491 42Z" fill="white"/>
<path d="M9.78158 43.2478C8.94663 44.5007 8.7379 45.9624 9.36411 46.5888C10.8253 48.0505 15 45.3359 15 42.8301C15 40.3244 11.4515 40.3244 9.78158 43.2478Z" fill="white"/>
<path d="M117.4 45.4822C119.713 47.9474 122.025 49.5162 122.719 48.8439C124.338 47.4992 118.556 41 115.549 41C114.393 41 115.087 43.017 117.4 45.4822Z" fill="white"/>
<path d="M55.3519 45.5C54.7075 46.75 54.9223 48 56.2111 48C57.2852 48 59.0037 46.75 59.6481 45.5C60.2925 44 60.0777 43 58.7889 43C57.7148 43 55.9963 44 55.3519 45.5Z" fill="white"/>
<path d="M162 45.9994C162 50.7998 165.089 54 169.282 54C173.254 54 174.357 51.2569 171.047 49.1996C169.944 48.2853 168.399 49.1996 167.958 50.5712C167.075 52.3999 166.634 52.1713 166.634 49.6568C166.413 45.0851 162 41.6562 162 45.9994Z" fill="white"/>
<path d="M31.2507 48.7488C29.5017 51.0009 28.5022 53.2531 29.2518 53.7535C30.0014 54.5042 32.0003 53.5033 33.7493 51.2512C35.4983 48.9991 36.4978 46.7469 35.7482 46.2465C34.9986 45.4958 32.9997 46.4967 31.2507 48.7488Z" fill="white"/>
<path d="M134 46.8856C134 47.7609 135.25 50.1678 136.5 51.9183C138.5 54.7629 139 54.7629 139 51.4807C139 49.5114 138 47.1044 136.5 46.448C135.25 45.7916 134 45.7916 134 46.8856Z" fill="white"/>
<path d="M39.0075 50.5458C36.4264 54.4803 39.2422 55.406 42.5272 51.4716C44.4043 49.3886 44.4043 48 42.9965 48C41.5886 48 39.7114 49.1572 39.0075 50.5458Z" fill="white"/>
<path d="M45.2884 54.5C43.8568 56.975 43.6183 59 44.5726 59C45.7655 59 47.9128 56.975 49.5829 54.5C51.253 52.025 51.4916 50 50.06 50C48.8671 50 46.7199 52.025 45.2884 54.5Z" fill="white"/>
<path d="M129.994 57.0319C132.788 60.7822 135.368 63.595 135.798 62.8918C137.303 61.251 129.994 50 127.414 50C126.339 50 127.414 53.0472 129.994 57.0319Z" fill="white"/>
<path d="M146 52.2111C146 53.2852 147 55.0037 148 55.6481C149.2 56.2925 150 56.0777 150 54.7889C150 53.7148 149.2 51.9963 148 51.3519C147 50.7075 146 50.9223 146 52.2111Z" fill="white"/>
<path d="M12.3893 55.8893C9.81772 62.6414 10.9866 65.294 14.4933 60.7122C16.3635 58.0596 18 55.1658 18 53.9601C18 50.5841 13.792 51.7898 12.3893 55.8893Z" fill="white"/>
<path d="M20.71 55.3154C18.5702 60.8411 21.661 61.7252 24.7518 56.6416C26.4161 53.3262 26.4161 52 24.7518 52C23.3253 52 21.661 53.5472 20.71 55.3154Z" fill="white"/>
<path d="M157 54.8077C157 57.0024 158.266 59.6849 159.532 60.4164C162.823 62.3673 162.823 59.1971 159.532 54.3199C157.506 51.1498 157 51.1498 157 54.8077Z" fill="white"/>
<path d="M3.46734 60.1464C2.58884 61.8245 3.02809 63.7124 4.12621 64.3417C5.44397 65.1807 6.32247 65.1807 6.32247 64.5514C6.32247 64.1319 6.98134 62.2441 7.64022 60.3562C8.29909 58.4683 8.07947 57 6.76172 57C5.66359 57 4.12621 58.4683 3.46734 60.1464Z" fill="white"/>
<path d="M35.0075 61.5458C32.4264 65.4803 35.2422 66.406 38.5272 62.4716C40.4043 60.3886 40.4043 59 38.9965 59C37.5886 59 35.7114 60.1572 35.0075 61.5458Z" fill="white"/>
<path d="M24.8111 67.8809C23.3845 70.5668 22.6712 73.2526 23.1467 73.9241C23.86 74.3718 25.7622 72.805 27.1889 70.1191C28.6155 67.4332 29.3288 64.7474 28.8533 64.0759C28.14 63.6282 26.2378 65.195 24.8111 67.8809Z" fill="white"/>
<path d="M39.571 64.7664C38.6733 65.7175 38 68.8083 38 71.4237C38.2244 75.9411 38.2244 76.1789 40.4688 72.137C42.9376 67.6195 42.2643 61.9133 39.571 64.7664Z" fill="white"/>
<path d="M150 65.7819C150 66.878 151.636 69.5087 153.507 71.9202C157.013 76.0854 158.182 73.674 155.611 67.5357C154.208 63.8089 150 62.7128 150 65.7819Z" fill="white"/>
<path d="M168 67.0737C168 69.5863 169.25 73.2411 170.5 75.0684C172.5 77.8095 173 77.8095 173 73.9263C173 71.4137 171.75 67.7589 170.5 65.9316C168.5 63.1905 168 63.1905 168 67.0737Z" fill="white"/>
<path d="M175 67.5456C175 70.6285 176.266 73 177.532 73C180.823 73 180.823 70.3914 177.532 65.8856C175.506 63.0398 175 63.277 175 67.5456Z" fill="white"/>
<path d="M17.4729 69.2255C16.5217 71.3705 15.8083 74.588 16.0461 76.5185C16.0461 78.878 16.9973 78.449 18.4242 75.017C19.6132 72.2285 20.3266 68.7965 19.851 67.5095C19.3754 66.437 18.4242 67.0805 17.4729 69.2255Z" fill="white"/>
<path d="M2.50163 70.8664C-0.488831 73.9332 -0.916039 77 1.86081 77C3.78325 77 6.98731 70.4283 5.70569 69.114C5.27848 68.6759 3.78325 69.5521 2.50163 70.8664Z" fill="white"/>
<path d="M163.388 74.0471C165.254 83.0057 166 83.2297 166 75.1669C166 71.1355 165.067 68 164.134 68C163.015 68 162.642 70.4636 163.388 74.0471Z" fill="white"/>
<path d="M7.52905 74.8688C6.21475 79.2739 7.52905 83.679 9.50049 81.3605C11.691 78.5783 13.0053 70 11.0338 70C9.93859 70 8.18619 72.0866 7.52905 74.8688Z" fill="white"/>
<path d="M30.8401 74.4243C29.7886 75.24 29 77.279 29 79.1142C29 81.3571 29.7886 81.561 31.8917 79.9298C33.4689 78.7063 34.5204 76.6673 33.7318 75.24C33.2061 74.0165 31.8917 73.6087 30.8401 74.4243Z" fill="white"/>
<path d="M147.322 80.5C147.769 83.58 148.661 86 149.107 86C149.554 86 150 83.58 150 80.5C150 77.42 149.107 75 147.992 75C147.099 75 146.653 77.42 147.322 80.5Z" fill="white"/>
<path d="M175.514 83.3446C175.514 85.2655 174.612 86.1192 173.257 85.4789C172.129 84.8386 171 86.1192 171 88.6805C171 92.5223 171.677 92.7357 175.514 90.8148C180.254 88.467 181.609 83.3446 177.772 81.2102C176.643 80.5699 175.514 81.4237 175.514 83.3446Z" fill="white"/>
<path d="M34.3172 84.267C33.6267 85.5763 34.0871 87.7585 35.4681 89.0678C37.3095 90.8135 38 90.1589 38 86.6674C38 81.4302 36.8491 80.5573 34.3172 84.267Z" fill="white"/>
<path d="M156.258 84.2264C155.709 85.4012 156.075 88.4558 156.989 90.5706C158.634 94.3301 158.817 93.8602 159 88.2209C159 81.6417 158.086 80.2318 156.258 84.2264Z" fill="white"/>
<path d="M13 88.548C13 91.181 14.25 94.0534 15.5 94.7715C17 95.729 18 93.5747 18 90.2235C18 86.8724 17 84 15.5 84C14.25 84 13 86.1543 13 88.548Z" fill="white"/>
<path d="M23 88.5406C23 91.7392 23.3077 92.8816 23.7692 91.2823C24.0769 89.9114 24.0769 87.1698 23.7692 85.5704C23.3077 84.1996 23 85.342 23 88.5406Z" fill="white"/>
<path d="M0 88.6297C0 89.7628 1.54 91.3491 3.3 92.0289C5.06 92.9354 6.6 95.4282 6.6 97.6943C6.6 99.9605 7.7 102 8.8 102C10.12 102 11 98.6008 11 94.5217C11 88.4031 10.12 87.27 5.5 87.0434C2.42 86.8168 0 87.4966 0 88.6297Z" fill="white"/>
<path d="M140.325 93.1997C139.021 101.119 141.891 105.199 144.5 98.9595C146.849 93.4397 146.327 86 143.717 86C142.413 86 140.847 89.3599 140.325 93.1997Z" fill="white"/>
<path d="M27 91.5552C27 93.0458 28 95.8139 29 97.5174C30.6 100.073 31 99.4338 31 94.7493C31 91.5552 30.2 89 29 89C28 89 27 90.2776 27 91.5552Z" fill="white"/>
<path d="M164 93.5406C164 96.7392 164.615 97.8816 165.538 96.2823C166.154 94.9114 166.154 92.1698 165.538 90.5704C164.615 89.1996 164 90.342 164 93.5406Z" fill="white"/>
<path d="M148 98.1669C148 106.23 148.995 106.006 151.482 97.0471C152.477 93.4636 151.98 91 150.487 91C149.244 91 148 94.1355 148 98.1669Z" fill="white"/>
<path d="M176 100.541C176 103.739 176.308 104.882 176.769 103.282C177.077 101.911 177.077 99.1698 176.769 97.5704C176.308 96.1996 176 97.342 176 100.541Z" fill="white"/>
<path d="M15 101.5C15 103.367 16.25 105 17.5 105C19 105 20 103.367 20 101.5C20 99.6333 19 98 17.5 98C16.25 98 15 99.6333 15 101.5Z" fill="white"/>
<path d="M36 100.077C36 101.462 37.25 103.078 38.5 103.77C40 104.463 41 103.539 41 101.693C41 99.6156 40 98 38.5 98C37.25 98 36 98.9232 36 100.077Z" fill="white"/>
<path d="M170.149 99.3613C168.806 100.293 168 103.09 168 105.886C168 109.148 168.806 109.847 170.954 107.983C172.566 106.585 173.371 103.556 172.834 101.459C172.566 99.3613 171.223 98.4292 170.149 99.3613Z" fill="white"/>
<path d="M23.347 104.889C24.042 108.443 23.5787 111.523 22.1885 111.997C19.4083 112.945 21.9569 121 25.2005 121C26.5906 121 26.8223 119.342 26.1272 117.209C25.2005 115.077 25.6638 111.997 27.0539 110.339C28.6757 108.443 28.2124 106.074 25.6638 102.994C22.1885 98.7294 22.1885 98.7294 23.347 104.889Z" fill="white"/>
<path d="M152 107.284C152 110.052 153.25 111.561 154.5 110.806C156 110.052 157 107.535 157 105.523C157 103.51 156 102 154.5 102C153.25 102 152 104.264 152 107.284Z" fill="white"/>
<path d="M2 107C2 108 3 109 4 109C5.2 109 6 108 6 107C6 105.8 5.2 105 4 105C3 105 2 105.8 2 107Z" fill="white"/>
<path d="M31 107.584C31 109.697 32.1758 112.279 33.5869 112.983C37.5848 115.564 38.2903 112.983 34.5275 108.054C31.4703 104.064 31.2352 104.064 31 107.584Z" fill="white"/>
<path d="M11 111.2C11 113.583 12 116.183 13 116.833C14.2 117.483 15 116.183 15 113.8C15 111.417 14.2 108.817 13 108.167C12 107.517 11 108.817 11 111.2Z" fill="white"/>
<path d="M135.529 111.869C134.215 116.274 135.529 120.679 137.5 118.361C139.691 115.578 141.005 107 139.034 107C137.939 107 136.186 109.087 135.529 111.869Z" fill="white"/>
<path d="M159.365 109.041C159.365 110.174 158.605 112.895 157.592 115.162C156.58 117.656 156.833 118.563 158.605 117.656C162.151 115.616 164.683 107 161.644 107C160.378 107 159.365 107.907 159.365 109.041Z" fill="white"/>
<path d="M172.571 111.106C171.673 111.763 171 113.95 171 115.919C171.224 118.763 171.673 118.763 173.469 115.481C175.938 111.325 175.264 108.263 172.571 111.106Z" fill="white"/>
<path d="M42.2766 115C43.0426 116.6 44.1915 118 45.1489 118C45.9149 118 46.2979 116.6 45.7234 115C44.9574 113.4 43.8085 112 42.8511 112C42.0851 112 41.7021 113.4 42.2766 115Z" fill="white"/>
<path d="M143 116.681C143 117.9 144.25 118.388 145.5 117.656C147 116.925 148 115.706 148 114.975C148 114.488 147 114 145.5 114C144.25 114 143 115.219 143 116.681Z" fill="white"/>
<path d="M163.589 118.356C162.908 120.805 163.589 122.808 164.95 122.808C166.766 122.808 166.539 123.698 164.723 125.479C163.135 127.037 162 129.707 162 131.488C162 138.387 167.219 129.707 167.9 121.917C168.581 113.46 165.631 111.012 163.589 118.356Z" fill="white"/>
<path d="M30.0258 125.335C29.7884 129.238 31.2126 133.371 33.349 135.207C36.6722 137.733 37.1469 137.733 35.7227 134.289C35.0106 132.223 35.4853 130.157 36.9096 129.697C38.5712 129.009 38.3338 127.172 36.1975 123.728C31.9248 117.07 30.5005 117.3 30.0258 125.335Z" fill="white"/>
<path d="M145.317 122.978C143.746 125.848 143.485 128 145.055 128C147.673 128 151.338 120.826 149.506 119.152C148.982 118.435 147.15 120.348 145.317 122.978Z" fill="white"/>
<path d="M6 123C6 124 7.25 125 8.5 125C10 125 11 124 11 123C11 121.8 10 121 8.5 121C7.25 121 6 121.8 6 123Z" fill="white"/>
<path d="M41.2147 125.5C42.6462 127.975 44.4867 130 45.5092 130C46.3272 130 46.1227 127.975 44.8957 125.5C43.6687 123.025 41.8282 121 40.8057 121C39.5787 121 39.7832 123.025 41.2147 125.5Z" fill="white"/>
<path d="M18.1821 127.443C20.682 131.886 25 133.664 25 130.109C25 127.665 20.0002 123 17.7276 123C16.5912 123 16.8185 124.999 18.1821 127.443Z" fill="white"/>
<path d="M47 124.281C47 124.762 49.2723 126.683 52.2264 128.124C56.7711 130.767 56.9983 130.767 54.0443 127.164C51.0902 123.32 47 121.639 47 124.281Z" fill="white"/>
<path d="M124.929 127.533C121.185 133.666 123.181 134.981 128.423 129.724C131.169 127.095 131.668 125.124 130.17 124.248C128.922 123.371 126.426 124.905 124.929 127.533Z" fill="white"/>
<path d="M135.008 125.546C132.426 129.48 135.242 130.406 138.527 126.472C140.404 124.389 140.404 123 138.996 123C137.589 123 135.711 124.157 135.008 125.546Z" fill="white"/>
<path d="M149.589 129.078C144.992 134.475 144.773 138.229 149.151 134.24C151.777 131.894 152.434 131.894 152.434 134.24C152.434 136.587 153.09 136.587 155.717 134.24C157.468 132.597 159 130.251 159 129.078C159 127.67 157.249 128.139 155.279 129.782C151.996 132.597 151.777 132.597 153.09 128.843C154.841 123.681 153.966 123.681 149.589 129.078Z" fill="white"/>
<path d="M15 135.5C15 137.367 16.8106 139 19.1385 139C22.7597 139 22.7597 138.3 20.1732 135.5C18.3626 133.633 16.5519 132 16.0346 132C15.5173 132 15 133.633 15 135.5Z" fill="white"/>
<path d="M41 133.865C41 134.963 42.4 137.159 44 138.696C45.6 140.233 47 140.452 47 139.135C47 138.037 45.6 135.841 44 134.304C42.4 132.767 41 132.548 41 133.865Z" fill="white"/>
<path d="M62.4071 135.601C64.7814 137.521 67.1556 138.481 67.8031 137.761C69.0981 136.321 63.7022 132 60.4646 132C59.3854 132.24 60.2488 133.68 62.4071 135.601Z" fill="white"/>
<path d="M134.304 135.5C132.767 137.367 132.548 139 133.865 139C134.963 139 137.159 137.367 138.696 135.5C140.233 133.633 140.452 132 139.135 132C138.037 132 135.841 133.633 134.304 135.5Z" fill="white"/>
<path d="M53.7965 139.602C56.9291 142.133 60.0618 143.513 60.7847 142.823C62.4715 141.442 53.7965 135 50.4228 135C49.218 135 50.6638 137.071 53.7965 139.602Z" fill="white"/>
<path d="M109.996 136.241C106.745 137.276 105.816 141 108.835 141C109.996 141 112.783 139.552 115.337 137.897C118.588 135.621 118.82 135 116.266 135C114.408 135 111.389 135.621 109.996 136.241Z" fill="white"/>
<path d="M123.708 138C121.28 139.6 120.309 140.8 121.523 141C125.165 141 131.235 137.399 129.778 136.199C129.05 135.599 126.379 136.399 123.708 138Z" fill="white"/>
<path d="M28.3596 142.5C29.212 144.367 31.1298 146 32.8346 146C35.6048 146 35.6048 145.3 33.4739 142.5C31.9822 140.633 30.0644 139 28.9989 139C27.9334 139 27.7203 140.633 28.3596 142.5Z" fill="white"/>
<path d="M134.236 145.399L129 152L135.109 146.342C138.382 143.042 141 140.213 141 139.741C141 137.856 139.255 139.506 134.236 145.399Z" fill="white"/>
<path d="M39.2135 143.5C39.6422 145.25 41.357 147.251 42.8574 147.751C44.5722 148.501 45.4295 147.501 44.7865 145.5C44.3578 143.75 42.643 141.749 41.1426 141.249C39.4278 140.499 38.5705 141.499 39.2135 143.5Z" fill="white"/>
<path d="M121.974 144.41C118.301 147.282 118.072 148 121.056 148C122.892 148 125.876 146.325 127.482 144.41C131.155 139.863 127.712 139.863 121.974 144.41Z" fill="white"/>
<path d="M143 143.681C143 144.9 144.25 145.388 145.5 144.656C147 143.925 148 142.706 148 141.975C148 141.488 147 141 145.5 141C144.25 141 143 142.219 143 143.681Z" fill="white"/>
<path d="M151.008 143.546C148.426 147.48 151.242 148.406 154.527 144.472C156.404 142.389 156.404 141 154.996 141C153.589 141 151.711 142.157 151.008 143.546Z" fill="white"/>
<path d="M22 145.453C22 146.742 23.25 148.804 24.5 149.578C26 150.351 27 150.093 27 148.547C27 147.258 26 145.196 24.5 144.422C23.25 143.649 22 143.907 22 145.453Z" fill="white"/>
<path d="M54.522 147.165C56.7461 149.369 58.9703 150.471 59.8599 149.809C60.5272 148.928 58.7479 147.165 55.8565 145.843C50.9634 143.199 50.9634 143.199 54.522 147.165Z" fill="white"/>
<path d="M64.5387 145.986C65.2519 147.089 68.342 148.192 71.1945 147.972C76.1863 147.972 76.1863 147.751 71.6699 145.986C65.0141 143.338 62.8748 143.338 64.5387 145.986Z" fill="white"/>
<path d="M104.443 147C101.124 148.714 99.9381 150 102.072 150C103.969 150 108.237 148.714 111.557 147C114.876 145.286 116.062 144 113.928 144C112.031 144 107.763 145.286 104.443 147Z" fill="white"/>
<path d="M84.8385 151.516C86.7103 153.493 90.2201 155.224 92.5599 154.976C96.3037 154.976 96.3037 154.729 92.092 152.999C87.6463 151.021 87.8803 150.774 93.2619 149.785C97.7076 148.796 96.7716 148.302 90.2201 148.055C82.2647 147.808 81.5627 148.302 84.8385 151.516Z" fill="white"/>
<path d="M42.1604 155.559C44.9551 158.119 47.9827 159.612 48.6814 158.759C49.6129 157.905 48.4485 155.772 45.8867 154.065C39.1328 149.371 36.3382 150.225 42.1604 155.559Z" fill="white"/>
<path d="M69.3249 152.986C69.9934 154.089 73.3359 155.192 76.6785 154.972C82.0265 154.972 82.2494 154.751 78.2383 152.986C71.9989 150.338 67.765 150.338 69.3249 152.986Z" fill="white"/>
<path d="M105.481 152.888C102.956 153.937 102.037 154.777 103.185 154.987C104.563 155.196 102.956 156.245 99.7407 157.085L94 158.763L100.43 158.973C103.874 159.183 106.63 158.134 106.63 156.875C106.63 155.406 108.926 154.987 112.141 155.826C118.341 157.295 125 155.616 125 152.679C125 151.629 122.474 151.839 119.259 152.888C115.585 154.147 113.519 154.147 113.519 152.888C113.519 150.371 111.681 150.371 105.481 152.888Z" fill="white"/>
<path d="M132.057 153.759C127.932 158.427 136.869 159.7 141.911 155.244C146.266 151.212 146.266 151 140.307 151C137.099 151 133.432 152.273 132.057 153.759Z" fill="white"/>
<path d="M32.4223 155C33.1956 156 35.2578 157 36.5466 157C38.0933 157 38.351 156 37.5777 155C36.8044 153.8 34.7422 153 33.4534 153C31.9067 153 31.649 153.8 32.4223 155Z" fill="white"/>
<path d="M55.2278 155.079C56.5491 158.974 64.0365 158.974 64.9174 155.079C65.1376 153.475 64.9174 153.246 64.2568 154.621C63.5961 155.995 61.8343 155.995 58.7513 154.392C55.2278 152.33 54.5671 152.559 55.2278 155.079Z" fill="white"/>
<path d="M78.0065 158.769C80.0984 159.077 83.8172 159.077 86.1415 158.769C88.2334 158.308 86.374 158 81.9578 158C77.5416 158 75.6822 158.308 78.0065 158.769Z" fill="white"/>
<path d="M121.033 159.17C119.4 159.589 118 161.054 118 162.1C118 162.937 119.633 163.147 121.967 162.519C124.767 161.472 125.233 161.891 123.833 163.984C122.433 166.076 122.9 166.495 125.933 165.449C128.267 164.612 130.6 163.984 131.067 163.984C131.533 163.984 132 163.147 132 161.891C132 160.845 130.367 160.635 128.033 161.263C125.467 162.1 124.767 161.891 125.933 160.217C127.567 157.706 125.933 157.287 121.033 159.17Z" fill="white"/>
<path d="M41 162C41 163 41.9141 164 43.011 164C43.9251 164 44.2908 163 43.7423 162C43.1938 160.8 42.2797 160 41.7313 160C41.3656 160 41 160.8 41 162Z" fill="white"/>
<path d="M68 161.949C68 163.367 73.2059 166 75.8088 166C78.6287 166 76.0257 162.152 72.3382 161.342C69.9522 160.734 68 160.937 68 161.949Z" fill="white"/>
<path d="M54.5177 165.41C56.1244 167.325 59.1082 169 60.9444 169C63.9282 169 63.6987 168.282 60.0263 165.41C54.2882 160.863 50.8453 160.863 54.5177 165.41Z" fill="white"/>
<path d="M103.185 164C102.463 165 103.907 166 106.556 166C109.204 166 112.093 165 112.815 164C113.537 162.8 112.093 162 109.444 162C106.796 162 103.907 162.8 103.185 164Z" fill="white"/>
<path d="M86 164.857C86 166.784 93.4715 167.855 94.7168 166.142C95.713 164.857 93.9696 164 91.2301 164C88.2415 164 86 164.428 86 164.857Z" fill="white"/>
<path d="M108.006 169.715C103.856 172.424 103.856 172.424 108.928 171.263C111.695 170.683 114 169.522 114 168.554C114 166.233 113.308 166.426 108.006 169.715Z" fill="white"/>
<path d="M72.3199 171.025C77.1971 173.658 80.3673 173.658 78.4164 171.025C77.6849 169.81 75.0024 169 72.8077 169C69.1498 169 69.1498 169.405 72.3199 171.025Z" fill="white"/>
<path d="M90.7177 172.538C92.0886 173.154 94.8302 173.154 96.4296 172.538C97.8004 171.615 96.658 171 93.4594 171C90.2608 171 89.1184 171.615 90.7177 172.538Z" fill="white"/>
</svg>
